<svg xmlns="http://www.w3.org/2000/svg" viewBox="0 0 593.87 934.32" version="1.0"><path d="M220.303 933.434c-10.49-.57-31.97-3.9-59.82-9.27-14.14-2.72-33.52-10.33-40.48-15.89l-5.69-4.54.37-30.09c.23-19 1.46-33.6 3.34-39.62 1.74-5.62 3.15-20.47 3.43-36.16.4-22.88-.18-28.39-4.12-39.2-3.81-10.43-4.32-14.82-3.04-25.76 3.57-30.29.49-91.89-4.59-91.89-5.24 0-9.63-14.54-8.42-27.88.6-6.69 2.06-13.32 3.23-14.73 2.23-2.68 1.86-22.15-.67-35.38-1.04-5.41-3.89-9.63-9.67-14.27-4.51-3.62-8.2-7.73-8.2-9.13s-1.89-3.73-4.2-5.17c-4.17-2.61-5.8-11.84-2.45-13.91.97-.6 1.37-3.72.91-6.95-.47-3.22.01-9.64 1.05-14.26 1.57-6.96 1.24-9.08-1.95-12.43-2.12-2.23-3.85-5.71-3.85-7.75s-.95-4.29-2.1-5c-3-1.86-25.32 10.5-34.35 19.02-7.25 6.85-16.026 9.64-16.026 5.11 0-1.15 1.749-2.1 3.887-2.1 2.137 0 6.849-2.83 10.479-6.29 3.62-3.47 7.54-6.3 8.7-6.3 1.17 0 2.12-.94 2.12-2.1 0-4.26-6.51-1.89-14.4 5.24-10.791 9.74-22.101 14.57-25.252 10.78-1.259-1.52-1.667-3.38-.908-4.14.76-.76.381-1.38-.843-1.38-4.841 0-4.963-7.19-.183-10.79 2.636-1.99 4.122-4.29 3.301-5.11-.82-.82-2.782-.42-4.359.89-3.286 2.72-5.669 1.13-5.545-3.71.186-7.22 12.02-16.75 33.779-27.22 12.28-5.9 24.26-10.73 26.63-10.73 9.22 0 14.23-3.89 19.86-15.39 3.14-6.4 5.7-12.46 5.7-13.46 0-3 14.26-37.41 19.08-46.04 2.46-4.41 7.22-12.11 10.58-17.11 10.35-15.4 11.43-18.84 21.51-68.57 1.63-8.08 3.09-20.12 3.24-26.76.64-28.91 6.86-45.35 20.09-53.1 5.73-3.36 9.46-7.05 9.46-9.37 0-3.7 26.26-31.46 29.76-31.46 2.45 0 2.14-12.08-.35-13.63-1.19-.73-1.55.11-.84 1.96.74 1.93-.15 3.78-2.19 4.56-2.29.88-5.96-1.28-11.04-6.52-6.08-6.25-7.8-9.87-8.58-17.97-.81-8.38-1.76-10.26-5.44-10.79-3.44-.49-4.38-1.97-4.08-6.41.22-3.17-.39-5.77-1.35-5.77-3.11 0-4.43-6.75-1.91-9.78 2.28-2.75 3.05-6.47 4.72-22.75 1.17-11.458 3.98-18.804 10.02-26.191 3.28-4.015 5.97-9.476 5.97-12.135s1.44-5.388 3.2-6.063c2.47-.948 2.65-1.893.79-4.132-2.59-3.129.7-9.2 4.99-9.2 1.19 0 5.23-2.337 8.97-5.192 6.62-5.045 7.01-5.093 13.79-1.712 4.76 2.377 12.64 3.524 24.85 3.618 17.55.135 17.92.244 20.75 6.164 1.59 3.315 2.08 6.62 1.08 7.346-2.45 1.782-2.86 8.666-.53 8.666 1.03 0 1.87 1.945 1.87 4.322 0 2.376-.95 3.738-2.1 3.024-1.16-.713-2.1-.297-2.1.926 0 1.222 1.26 2.222 2.79 2.222 7.41 0 9.48 16.699 2.91 23.467-1.53 1.58-2.92 9.1-3.24 17.46-.51 13.32-1.67 22.43-5.78 45.47-1.24 6.97-.8 7.99 4.66 10.81 7.24 3.74 16.88 4.88 23.3 2.74 2.59-.86 5.88-.85 7.3.04 1.43.88 8.3 1.73 15.27 1.89s14.72 1.39 17.23 2.73c2.5 1.34 7.06 2.44 10.13 2.44 3.06 0 7.98 1.89 10.91 4.2 2.94 2.3 7.96 4.19 11.16 4.19 7.35 0 26.63 14.9 29.39 22.69 1.1 3.11 2.72 6.92 3.6 8.47 1.32 2.34 27.98 14.46 40.65 18.49 1.92.61 7.91-2.09 13.65-6.15 10.19-7.21 10.28-7.23 34.31-7.3 17.33-.06 25.27.74 28.28 2.85 3.06 2.15 3.36 2.98 1.09 3.1-1.93.1-2.16.54-.61 1.17 4.38 1.79 19.27-9.92 24.95-19.61 3.03-5.16 8.71-11.28 12.63-13.6 3.92-2.31 8.32-6.66 9.77-9.66 1.66-3.43 5.27-6.13 9.72-7.27 9.26-2.39 12.86-.8 12.86 5.66 0 4.78.5 5.07 5.39 3.21 7.21-2.74 7.02-2.82 9.42 3.49 1.63 4.3 1.36 6.37-1.23 9.23-2.18 2.41-2.53 3.96-1 4.47 3.12 1.04 3.84 7 2.04 16.85-.81 4.45-.65 8.59.35 9.21 3.36 2.07 1.88 7.33-3.45 12.27-3.11 2.88-4.78 6.2-4.06 8.08 1.61 4.18-6.65 9.91-14.29 9.91-3.3 0-6.42-1.38-7.1-3.14-.84-2.19-4.18-3.13-10.95-3.09-16.5.12-16.57.31-15.81 39.82.41 21.27-.55 45.96-2.49 64.01-2.27 21.03-2.77 38.39-1.75 61.05 1.41 31.3 1.37 31.71-3.45 36.2-7.5 6.99-15.89 5.8-30.8-4.37-9.39-6.42-15.14-12.38-20.46-21.24-8.22-13.69-9.15-19.03-3.82-22.01 3.19-1.78 3.7-8.27 4.72-59.92.63-31.86.55-57.93-.17-57.92-.72 0-4.14.56-7.6 1.26l-6.28 1.25-1.61 24.46c-.89 13.45-1.43 72.86-1.21 132.02.23 59.16-.35 107.57-1.28 107.58-.93 0-5.29 3.31-9.68 7.34-4.39 4.04-10.06 7.35-12.6 7.35-3.94.01-4.67 1.3-5.07 8.92-.77 14.45-2.13 17.28-10.48 21.9-13.94 7.7-40.24 15.35-52.81 15.35-10.07 0-13.5-1.11-22.77-7.35-6-4.04-11.25-7.35-11.67-7.35-.41 0-.89 5.44-1.05 12.07-.17 6.64-.83 15.38-1.48 19.42-.78 4.87.32 11.22 3.27 18.89 11.88 30.79 12.76 37.38 12.37 92.35-.38 53.27.61 70.63 4.25 74.27 1.17 1.17 2.13 4.34 2.13 7.05 0 5.39 1.79 8.12 12.24 18.69 7.52 7.61 16.25 32.68 14.52 41.72-.83 4.37.37 5.09 13.97 8.36 31.5 7.55 46.03 17.7 44.48 31.06-.43 3.69-.89 9.29-1.02 12.45-.2 4.94-2.35 6.81-15.45 13.44-12.59 6.37-19.06 8.15-37.48 10.28-19.92 2.32-132.88 3.43-165.59 1.64zm151.12-7.08c24.5-2.04 42.67-6.24 56.13-12.96 7.85-3.92 8.94-5.32 8.94-11.49 0-6.78-.16-6.92-4.72-3.98-7.5 4.83-27.67 9.24-59.34 12.97-23.74 2.8-40.77 3.22-89.16 2.2-32.9-.7-64.07-1.81-69.27-2.47-5.19-.67-16.52-2.22-25.18-3.45s-19.2-2.35-23.41-2.49c-4.22-.14-7.24-.97-6.7-1.83.53-.87.05-1.58-1.08-1.58s-3.55-.57-5.37-1.27c-2.69-1.03-3.32.32-3.32 7.07 0 8.06.31 8.43 8.92 10.69 11.23 2.94 45.76 8.41 58.24 9.23 22.89 1.49 135.33 1.03 155.32-.64zm-220.38-14.58c0-1.16.94-2.1 2.1-2.1 1.15 0 2.09.94 2.09 2.1 0 1.15-.94 2.1-2.09 2.1-1.16 0-2.1-.95-2.1-2.1zm-4.86-10c-.52-2-.93.13-.91 4.75s.45 6.26.95 3.65c.51-2.61.49-6.39-.04-8.4zm-3.54 5.8c0-2.31-.36-4.2-.8-4.2-.45 0-1.3 1.89-1.91 4.2-.6 2.31-.24 4.2.81 4.2s1.9-1.89 1.9-4.2zm238.96-1c34.66-4.59 54.89-10.81 54.89-16.89 0-7.61-24.78-19.53-48.5-23.32-7.17-1.15-8.29-.71-10.47 4.08-1.8 3.95-4.63 5.74-10.73 6.77-6.83 1.15-10.7.2-22.2-5.46-14.53-7.15-32.98-9.17-36.2-3.96-1.01 1.64-2.56.91-4.77-2.24-2.21-3.16-6.12-5-12.07-5.69-5.18-.6-8.31-.21-7.6.94.7 1.13-2.78 1.8-8.13 1.57-5.14-.21-9.34.43-9.34 1.42 0 2.51-7.87 2.26-9.45-.3-.71-1.15-3.4-2.1-5.97-2.1-4 0-4.73 1.22-5.01 8.32-.52 12.94-3.38 16.42-14.74 17.97-5.48.75-17.14 4.93-25.91 9.29l-15.95 7.92 20.15 1.62c11.08.89 27.7 2.36 36.94 3.27 24.51 2.42 107.44.45 135.06-3.21zm-261.66-7.85c-1.51-1.51-2.49-1.63-2.49-.32 0 2.8 2.49 5.29 3.89 3.89.59-.6-.04-2.21-1.4-3.57zm55.41-1.65c.48 0 .87-1.35.87-3s4.11-5.76 9.12-9.15c8.13-5.48 9.36-5.78 11.41-2.77 1.93 2.85 2.16 2.63 1.48-1.4-.44-2.65.09-4.23 1.19-3.55s3.04.59 4.31-.2c1.62-1 1.46-1.99-.52-3.24-2.1-1.33-2.16-1.82-.23-1.84 4.53-.06 2.86-3.32-1.88-3.68-8.35-.63-9.05-4.23-1.69-8.7 3.82-2.32 7.72-3.75 8.65-3.18.93.58 1.18-.31.54-1.97-.68-1.78-2.83-2.59-5.2-1.97-2.22.58-3.48 1.95-2.8 3.05.68 1.11-.04 1.83-1.6 1.62-5.72-.79-7.61.19-7.33 3.78.19 2.32-1.44 3.92-4.43 4.34-3.38.48-4.72 2.09-4.72 5.67 0 4.92.11 4.94 7.57 1.83 11.82-4.94 10.2-2.43-2.88 4.47-12.78 6.74-19.38 11.51-19.38 14 0 .86 1.57.96 3.49.22 2.35-.9 3-.53 1.98 1.12-.84 1.35-2.94 2.46-4.67 2.46s-2.52 1-1.76 2.24c.76 1.23 2.78 1.7 4.49 1.05 1.71-.66 3.5-1.2 3.99-1.2zm-51.6-2.89c0-.43-1.42-1.97-3.15-3.4-2.58-2.14-3.15-2-3.15.79 0 1.87 1.42 3.41 3.15 3.41s3.15-.36 3.15-.8zm26.84-4.45l7.72-5.25-7.31-.03c-10.88-.05-12.53-1.98-12.25-14.32.13-6.04-.38-11.61-1.14-12.37-5.83-5.83-14.4 6-9.75 13.45 2.13 3.42 2.25 3.32 1.1-.9-.96-3.5-.4-4.72 2.14-4.72 2.47 0 3.06 1.17 2.1 4.2-.86 2.69-.34 4.31 1.43 4.51 1.52.17-1.41.88-6.52 1.58-5.1.69-9.65 2.39-10.11 3.78-1.07 3.26 6.14 9.4 14.73 12.53 9.33 3.4 9.2 3.42 17.86-2.46zm46.21.77c4.61-2.46 9.46-6.95 10.78-9.97 2.12-4.87 1.77-4.71-3.09 1.33-5.91 7.34-9.38 8.7-9.38 3.67 0-1.73-.93-3.15-2.07-3.15s-1.85 2.09-1.57 4.64c.34 3.16-.82 4.91-3.64 5.49-3.73.77-3.83.49-1.04-2.88 2.71-3.29 2.7-3.61-.07-2.69-4.21 1.39-5.37 8.04-1.4 8.04 1.7 0 6.87-2.02 11.48-4.48zm-31.07-.08c0-1.35 1.48-4.09 3.28-6.09 2.5-2.76 2.68-4.01.73-5.21-1.46-.91-2.02-.71-1.3.46.69 1.12-1.09 4.57-3.96 7.67-3.9 4.21-4.4 5.63-1.98 5.63 1.77 0 3.23-1.11 3.23-2.46zm-1.81-13.07c1.25-2.75 4.77-6.29 7.81-7.86 8.19-4.22 20.7-16.74 23.13-23.15 2.58-6.81 3.21-26.67 1.26-39.52-.8-5.19-5-26.92-9.36-48.27-4.35-21.36-8.03-40.25-8.17-41.98s-1.08-18.26-2.09-36.73-2.91-37.62-4.22-42.54c-1.32-4.93-2.05-12.96-1.63-17.84.42-4.89-.1-11.21-1.15-14.05s-2.34-8.51-2.88-12.59c-1.87-14.2-3.53-22.14-5.05-24.22-1.58-2.17-2.7-23.39-3.01-57.2l-.18-19.42-6.29-1c-3.47-.56-8.66-1.37-11.55-1.82-3.43-.52-2.48-.9 2.77-1.09 9.11-.32 9.11-.51.21-20.75-5.03-11.44-6.71-12.74-10.95-8.5-3.57 3.57-3.13-.71.63-6.08 1.73-2.47 2.55-6.03 1.83-7.92-1.17-3.05-1.75-2.96-5.25.79-2.16 2.32-3.93 5.11-3.93 6.18 0 1.08-1.42 2.51-3.15 3.17-4.48 1.73-3.91-.29 2.1-7.43 2.89-3.43 5.19-8.29 5.11-10.8l-.13-4.56-1.85 4.58c-1.01 2.52-3.6 5.53-5.75 6.68s-8.97 7.3-15.17 13.68c-6.2 6.37-13.23 11.87-15.63 12.21-2.85.41-4.44 2.27-4.6 5.35-.25 4.98 1.75 5.58 8.64 2.62 3.42-1.47 3.54-1.83.64-1.95-7.23-.3-5.6-3.92 1.77-3.92 5.25 0 6.73.58 4.72 1.85-1.78 1.13-1.98 1.87-.51 1.89 4.05.06-1.88 10.49-5.98 10.51-6.12.03-6.25 3.89-.15 4.81 5.61.85 5.59.89-.81 1.19-6.26.3-6.65.81-7.36 9.72-.83 10.54-.23 13.68 2.63 13.68 1.09 0 1.4-3.94.71-8.92-1.15-8.27-1.03-8.55 1.55-3.84 4.16 7.6 8.67 8.41 5.87 1.06-1.38-3.65-1.46-6.51-.2-7.76 2.28-2.28 6.56-.29 6.56 3.05 0 1.33-1.48 1.07-3.67-.64-3.3-2.59-3.39-2.53-.9.66 1.53 1.95 5.31 3.9 8.4 4.32l5.62.77-5.78 2.45c-6.82 2.9-7.45 8.41-1.75 15.44 4.92 6.08 8.2 3.7 4.48-3.24-1.48-2.77-2.05-6.09-1.25-7.38 1.97-3.19 5.59-.62 4.88 3.45-.32 1.81.75 3.76 2.37 4.33 2.1.73 2.55-.04 1.55-2.64-1.09-2.85-.6-3.36 2.18-2.3 3.23 1.24 3.21.97-.21-2.8-3.71-4.1-3.64-4.17 3.53-3.77 4.85.27 6.97 1.29 6.3 3.03-.55 1.43-1.85 2.09-2.88 1.45s-1.88.1-1.88 1.65c0 1.54-3.4 6.02-7.56 9.94-8.71 8.21-12.3 7.38-17.85-4.14-4.86-10.06-6.18-3.34-1.74 8.81 3.34 9.13 3.35 9.96.17 10.81-1.9.5-.56 1.02 2.98 1.16 4.92.18 8.01-1.54 13.12-7.31 5.67-6.41 6.68-6.9 6.68-3.25 0 2.36-1.56 5.17-3.46 6.24-1.91 1.06-3.74 4.65-4.08 7.97l-.61 6.04 2.95-5.25 2.95-5.25.07 5.25c.04 2.88-1.64 8.08-3.73 11.54-2.3 3.82-3.89 10.84-4.05 17.84l-.26 11.55 1.84-8.83c2.69-12.95 5.68-17.41 11.66-17.41 3.74 0 5.87 1.63 7.51 5.77 3.72 9.42 4.45 22.13 1.65 28.86-1.44 3.47-2.57 6.77-2.51 7.35s.79 5.18 1.62 10.23c1.07 6.52.83 8.77-.82 7.75-1.28-.79-2.33-5.38-2.33-10.19v-8.76l-6.71 6.71-6.71 6.71 2.81 11.09c1.55 6.1 3.86 11.78 5.14 12.63 1.36.91.47 1.56-2.16 1.58-2.69.02-4.91 1.7-5.57 4.23-.61 2.31-.48 3.88.28 3.48.75-.39 3.18 1.17 5.38 3.48 3.95 4.14 3.94 4.18-.53 3.01-3.33-.87-4.53-.24-4.53 2.4 0 1.97.88 4.48 1.94 5.57 2.33 2.4 3.62 20.15 1.69 23.27-1.46 2.36-.95 5.76 3.61 23.85l2.9 11.55.53-10.5c.51-10.02.57-10.12 1.38-2.22.47 4.55 1.52 7.2 2.34 5.87.81-1.32 1.5 6.3 1.52 16.94.03 19.21.11 19.52 11.83 43.53 17.27 35.37 18.19 50.43 4.22 68.73-6.85 8.97-7.54 11.12-7.67 23.95-.16 15.47-1.5 14.07 15.12 15.82 3.29.35 5.49-1.06 7.06-4.49zm-10.78-24.23c0-1.22.94-2.22 2.09-2.22 1.16 0 2.1.41 2.1.92s-.94 1.51-2.1 2.23c-1.15.71-2.09.29-2.09-.93zm27.28-12.72c0-1.15.42-2.1.93-2.1s1.51.95 2.22 2.1c.71 1.16.3 2.1-.93 2.1-1.22 0-2.22-.94-2.22-2.1zm-8.39-2.1c-1.74-1.11-2.21-2.03-1.05-2.03 1.15 0 3.51.92 5.24 2.03 1.74 1.12 2.21 2.04 1.05 2.04-1.15 0-3.51-.92-5.24-2.04zm-2.1-12.59c0-1.15.94-2.1 2.1-2.1 1.15 0 2.09.95 2.09 2.1 0 1.16-.94 2.1-2.09 2.1a2.1 2.1 0 01-2.1-2.1zm2.1-6.95c0-1.7 1.48-3.66 3.3-4.36 2.3-.88 3.09-.21 2.62 2.22-.86 4.45-5.92 6.28-5.92 2.14zm0-14.86c0-.46 1.41-1.37 3.14-2.04 1.74-.66 3.15-.29 3.15.83s-1.41 2.03-3.15 2.03c-1.73 0-3.14-.37-3.14-.82zm2.67-11.77c-.17-2.31.47-4.2 1.43-4.2 2.26 0 4.38 5.51 2.75 7.14-2.34 2.34-3.86 1.27-4.18-2.94zm-.58-8.27c0-1.23.95-2.23 2.1-2.23 1.16 0 2.1.42 2.1.93s-.94 1.51-2.1 2.22c-1.15.72-2.1.3-2.1-.92zm-2.09-6.3c0-1.22.94-2.22 2.09-2.22 1.16 0 2.1.41 2.1.92s-.94 1.51-2.1 2.23c-1.15.71-2.09.29-2.09-.93zm-6.3-14.82c0-1.15.94-2.09 2.1-2.09 1.15 0 2.1.94 2.1 2.09a2.1 2.1 0 11-4.2 0zm-30.43-18.89c-.72-1.15-.3-2.09.92-2.09s2.22.94 2.22 2.09c0 1.16-.41 2.1-.92 2.1s-1.51-.94-2.22-2.1zm4.08-6.48c-1.91-3.09.06-4.47 5.26-3.66 4.41.69 4.41.73.28 3.28-2.84 1.75-4.62 1.88-5.54.38zm1.16-8.21c0-1.15 1.42-2.1 3.15-2.1s3.15.95 3.15 2.1c0 1.16-1.42 2.1-3.15 2.1s-3.15-.94-3.15-2.1zm9.45-35.68c-.72-1.15-.3-2.1.92-2.1 1.23 0 2.23.95 2.23 2.1s-.42 2.1-.93 2.1-1.51-.95-2.22-2.1zm-3.15-6.3c0-1.15.42-2.1.92-2.1.51 0 1.51.95 2.23 2.1.71 1.16.29 2.1-.93 2.1s-2.22-.94-2.22-2.1zm-2.1-6.29c0-1.16.42-2.1.93-2.1.5 0 1.51.94 2.22 2.1.71 1.15.3 2.1-.93 2.1-1.22 0-2.22-.95-2.22-2.1zm-16.22-1.27c.7-.7 2.51-.77 4.02-.17 1.67.67 1.18 1.17-1.27 1.27-2.21.09-3.45-.4-2.75-1.1zm8.99-16.05c-3.64-12.01-2.35-15.71 2.68-7.65 1.52 2.43 1.75 3.79.51 3.02-3.06-1.89-2.87 1.61.26 4.74 1.96 1.96 1.95 2.51-.06 2.51-1.43 0-2.95-1.18-3.39-2.62zm-17.96-5.7c0-1.12 1.42-1.49 3.15-.83s3.15 1.58 3.15 2.03c0 .46-1.42.83-3.15.83s-3.15-.92-3.15-2.03zm16.79-12.66c0-2.31.37-4.2.81-4.2s1.3 1.89 1.9 4.2c.61 2.3.24 4.19-.8 4.19-1.05 0-1.91-1.89-1.91-4.19zm-15.74-2.1c-.71-1.16.18-2.1 1.98-2.1s3.27.94 3.27 2.1c0 1.15-.89 2.1-1.97 2.1-1.09 0-2.56-.95-3.28-2.1zm10.29-13.74c-.74-2.94-.94-5.76-.44-6.25 1.43-1.44 10.09 5.29 10.09 7.84 0 1.27-2.01.5-4.47-1.7-4.44-3.96-4.47-3.95-3.01.73.81 2.6.95 4.72.32 4.72-.64 0-1.76-2.4-2.49-5.34zm20.85-18.8c0-1.73.78-3.14 1.75-3.14.96 0 1.74 1.41 1.74 3.14 0 1.74-.78 3.15-1.74 3.15-.97 0-1.75-1.41-1.75-3.15zm-.7-7.34c0-1.16 2.12-2.09 4.72-2.07 3.82.03 4.12.42 1.57 2.07-4.07 2.63-6.29 2.63-6.29 0zm4.19-8.4c0-1.15.95-2.1 2.1-2.1a2.1 2.1 0 11-2.1 2.1zm0-11.32c0-.45 1.42-1.37 3.15-2.03s3.15-.29 3.15.82c0 1.12-1.42 2.04-3.15 2.04s-3.15-.37-3.15-.83zm.57-6.74c.7-.69 2.51-.77 4.03-.16 1.67.67 1.17 1.16-1.27 1.27-2.21.09-3.45-.41-2.76-1.11zm-4.76-3.75c0-.46 1.41-1.37 3.15-2.03 1.73-.67 3.14-.3 3.14.82s-1.41 2.03-3.14 2.03c-1.74 0-3.15-.37-3.15-.82zm.96-20.82c-2.07-8.25.25-11.87 3.06-4.78 1.59 4 1.72 6.83.37 8.18s-2.54.17-3.43-3.4zm-41.8-52.54c-2.89-2.11-3.5-4.27-2.42-8.57.95-3.77.69-5.29-.74-4.4-3.64 2.25-2.43-1.39 1.49-4.48 7.53-5.92 11.93-7.14 5.85-1.61-5.49 4.99-5.66 5.48-1.47 4.15 4.8-1.52 10.84 1.62 10.84 5.65 0 1.21-1.28 1.04-3.02-.41-2.59-2.15-2.67-1.76-.59 2.64l2.43 5.16 3.96-7.8c2.18-4.29 5.28-7.8 6.89-7.8s2.92.37 2.92.82c0 2.4-13.44 17.09-14.84 16.23-.91-.57-2.25-.07-2.97 1.11-1.77 2.85-3.71 2.69-8.33-.69zm5.41-5.37c-1.59-1.01-2.24-2.88-1.45-4.17.79-1.28.5-2.33-.66-2.33-2.92 0-4.95 3.77-3.39 6.29.71 1.16 2.89 2.09 4.84 2.07 2.84-.02 2.97-.4.66-1.86zm-6.08-26.6c2-2.08 4.2-3.21 4.91-2.51.7.7-.93 2.41-3.63 3.79-4.68 2.41-4.74 2.35-1.28-1.28zm25.83-1.51c-.9-2.07-1.04-4.35-.32-5.07 2.13-2.13 3.85.86 2.86 5-.87 3.67-.98 3.67-2.54.07zm82.84 408.93c0-.54-1.89-1.99-4.2-3.22-2.53-1.36-4.19-1.45-4.19-.23 0 1.11 1.65 2.45 3.67 2.98s3.91 1.07 4.2 1.2c.29.14.52-.19.52-.73zm18.89-.68c0-.91-2-1.8-4.45-1.98-2.45-.19-8.11-2.76-12.59-5.73-5.81-3.84-8.14-4.55-8.14-2.45 0 3.83 8.21 9.13 15.93 10.28 3.35.5 6.81 1.05 7.68 1.22.86.17 1.57-.43 1.57-1.34zm120.69-2.54c-.71-1.16-2.42-2.09-3.8-2.07-1.5.02-1.24.84.65 2.07 4.03 2.6 4.76 2.6 3.15 0zm-129.08-7.17c0-1.64 1.18-3.45 2.62-4.04 1.67-.67 1.38-1.12-.79-1.22-1.88-.09-4.71-1.82-6.3-3.84-2.56-3.27-2.5-3.38.54-1 2.72 2.12 4.64 2.14 9.44.09l6.03-2.57-6.66-.74c-3.67-.41-7.8-2.11-9.18-3.77-3.02-3.64-9.23-4.14-7.03-.57 1.03 1.66.36 2.01-2.08 1.07-2.14-.82-3.08-.54-2.32.69.7 1.14.27 2.08-.96 2.08-1.48 0-1.39 1.37.3 4.06 1.39 2.23 3.34 3.57 4.31 2.96.98-.6.68-2.43-.67-4.06-1.44-1.74-1.59-2.96-.36-2.96 1.15 0 3.27 1.41 4.71 3.15 2.1 2.52 2.04 3.87-.27 6.82-2.57 3.28-2.51 3.38.61.95 2.34-1.84 3.93-2.01 4.85-.53.74 1.21.3 2.2-.99 2.2s-1.76.95-1.05 2.1c1.92 3.1 5.25 2.55 5.25-.87zm-9.45-13.82c-.71-1.16-.3-2.1.93-2.1 1.22 0 2.22.94 2.22 2.1 0 1.15-.42 2.1-.93 2.1-.5 0-1.51-.95-2.22-2.1zm-17.45 13.26c-1.51-.61-3.32-.54-4.02.16s.54 1.2 2.76 1.1c2.44-.1 2.94-.59 1.26-1.26zm144.7-3.33c-2.08-2.05-2.32-1.81-1.18 1.18.79 2.07 1.96 3.23 2.61 2.59.64-.65 0-2.34-1.43-3.77zm16.53 2.54c0-1.22-.99-1.61-2.2-.87-1.21.75-3.81.71-5.78-.1-3.32-1.35-3.3-1.56.16-2.85 3.13-1.18 3.3-1.97 1.05-4.99-4.19-5.61-8.62-1.57-5.96 5.43 1.53 4.03 3.62 5.6 7.43 5.6 2.91 0 5.3-1 5.3-2.22zm9.42.09c-.73-1.18-2.36-1.49-3.63-.71-1.5.93-1.83.17-.93-2.17.77-1.99-.12-5.9-1.98-8.74-3.54-5.4-7.08-6.78-7.08-2.76 0 4.37 8.7 16.51 11.84 16.51 1.7 0 2.51-.96 1.78-2.13zm-247.62-4.27c1.49-4.68-2.45-11.09-5.62-9.13-1.17.72-1.03 2.33.34 3.99 1.6 1.92 1.63 3.19.11 4.13-3.21 1.98-2.7 5.31.8 5.31 1.66 0 3.62-1.93 4.37-4.3zm209.67-6.18c-2.78-5.77-5.13-11.67-5.22-13.12-.08-1.45-1.42.67-2.97 4.71-2.72 7.11-2.59 7.54 3.76 13.12 3.61 3.17 7.22 5.77 8.03 5.77.8 0-.82-4.72-3.6-10.48zm-94.59 5.34c.78-2.03.16-2.65-1.86-1.88-1.67.64-2.51 2.01-1.87 3.04 1.61 2.61 2.38 2.37 3.73-1.16zm38.53-1.19c5.54-1.18 17.11-2.38 25.71-2.68l15.63-.55 3.41-11.49c1.88-6.31 3.71-11.95 4.08-12.53s-2.43-7.19-6.22-14.68c-7.5-14.87-12.67-44.86-8.45-49.07 1.18-1.19 2.17-4.09 2.19-6.46.06-6.07-12.07-45.93-18.55-60.97-4.48-10.38-5.51-16.29-5.88-33.58-.39-18.71-1.48-24.07-9.98-49.33-5.25-15.58-15.48-46.75-22.74-69.26-10.42-32.31-13.33-39.38-13.81-33.58-.34 4.04-2.88 21.51-5.66 38.82-2.78 17.32-6.12 39.52-7.41 49.33-1.3 9.81-3.81 24.71-5.58 33.11-3.79 17.95-3.17 23.81 4.62 43.5l5.81 14.69.65 61.92c.36 34.05 1.1 67.76 1.63 74.9 1.09 14.52 6.18 27.23 11.45 28.63 6.53 1.73 19 1.42 29.1-.72zm91.21-11.42c-2.96-5.03-3.36-6.86-1.31-6.07 1.6.62 3.52 2.99 4.24 5.28.73 2.29 1.88 3.61 2.56 2.93s-.91-4.13-3.53-7.67c-2.61-3.54-4.07-7.07-3.23-7.84.83-.78 1.94-.23 2.45 1.21.52 1.45 1.84 2.63 2.94 2.63 2.79 0-2.05-8.51-7.38-12.97-2.43-2.03-3.42-3.72-2.21-3.76 1.21-.03 3.34 1.07 4.72 2.45 1.39 1.39 2.52 1.94 2.52 1.23 0-1.99-17.3-14.24-20.12-14.24-1.38 0-4.73 1.82-7.46 4.05-3.97 3.25-4.43 4.58-2.33 6.72 2.12 2.15 2.63 1.97 2.63-.91 0-1.96 1.04-3.56 2.32-3.56s1.81 1.34 1.17 2.99c-.63 1.65.1 4.03 1.62 5.29 3.79 3.15 6.17-5.85 2.67-10.07-2.02-2.43-1.18-2.36 4.08.36 7.02 3.63 6.98 3.35 3.69 22.94-1.05 6.28-.66 7.87 1.94 7.87 1.79 0 4.95 2.87 7.02 6.38 2.07 3.5 4.1 5.38 4.51 4.16.4-1.22-1.18-5.45-3.51-9.4zm-226-1.1c7.09-7.4 9.47-17.88 8.5-37.52-.66-13.46-1.99-17.82-10.3-33.82-5.25-10.1-11.62-24.87-14.16-32.83-5.03-15.76-7.99-20.83-8.38-14.35-.8 13.16-.66 17.73.54 17.73.74 0 1.99 2.6 2.77 5.78.78 3.17 5.61 11.12 10.72 17.66 10.28 13.14 11.38 15.68 5.1 11.76-2.31-1.44-4.19-3.87-4.19-5.39s-.95-2.18-2.1-1.47c-1.16.71-2.1.25-2.1-1.04 0-1.28-2.36-5.81-5.25-10.05-2.89-4.25-5.25-7.03-5.25-6.18 0 1.83 13.12 27.3 14.84 28.81 2.81 2.47 8.42 20 9.5 29.66 1.23 11.06.11 13.83-10.45 25.96-11.59 13.32-2.16 18.2 10.21 5.29zm2.93-46.01c1.62-1.02 2.2-2.96 1.32-4.39-1.22-1.97-2.04-1.9-3.56.29-1.35 1.95-1.53 1.27-.56-2.14.95-3.36.66-4.52-.89-3.56-1.44.89-1.83.2-1.05-1.84 1.72-4.48 2.31-4.18 6.08 3.1 3.37 6.51 2.71 10.46-1.73 10.4-1.64-.02-1.51-.66.39-1.86zm-8.84-14.2c-.77-.77-1.4-2.37-1.4-3.57 0-1.31.98-1.19 2.49.32 1.36 1.37 1.99 2.97 1.4 3.57-.6.59-1.72.45-2.49-.32zm213.42 61.75c-1.24-2-7.02 2.11-7.02 4.99 0 1.03 1.82.72 4.06-.67 2.23-1.4 3.56-3.34 2.96-4.32zm-115.77 1.19c-1.52-.61-3.33-.54-4.03.16-.69.7.55 1.19 2.76 1.1 2.44-.1 2.94-.59 1.27-1.26zm-109.54-6.04c0-2.95.88-4.83 1.95-4.16 1.08.66 2.55.24 3.28-.93.72-1.17.55-2.21-.38-2.29-.94-.09-3.29-.47-5.23-.85-4.18-.8-6.08 3.08-4.48 9.2 1.61 6.15 4.86 5.5 4.86-.97zm221.43 2.31c0-1.07-3.07-3.75-6.84-5.95l-6.84-3.99 3.69 6.53c3.36 5.92 9.99 8.19 9.99 3.41zm8.48-.9c-.69-2.17-.13-6.43 1.25-9.45 2.67-5.87 1.08-9.78-2.52-6.18-2.57 2.57-12.93 1.06-11.26-1.64.64-1.02.15-1.86-1.07-1.86-4.61 0-1.94 7.02 5.65 14.84 9.07 9.34 9.65 9.66 7.95 4.29zm-146.72-1.27c3.48-3.48 2.16-7.36-2.51-7.36-1.82 0-3.02 2.07-3.02 5.24 0 6.05 1.15 6.49 5.53 2.12zm25.95-.14c0-1.8-.94-2.69-2.1-1.98-1.15.72-2.09 2.19-2.09 3.28 0 1.08.94 1.97 2.09 1.97 1.16 0 2.1-1.47 2.1-3.27zm-3.01-5.62c3.39-3.73 4.2-5.15 1.8-3.14-5.76 4.8-8.77 4.67-4.37-.19 3.09-3.41 3.4-11.13 2.92-71.89l-.53-68.06-6.21-16.77-6.22-16.76-2.2 7.83c-1.41 5.04-1.57 14.03-.44 25.16 1.55 15.23 2.82 21.99 8.62 45.67.71 2.88-.71 1.08-3.16-4.01-5.28-11-10.81-57.25-8.11-67.9 7.38-29.23 10.15-42.07 11.41-52.98.81-6.92 4.16-28.65 7.44-48.27 6.73-40.2 9.93-74.51 6.95-74.51-1.07 0-3.08 1.13-4.47 2.52-1.38 1.38-2.52 1.61-2.52.51 0-1.11-2.77-3.24-6.17-4.74s-7.36-5.41-8.81-8.68c-1.45-3.28-3.63-5.59-4.84-5.15-5.34 1.94-8.04-2.79-6.27-10.99 2.74-12.72 1.1-19.81-6.68-28.9-3.97-4.63-6.83-9.44-6.35-10.68 1.1-2.86-5.3-15.42-8.1-15.9-1.16-.19-4.3-1.19-7-2.22-2.69-1.02-5.69-1.37-6.65-.77-2.45 1.51-5.73 18.07-7.29 36.72-1.22 14.68-1.1 15.39 1.87 10.5 4.04-6.68 4.04-5.66-.02 12.98-5.17 23.7-4.14 73.6 2.19 106.65 1.97 10.28 3.01 14.58 6.53 27.12 2.98 10.63 3.13 13.74.91 19.1-1.46 3.51-2.05 6.99-1.32 7.72.73.74 1.33.23 1.33-1.11 0-1.35 1.01-2.45 2.24-2.45 2.07 0 1.57 3.39-1.83 12.41-.62 1.63-.21 2.41.9 1.72 1.14-.7 2.16 2.41 2.35 7.19.18 4.64 1.43 9.75 2.76 11.36 1.34 1.61 2.73 9.31 3.1 17.13.55 11.44.37 12.46-.89 5.24-3.14-17.92-5.49-13.06-4.13 8.54.75 11.78 1.46 24.48 1.58 28.23.12 3.76.93 6.71 1.79 6.58 4-.63 5.51.48 2.89 2.14-2.42 1.53-2.18 5.34 1.49 23.55 2.4 11.95 5.35 22.05 6.55 22.45 1.25.42 1.6 3.04.83 6.11-1.03 4.11-.7 4.99 1.38 3.7 1.71-1.05 2.22-.85 1.37.52-1.77 2.87.8 21.73 2.79 20.5.83-.52 1.04 1.54.46 4.56-.67 3.52-.26 5.01 1.16 4.13 1.4-.87 1.77.29 1.02 3.16-.86 3.3-.46 4.09 1.47 2.89 1.94-1.2 2.29-.48 1.3 2.64-1.87 5.89.73 15.14 4.26 15.14 1.59 0 4.78 1.61 7.07 3.57 3.09 2.65 3.51 4.01 1.6 5.22-1.72 1.09-1.13 1.65 1.75 1.67 2.38.02 7.11-3.02 10.5-6.76zm-9.58-40.31c0-.51.94-1.51 2.1-2.22 1.15-.72 2.1-.3 2.1.92 0 1.23-.95 2.23-2.1 2.23-1.16 0-2.1-.42-2.1-.93zm-2.1-13.77c0-1.15.95-2.09 2.1-2.09s2.1.94 2.1 2.09c0 1.16-.95 2.1-2.1 2.1s-2.1-.94-2.1-2.1zm-2.1-12.59c0-1.15.95-2.1 2.1-2.1a2.1 2.1 0 11-2.1 2.1zm-.61-14.69c-.6-2.31-.24-4.2.81-4.2 1.04 0 1.9 1.89 1.9 4.2s-.36 4.2-.8 4.2c-.45 0-1.3-1.89-1.91-4.2zm-32.64-41.98c0-2.89.48-4.07 1.06-2.62.58 1.44.58 3.8 0 5.24-.58 1.45-1.06.27-1.06-2.62zm-.16-9.27c-.1-2.21.4-3.45 1.1-2.75.69.69.77 2.5.16 4.02-.67 1.67-1.16 1.18-1.26-1.27zm-2.27-7.52c0-1.15.95-2.1 2.1-2.1s2.1.95 2.1 2.1-.95 2.1-2.1 2.1-2.1-.95-2.1-2.1zm0-6.3c0-1.15.95-2.1 2.1-2.1s2.1.95 2.1 2.1c0 1.16-.95 2.1-2.1 2.1s-2.1-.94-2.1-2.1zm16.28-24.17c1.13-5.89 4.71-9.28 4.71-4.46 0 4.4-2.26 9.74-4.13 9.74-.87 0-1.13-2.37-.58-5.28zm-5.78-4.24c0-.61 1.48-3.39 3.31-6.17 1.82-2.78 2.99-7.23 2.6-9.9-.38-2.66.71-5.94 2.44-7.28 2.74-2.13 2.64-2.98-.85-6.83-2.19-2.42-3.51-4.87-2.93-5.45s2.81.9 4.96 3.28c3.21 3.54 3.47 5.05 1.43 8.32-1.38 2.2-1.95 5.43-1.28 7.18s-.84 6.51-3.36 10.58c-4.26 6.9-6.32 8.95-6.32 6.27zm16.25-35.01c4.46-2.15 8.89-12.62 8.92-21.06.01-2.02.83-3.67 1.83-3.67 2.7 0-.7 15.81-4.72 21.95-1.92 2.93-5.12 5.27-7.12 5.19-2.84-.11-2.6-.63 1.09-2.41zm-7.86-6.13c0-1.32-1.56-3.54-3.47-4.93-2.34-1.72-2.71-3-1.13-3.97 1.34-.84 3.71 1.24 5.61 4.92 1.87 3.61 2.36 6.37 1.14 6.37-1.18 0-2.15-1.08-2.15-2.39zm21.88-54.5c-.04-15.47.57-25.28 1.37-21.82 1.86 8.12 1.94 38.38.11 44.9-.77 2.77-1.44-7.62-1.48-23.08zm-2.66-33.36c0-2.89.48-4.07 1.06-2.63s.58 3.81 0 5.25-1.06.26-1.06-2.62zm-3.05-12.07c-1.53-7.99-.31-8.32 2.37-.64 1.23 3.53 1.45 6.41.49 6.41s-2.25-2.6-2.86-5.77zm-47.65-75.84c0-1.16.94-2.68 2.1-3.4 1.15-.71 2.09-.35 2.09.8 0 1.16-.94 2.69-2.09 3.4-1.16.71-2.1.35-2.1-.8zm-32.81 381.23c1.98-7.37 1.55-14.56-.78-13.12-1.15.71-2.09.41-2.09-.68s-1.89-2.47-4.2-3.08c-2.73-.71-4.2-.06-4.2 1.86 0 1.62 1.35 2.95 3.01 2.95 2.97 0 6.74 7.74 4.74 9.74-.57.57-3.01-1.1-5.44-3.7-3.7-3.97-4.41-4.16-4.41-1.16 0 10.16 10.99 16.07 13.37 7.19zm201.5-10.54c3.22-4.4 6.8-7.28 8.08-6.49 1.43.88 1.67.42.65-1.24-1.2-1.93-.48-2.28 2.65-1.29 3.54 1.13 4.09.62 3.16-2.92-1.29-4.95-2.86-5.33-6.81-1.66-2.32 2.15-2.58 1.91-1.43-1.35 1.15-3.22.86-3.51-1.52-1.54-1.61 1.34-4.26 1.93-5.88 1.3-1.62-.62-4.63.11-6.69 1.61-3.26 2.38-2.59 2.63 5.08 1.9l8.82-.84-5.79 7.59c-5.29 6.93-9.47 10.55-6.35 5.5.72-1.16.4-2.1-.7-2.1s-2.54 1.41-3.21 3.15c-.66 1.73-.19 3.14 1.05 3.14 1.29 0 1.66 1.59.86 3.68-1.62 4.26-.12 2.68 8.03-8.44zm-5.54-7.18c-2.05-.54-4.88-.5-6.3.07-1.42.58.25 1.01 3.71.97 3.47-.04 4.63-.51 2.59-1.04zm-200.49-6.85c-1.96-3.42-4.37-5.41-5.35-4.43-2.39 2.4 2.2 10.63 5.93 10.63 2.44 0 2.33-1.12-.58-6.2zm21.81.47c-.69-.69-1.19.55-1.1 2.76.1 2.44.6 2.94 1.27 1.27.61-1.52.53-3.33-.17-4.03zm174.47-2.66c2.94-2.31 4.37-4.2 3.19-4.2-2.62 0-12.79 8.23-10.29 8.32.97.04 4.17-1.82 7.1-4.12zm-195.43-5.59c-1.77-3.28-3.26-5.29-3.31-4.48-.14 2.49 4.74 12.24 5.67 11.31.48-.48-.58-3.55-2.36-6.83zm212.04 1.39c.54 0-.68-2.84-2.73-6.3-4.41-7.46-9.19-8.44-7.68-1.57 2.03 9.22 2.82 10.4 6.11 9.14 1.81-.7 3.75-1.27 4.3-1.27zm-17-2.24c1.68-2.71 1.27-3.12-4.99-5.05-4.46-1.37-4.69-1.11-2.55 2.89 2.58 4.82 5.4 5.63 7.54 2.16zm-201.25-13.02c-.58-1.42-1.01.25-.97 3.71.04 3.47.51 4.63 1.04 2.59.54-2.04.5-4.88-.07-6.3zm198.02 3.94c0-.46-1.47-1.39-3.26-2.08-1.87-.71-2.71-.36-1.98.83 1.24 1.99 5.24 2.95 5.24 1.25zm21.74-4.42c.67-1.74.3-3.15-.82-3.15s-2.03 1.41-2.03 3.15c0 1.73.37 3.14.82 3.14s1.37-1.41 2.03-3.14zm-11.63-2.18c5.98-1.78 10.87-4.2 10.87-5.38 0-1.17-1.02-1.5-2.28-.73-1.63 1.01-1.78-4.79-.52-20.34.96-11.96 1.71-37.33 1.66-56.38-.08-32.39-.48-35.82-6.14-53-3.33-10.1-6.73-18.36-7.56-18.36s-1.37 6.56-1.2 14.58c.18 8.75-.68 15.58-2.16 17.05-1.35 1.35-1.99 3.67-1.43 5.14.57 1.48-.14 3.41-1.57 4.29-1.81 1.12-2.19.55-1.26-1.89.76-1.98.32-3.49-1.01-3.49-1.44 0-1.11-1.44.82-3.67 2.14-2.47 3.22-8.39 3.32-18.07.08-7.92 1.29-24.85 2.7-37.63 2.38-21.54 1.71-84.44-1.12-104.16-2.46-17.18-9.99-54.07-11.83-57.9-2.89-6.05-10.29-31.14-9.44-31.99 1.09-1.09 7.54 15.83 7.54 19.78 0 1.9.57 2.89 1.26 2.2.7-.69.58-11.28-.25-23.53-1.42-20.75-1.77-22.05-5.08-19.05-1.95 1.76-6.55 3.81-10.23 4.55-3.96.79-9.65 4.63-14.03 9.47-7.61 8.43-9.87 8.47-3.99.07 3.1-4.43 3.07-5.1-.41-8.95-3.38-3.73-3.4-4.02-.21-2.79 1.96.75 3.56 2.1 3.56 3 0 1.93 21.4-6.48 25.82-10.14 2.28-1.89 3.06-7.78 3.1-23.36.03-13.01 1.27-24.61 3.32-30.91 1.79-5.55 3.54-12.85 3.88-16.22.67-6.74.48-6.89-43.47-35.21-19.73-12.72-21.59-13.47-31.11-12.63-8.39.74-10.99.08-15.22-3.89-2.8-2.64-5.09-5.78-5.09-6.99s1.47-.1 3.26 2.46c2.64 3.77 5.3 4.67 13.76 4.67h10.5l-11.97-11.02c-6.58-6.06-13.37-10.71-15.09-10.34-2.13.47-2.72-.4-1.84-2.69 1.43-3.73-5.71-7.43-14.33-7.43-10.95 0-32.57-12.76-32.57-19.22 0-3.98-4.29-1.38-7.29 4.42-4.07 7.87-4.14 28.39-.15 39.72 1.68 4.76 2.46 8.66 1.74 8.66-.73 0 .96 2.45 3.76 5.46 4.54 4.86 6.21 5.32 15.35 4.26 10.93-1.27 16.32-4.85 22.57-14.97 2.14-3.46 3.89-5.33 3.89-4.16.01 1.18-2.31 5.55-5.14 9.72s-4.72 8.01-4.2 8.53c.53.52-.22 1.05-1.67 1.17-1.44.13-6.79 1.27-11.89 2.54-5.1 1.28-10.3 1.93-11.55 1.44-1.58-.61-2.08 9.3-1.64 32.92.49 26.06-.09 35.72-2.51 42.24-5.56 14.96-6.28 23.68-2.46 29.51 1.91 2.92 4.26 4.82 5.22 4.23s2.35 2.45 3.09 6.75c.74 4.31 3.93 13.03 7.09 19.38 8.24 16.59 16.74 20.91 41.24 20.95 23.61.05 22.72 1.88-1.19 2.46-14.7.36-19.56-.37-27.05-4.08-5.03-2.48-9.38-4.27-9.68-3.98-.3.3 2.31 3.59 5.79 7.32 4.65 4.97 7.21 6.28 9.63 4.93 1.83-1.03 6.67-1.07 10.89-.09 4.17.96 9.24 1.24 11.26.62s3.67-.09 3.67 1.19c0 1.67 1.23 1.65 4.43-.06 2.81-1.5 5.15-1.63 6.42-.36 4.21 4.21-10.61 5.04-28.16 1.57-7.77-1.53-7.87-1.47-7.87 5.12 0 5.72.6 6.48 4.19 5.34 2.31-.73 4.2-.39 4.2.77 0 1.15-1.82 2.67-4.05 3.38-5 1.59-7.98 13.06-4.29 16.52 1.94 1.83 2.8 1.77 3.54-.22.53-1.45 1.76-2.14 2.74-1.54.97.6 2.32.2 3-.89 2.22-3.6-2.63-4.49-6.02-1.1-3.02 3.02-3.31 2.94-3.31-.91 0-2.32.94-4.8 2.09-5.52 1.16-.71 2.1-.11 2.1 1.33 0 1.46 1.41.81 3.16-1.45 2.66-3.44 2.95-3.5 1.86-.38-.93 2.68-.43 3.37 1.81 2.51 4.57-1.75 3.53 6.6-1.26 10.1-3.66 2.67-3.45 3.21 3.74 9.53 7.73 6.79 11.68 8.36 11.68 4.67 0-1.12 1.28-1.55 2.85-.94 1.76.67 3.87-1.38 5.54-5.4 2.43-5.88 2.23-6.97-2.16-11.65-6.62-7.04-4.14-8.52 3.4-2.03 3.36 2.89 6.82 5.25 7.69 5.25 2.37.01 1.89-14.24-.53-15.73-3.17-1.97-2.51-5.25 1.05-5.25 3.98 0 4-2.28.07-7.47-3.97-5.25-4.1-8.47-.2-5.24 4.1 3.41 9.36.36 18.78-10.87 4.13-4.93 7.53-7.77 7.55-6.32.02 1.44-4.73 7.58-10.57 13.63-6.86 7.12-10.26 12.3-9.64 14.68.53 2.03.17 4.17-.8 4.77s-1.25 4.25-.62 8.11c1.17 7.24-2.37 16.95-5.48 15.03-2.56-1.59-4.27 6.58-4.31 20.54-.02 9.08 2.61 20.16 10.21 43.03 5.63 16.94 11.25 34.1 12.48 38.14l2.23 7.35-.9-8.4c-.89-8.17-.83-8.11 2.23 2.1 1.72 5.77 2.72 12.24 2.21 14.38-.5 2.13-.35 3.31.34 2.62.69-.68 3.69 4.69 6.68 11.96 7.98 19.42 11.24 23.26 18.4 21.69 5.91-1.29 5.91-1.29 1.24 2.06-3.81 2.74-4.27 4.13-2.45 7.52 1.68 3.15 3.57 3.85 7.82 2.89 5.05-1.14 5.24-.98 1.93 1.62-4.87 3.82-4.64 7.01.7 9.87 2.41 1.29 3.86 2.86 3.22 3.5-2.37 2.37-11.69-5.9-15.27-13.54-3.84-8.22-16.88-27.06-14.9-21.54 4.45 12.43 9.14 22.85 12.43 27.61 4.66 6.74 4.99 9.53.7 5.97-2.69-2.23-3.2-1.57-3.49 4.47-.73 15 .95 28.36 4.47 35.41 2.01 4.04 5.4 13.96 7.54 22.04 2.13 8.08 5.14 17.05 6.68 19.94 2.59 4.86 2.72 4.5 1.7-4.83-.69-6.35-.33-9.6.97-8.8 1.15.72 2.07 11.39 2.07 24.13 0 21.22.33 23.07 4.66 26.11 2.57 1.8 3.72 3.27 2.57 3.27s-4.2-1.47-6.76-3.27c-2.77-1.94-4.67-2.34-4.67-.98 0 1.25 2.13 3.14 4.72 4.18 2.6 1.05 4.79 1.96 4.87 2.03.08.08 5.04-1.32 11.02-3.09zm-12.21-76.36c0-2.22-.58-5.52-1.28-7.35-.7-1.82-.23-3.32 1.05-3.32s2.21.71 2.08 1.58c-.14.86-.06 2.04.17 2.62 1.39 3.43 1.2 10.5-.27 10.5-.97 0-1.75-1.82-1.75-4.03zm-10.5-2.19c0-2.27-1.77-8.65-3.93-14.17-4.55-11.61-7.8-25.46-5.44-23.2 4.22 4.04 14.38 41.49 11.25 41.49-1.03 0-1.88-1.86-1.88-4.12zm6.34-17.8c-1.36-4.13-2.06-8.68-1.54-10.11.51-1.43 2.06 1.5 3.45 6.53 3.08 11.14 1.54 14.03-1.91 3.58zm-7.38-17.95c-2.09-2.32-2.83-4.21-1.64-4.21 2.64 0 7.88 6 6.47 7.41-.56.56-2.73-.88-4.83-3.2zm9.85-40.94c-.05-3.46.39-5.14.96-3.71.58 1.42.61 4.25.08 6.29s-1 .88-1.04-2.58zm-50.08-68.22c0-8.65.37-12.2.82-7.87.46 4.33.46 11.42 0 15.75-.45 4.32-.82.78-.82-7.88zm8.74-6.29c-3.14-8.22-5.27-15.37-4.74-15.9s3.46 5.82 6.52 14.11 5.2 15.45 4.75 15.9-3.39-5.9-6.53-14.11zm-6.47-41.98c2.17-36.97 4.19-56.15 6.14-58.07 1.72-1.7-.11 29.74-2.22 38.12-.58 2.32-1.43 12.64-1.89 22.94s-1.42 19.27-2.14 19.94c-.72.66-.67-9.66.11-22.93zm-41.73-25.81c.58-6.71-.83-8.08-5.64-5.5-3.94 2.11-3.89 1.77.65-4.37 2.7-3.66 5.03-8.46 5.18-10.67.85-13.12 1.22-15.31 2.18-12.93.58 1.45 1.93 2.1 2.98 1.45 2.72-1.68 2.39 1.95-.44 4.78-1.75 1.75-1.75 4.12 0 9.13 3.06 8.76 2.98 10.44-.44 9.13-2.05-.78-2.55.57-1.89 5.07.49 3.37.02 6.67-1.05 7.34-1.06.66-1.76-.89-1.53-3.43zm14.05-22.47c-1.44-2.3-1.89-4.19-1.01-4.19.89 0 2.8 1.89 4.24 4.19 1.44 2.31 1.89 4.2 1.01 4.2-.89 0-2.79-1.89-4.24-4.2zm-4.68-11.42c0-.5.94-1.5 2.1-2.22 1.15-.71 2.1-.3 2.1.93 0 1.22-.95 2.22-2.1 2.22-1.16 0-2.1-.42-2.1-.93zm6.3-1.17c0-1.15.94-2.1 2.1-2.1 1.15 0 2.09.95 2.09 2.1 0 1.16-.94 2.1-2.09 2.1a2.1 2.1 0 01-2.1-2.1zm-31.78-1.87c2.61-1.65 10.79-.84 10.79 1.07 0 .44-3.07.79-6.82.77-4.64-.02-5.91-.61-3.97-1.84zm63.43-1.1c-.1-2.21.4-3.45 1.1-2.76.7.7.77 2.51.16 4.03-.67 1.67-1.16 1.17-1.26-1.27zm-20.11-15.18c3.46-1.81 9.42-6.73 13.23-10.93 3.86-4.27 5.99-5.69 4.8-3.21-3.01 6.27-16.44 17.62-20.73 17.51-2.32-.05-1.37-1.24 2.7-3.37zm-36.17-11.24c-16.1-1.11-17.78-1.68-24.68-8.37-7.87-7.63-11.53-17.11-11.55-29.9-.01-8.97 4.33-26.79 6.53-26.79.81 0 .15 4.96-1.46 11.02-3.84 14.41-3.73 22.7.4 33.04 5.31 13.26 13.33 17.67 34.39 18.91 9.82.58 16.9 1.55 15.75 2.16-1.16.61-9.87.58-19.38-.07zm22.53-.21c0-1.04 2.07-1.88 4.61-1.88 7.25 0 20.37-10.27 22.5-17.62 1.04-3.58 1.98-4.91 2.08-2.95.31 5.83-4.28 13.97-9.98 17.7-6.43 4.21-19.21 7.37-19.21 4.75zm41.9-3.64c1.38-2.69 3.09-4.32 3.79-3.62.71.7-.42 2.91-2.51 4.9-3.63 3.47-3.68 3.41-1.28-1.28zm-59.48-11.97c-.72-1.87-1.21-6.4-1.08-10.06.2-5.79.46-5.45 2.05 2.67 1.88 9.55 1.36 13.47-.97 7.39zm43.87-27.36c-1.81-19.3-.06-23.28 2.07-4.69.83 7.28 1.82 14.9 2.2 16.92.37 2.02-.1 3.67-1.05 3.67s-2.4-7.15-3.22-15.9zm-45.18 8.68c0-.51.94-1.51 2.1-2.22 1.15-.72 2.1-.3 2.1.92s-.95 2.22-2.1 2.22c-1.16 0-2.1-.41-2.1-.92zm52.5-4.5c.02-2.21.99-5.44 2.16-7.17 1.56-2.3 1.76-1.45.73 3.15-1.73 7.72-2.93 9.39-2.89 4.02zm-54.6-7.17c0-1.15 1.42-2.1 3.15-2.1s3.15-.91 3.15-2.03-1.55-1.44-3.44-.72c-2.36.91-3.13.4-2.45-1.64.54-1.62 2.8-2.95 5.01-2.95 2.94 0 4.08 1.55 4.24 5.77.17 4.72-.69 5.77-4.73 5.77-2.71 0-4.93-.94-4.93-2.1zm-8.4-2.1c0-1.15.42-2.1.93-2.1s1.51.95 2.22 2.1c.71 1.16.3 2.1-.92 2.1-1.23 0-2.23-.94-2.23-2.1zm63.49-11.58c0-2.87.83-5.21 1.84-5.21s1.84 1.83 1.84 4.07c0 2.25-.83 4.59-1.84 5.21-1.01.63-1.84-1.21-1.84-4.07zm-86.41-26.78c.22-10.07 1.21-18.31 2.19-18.31.99 0 1.65-1.65 1.49-3.67-.74-8.8.53-17.32 2.58-17.32 1.22 0 1.73.8 1.12 1.78-1.15 1.87-2.67 14.79-4.59 39.13-1.65 20.9-3.26 19.97-2.79-1.61zm75.43 11.72c.02-2.08.95-5.21 2.06-6.94 1.6-2.46 2.05-1.92 2.07 2.5.02 3.11-.91 6.23-2.07 6.94-1.15.72-2.08-.41-2.06-2.5zm-39.91.53c0-.51.94-1.51 2.1-2.22 1.15-.72 2.09-.3 2.09.92s-.94 2.23-2.09 2.23c-1.16 0-2.1-.42-2.1-.93zm1.4-6.77c-2.2-2.2-1.64-11.19.7-11.19 1.15 0 2.09 2.83 2.09 6.29 0 6.52-.42 7.27-2.79 4.9zm-43.29-4.72c-1.28-2.41-1.46-4.38-.39-4.38 2.16 0 5.14 6.36 3.67 7.83-.51.51-1.99-1.04-3.28-3.45zm95.01-2.13c-.69-2.62-2.29-3.66-4.53-2.95-2.98.95-3.03.78-.32-1.16 4.32-3.11 6.3-2.89 6.3.69 0 4.5 3.19 5.65 9.27 3.34 2.98-1.13 5.42-1.25 5.42-.26 0 1.81-7.02 4.31-12.27 4.36-1.55.02-3.29-1.79-3.87-4.02zm-10.98-1.02c-.09-2.21.41-3.45 1.1-2.76.7.7.77 2.51.17 4.03-.67 1.67-1.17 1.17-1.27-1.27zm-41.98-8.4c-.09-2.21.41-3.45 1.1-2.75.7.7.78 2.51.17 4.02-.67 1.68-1.17 1.18-1.27-1.27zm45.44-.39c-.84-.84-1.53-2.98-1.53-4.75 0-2.36.62-2.6 2.34-.88 1.28 1.28 1.97 3.42 1.53 4.75-.44 1.32-1.49 1.72-2.34.88zm-46.43-10.45c-.7-1.82-1.27-10.73-1.27-19.79 0-17.88 2.66-23.31 11.17-22.78 4.53.28 4.52.3-.16 1.2-5.64 1.08-10.29 8.47-7.25 11.52 1.35 1.34 2.55 1.26 3.47-.23.78-1.25 2.54-2.26 3.91-2.23 1.38.02.14 1.86-2.75 4.08-4.77 3.67-5.2 5.29-4.73 17.8.53 13.9-.07 16.48-2.39 10.43zm-43.08-3.85c-.1-2.21.4-3.45 1.1-2.75.69.69.77 2.5.16 4.02-.67 1.67-1.16 1.18-1.26-1.27zm99.88 1.57c-.77-.77-1.4-2.37-1.4-3.56 0-1.32.98-1.19 2.48.31 1.37 1.37 2 2.97 1.4 3.57s-1.71.45-2.48-.32zm-17.83-11.06c-1.37-3.91-2.03-7.56-1.48-8.11 1.4-1.4 5.62 10.22 4.7 12.96-.41 1.24-1.86-.94-3.22-4.85zm-74.87-10.62c1.79-3.47 3.72-6.3 4.3-6.3s-.41 2.83-2.21 6.3c-1.79 3.46-3.72 6.29-4.3 6.29s.41-2.83 2.21-6.29zm15.74 1.29c0-.44 1.89-1.3 4.2-1.9 2.3-.61 4.19-.24 4.19.8 0 1.05-1.89 1.9-4.19 1.9-2.31 0-4.2-.36-4.2-.8zm49.85-2.68c1.44-.59 3.8-.59 5.24 0 1.45.58.27 1.05-2.62 1.05s-4.07-.47-2.62-1.05zm-13.25-4.03c-3.72-3.04-3.74-3.22-.22-2.1 2.11.67 5.18 1.22 6.82 1.22 1.63 0 2.97.94 2.97 2.1 0 3.16-4.97 2.52-9.57-1.22zm-28.21-9.28c-2.71-1.75-2.65-2.04.4-2.06 1.96-.02 4.14.91 4.85 2.06 1.64 2.66-1.14 2.66-5.25 0zm33.59 0l-5.25-1.68 5.77-.21c3.17-.11 5.77.74 5.77 1.89 0 1.16-.23 2.01-.52 1.89-.29-.11-2.89-.96-5.77-1.89zm-134.75 352.6c.54-9.73 1.73-12.67 7.63-18.87 6.38-6.72 11.68-14.74 11.68-17.7 0-.66-1.42-1.19-3.15-1.19-1.78 0-3.15-1.88-3.15-4.32 0-2.38.94-3.74 2.1-3.03 2.79 1.73 2.65-1.73-.34-8.29-1.34-2.94-3.72-5.35-5.3-5.35-2.89 0-6.96 8.12-6.96 13.9 0 5.53 4.19.76 4.49-5.1.23-4.62.44-4.83 1.17-1.14.48 2.48-.56 7.94-2.31 12.14-1.76 4.2-2.29 7.08-1.17 6.39 2.68-1.66 2.57 2.44-.2 7.63-1.55 2.9-3.63 3.82-6.83 3.03-2.52-.62-3.35-.57-1.84.12 2.19.99 2.09 1.98-.51 4.85-4.32 4.77-6.98 23.25-3.35 23.25 1.51 0 2.07 1.39 1.34 3.3-.9 2.34-.2 3.09 2.4 2.6 2.86-.54 3.81-3.23 4.3-12.22zm277.47-41.09c13.81-4.77 33.58-13.83 33.58-15.38 0-.74-1.82-2.91-4.05-4.82-3.26-2.79-3.87-5.45-3.13-13.58.51-5.57 1.34-28.06 1.84-50 .49-21.93 1.41-44.6 2.03-50.37 1.93-18.06 3.08-55.71 1.34-44.08l-1.57 10.5-.17-10.5c-.1-5.77.53-15.45 1.39-21.51s.8-11.02-.15-11.02-1.72 2.6-1.7 5.77c.01 3.18-1.9 15.22-4.25 26.76-2.35 11.55-7.42 36.58-11.26 55.62-3.85 19.05-10.67 45.03-15.17 57.72l-8.17 23.09-11.55 5.91c-9.09 4.65-13.33 5.65-19.94 4.72-6.79-.95-7.64-.73-4.47 1.16 2.44 1.46 7.61 1.79 13.64.88 5.35-.81 12.56-1.71 16.02-1.99 5.14-.42 7.31-2.38 11.85-10.66 3.06-5.57 6.16-13.85 6.88-18.4 1.67-10.41 7.11-23.64 8.96-21.79 3.1 3.09 2.23 18.96-1.64 30.22-5.73 16.65-1.32 11.06 5.39-6.84 3.92-10.46 5.88-20.59 6.77-35.16.69-11.25 1.82-20.46 2.51-20.46 2.81-.01-1.53 41.65-5.61 53.77-10.05 29.85-26.05 49.7-42.17 52.31-13.59 2.21-14.18 2.89-1.96 2.28 6.58-.33 11.49.19 10.9 1.14-1.78 2.88-24.58 1.82-30.22-1.41-8.22-4.7-10.23-3.58-2.48 1.38 12.91 8.27 31.02 10.11 46.56 4.74zm-2.1-4.38c0-1.13 2.13-4.06 4.72-6.5 5.84-5.5 10.84-15.1 15.01-28.82l3.2-10.49-1.19 9.44c-.65 5.2-3.89 14.23-7.2 20.08-6 10.62-14.54 20.19-14.54 16.29zm19.33-97.24c-.08-8.65.67-17.63 1.66-19.94 2.33-5.41 2.37 7.61.09 24.14l-1.6 11.55-.15-15.75zm5.86-16.66c0-1.09.94-2.56 2.1-3.28 1.15-.71 2.1.18 2.1 1.98s-.95 3.27-2.1 3.27c-1.16 0-2.1-.89-2.1-1.97zm3.53-22.17c.65-9.23 1.53-17.18 1.97-17.66 1.51-1.66.55 17.69-1.3 26.06-1.36 6.17-1.54 3.94-.67-8.4zm-5.3 1.05c0-2.88.48-4.06 1.06-2.62s.58 3.8 0 5.25c-.58 1.44-1.06.26-1.06-2.63zm-32.36 122.13c3.18-2.28 7.68-6.31 9.99-8.96 3.88-4.46 3.41-4.37-6.15 1.14-5.69 3.27-14.19 6.21-18.89 6.53l-8.54.59 9.23-4.09c10.18-4.51 10.45-8.24.29-4.03-6.08 2.52-16 1.36-28.14-3.3-4.83-1.85-4.4 3.9.64 8.45 2.23 2.02 3.52 5.06 2.87 6.76-1.91 4.97 31.07 2.34 38.7-3.09zm-42.81.57c-.68-1.78-1.69-2.79-2.24-2.24s-.38 2.01.38 3.24c2.07 3.35 3.28 2.7 1.86-1zm91.63-9.48c0-2.38-.94-3.74-2.1-3.02-1.15.71-2.1 2.65-2.1 4.32 0 1.66.95 3.02 2.1 3.02 1.16 0 2.1-1.94 2.1-4.32zm-34.81-7.15c1.06-.04 2.31-1.49 2.79-3.22.76-2.8.61-2.8-1.37 0-3.39 4.8-2.73-.13 1.86-13.84 4.22-12.62 5.97-27.61 2.18-18.69-.98 2.31-3.35 9.39-5.27 15.74s-5.28 14.64-7.48 18.42l-4 6.87 4.69-2.6c2.57-1.43 5.55-2.64 6.6-2.68zm30.61-11.04c0-17.33-1.12-16.47-2.78 2.13-.8 8.95-.52 13.78.76 12.99 1.11-.69 2.02-7.49 2.02-15.12zm-314.83 9.92a2.1 2.1 0 10-2.1 2.1c1.15 0 2.1-.95 2.1-2.1zm229.83 0c-.72-1.16-2.24-2.1-3.4-2.1-1.15 0-1.51.94-.8 2.1.71 1.15 2.24 2.1 3.4 2.1 1.15 0 1.51-.95.8-2.1zm22.04-2.2c0-1.22-1.46-5.02-3.24-8.46s-2.67-7.17-1.97-8.29c.69-1.12.32-2.04-.81-2.04-2.16 0-12.93-21.84-12.8-25.97.04-1.3 2.46.47 5.38 3.93l5.31 6.3-3.13-7.35c-1.71-4.04-6.82-15.85-11.34-26.23-4.52-10.39-10.5-26.92-13.28-36.74-3.85-13.58-5.19-16.34-5.62-11.54-.76 8.29 10.63 73.61 16.1 92.35 2.36 8.08 4.31 16.03 4.35 17.67.11 5.78-2.65.15-5.3-10.78l-2.68-11.09-.18 12.01c-.16 11.01.29 12.25 5.59 15.13 6.63 3.59 23.62 4.38 23.62 1.1zm-16.8-13.85c0-1.9-2.82-12.28-6.28-23.06-7.37-23.03-10.89-37.7-8.41-35.13.96 1 5 12.69 8.97 25.96 9.65 32.24 10.4 35.69 7.86 35.69-1.17 0-2.14-1.56-2.14-3.46zm42.11-16.03c4.2-12.37 7.34-22.49 6.96-22.49s.16-2.23 1.19-4.95c1.04-2.71 3.95-17.12 6.48-32 5.14-30.25 4.83-28.14 9.45-62.75 1.85-13.85 4.71-32.27 6.37-40.93 6.52-34.12 1.67-21.55-17.4 45.13-5.28 18.47-10.65 34.27-11.92 35.12s-6.73 1.56-12.13 1.58c-8.35.02-10.45-.84-13.94-5.74-10.92-15.37-34.43-78.37-37.06-99.38-.84-6.69-.62-8.08.82-5.04 2.37 4.99 2.94.55.9-7.04-1.21-4.55-1.54-4.3-4.07 3.05-3.02 8.8-3.5 6.53 11.1 52.26 7.5 23.48 22.48 54.14 29.38 60.13 5.27 4.59 16.04 6.26 23.51 3.65 4.64-1.62 6.61-3.9 7.59-8.84 2.06-10.33 9.74-33.72 11.81-35.96 1.02-1.11.23 3.14-1.75 9.44s-3.41 14.77-3.17 18.81c1.34 23.06-8.96 74.21-18.82 93.4-3.55 6.92-7.09 15.9-7.85 19.94-1.21 6.38-1.56 6.72-2.68 2.63-.8-2.93.58-8.48 3.65-14.69 8.16-16.52 12.84-28.44 14.36-36.62l1.43-7.74-6.32 3.15c-3.48 1.74-6.88 4.04-7.54 5.12-.67 1.09-2.16 1.97-3.32 1.97-1.15 0-1.59-.82-.97-1.83 1.08-1.74-9.24-26.86-20.37-49.59-2.82-5.77-5.82-12.69-6.66-15.38-.83-2.68-1.91-4.49-2.38-4.02-1.79 1.79 11.69 38.09 14.79 39.83 1.78 1 3.25 2.81 3.25 4.03s2.36 6.91 5.24 12.66c5.87 11.68 6.67 15.31 2.04 9.18-1.7-2.24-3.09-2.91-3.09-1.48s2.5 4.92 5.56 7.75c3.05 2.83 4.45 5.15 3.1 5.15-1.6 0-1.23 1.87 1.05 5.35 2.42 3.7 2.84 6.03 1.34 7.53s-2.61 1.47-3.59-.11c-.77-1.25-.85-2.28-.17-2.28s-1.49-4.96-4.82-11.02c-6.48-11.78-18.96-43.51-24.57-62.44-1.88-6.35-6.18-18.82-9.55-27.7-6.38-16.82-7.56-21.73-3.93-16.38 3.31 4.9-.05-7.9-4.69-17.84-2.15-4.62-3.4-6.61-2.76-4.42.63 2.18.57 5.79-.13 8.01-1.24 3.9-1.4 3.9-4.18.23-2.68-3.53-2.9-3.38-2.96 2.09-.04 3.26 2.25 8.96 5.09 12.69 2.84 3.72 7.63 12.15 10.65 18.74 6.85 14.97 32.79 90.03 31.54 91.28-1.15 1.14-6.28-10.98-8.24-19.47-1.97-8.5-16.55-47.41-17.43-46.52-.39.39 2.95 11.96 7.42 25.71 8.89 27.35 11.38 36.55 9.89 36.55-.83 0-5.21-13.42-20.41-62.45-1.16-3.75-2.62-6.82-3.25-6.82-1.28 0-1.63-1.36 8.55 32.99 4.18 14.1 7.6 27 7.6 28.66 0 1.67 2.84 9.34 6.3 17.06 7.09 15.81 7.3 16.61 3.76 14.42-2.37-1.46.8 4.64 10.03 19.35l3.84 6.11-5.93-5.25-5.94-5.24 3.54 6.94 3.53 6.95 6.61-3.87c5.67-3.3 7.72-7.08 14.27-26.36zm-26.19 7.64c-2-5.21.21-5.92 2.88-.93 1.29 2.41 1.47 4.38.39 4.38-1.07 0-2.54-1.55-3.27-3.45zm-.84-14.39c-1.32-2.89-1.7-5.24-.86-5.23s2.62 2.37 3.95 5.25c1.34 2.87 1.72 5.23.86 5.23s-2.64-2.37-3.95-5.25zm8.01 2.1c0-1.73.37-3.15.83-3.15.45 0 1.37 1.42 2.03 3.15.67 1.73.29 3.15-.82 3.15-1.12 0-2.04-1.42-2.04-3.15zm-3.23-7.49c-.76-1.23-.94-2.69-.39-3.24.56-.55 1.56.46 2.25 2.24 1.42 3.7.21 4.35-1.86 1zm-9.36-6.16c0-1.15.42-2.09.92-2.09.51 0 1.51.94 2.23 2.09.71 1.16.29 2.1-.93 2.1s-2.22-.94-2.22-2.1zm25.66-9.59c1.99-2.09 4.2-3.22 4.9-2.52.71.7-.92 2.41-3.62 3.79-4.69 2.41-4.74 2.35-1.28-1.27zm-57.82-102.48c-1.95-5.07-1.79-5.94.76-4.36 1.41.87 1.77-.76 1.01-4.6-1.12-5.63-1.05-5.7 1.28-1.23 1.69 3.23 1.82 6.18.42 9.31-1.85 4.14-2.19 4.23-3.47.88zm122.1 144.89c-.31-6.35-.35-6.37-1.19-.81-1.55 10.23-6.47 6.52-11.82-8.92l-3.27-9.44-.1 13.34c-.1 13.32-.09 13.35 5.32 11.99 3.22-.81 4.93-.55 4.2.62-.69 1.12.61 1.51 2.97.89 3.17-.83 4.13-2.71 3.89-7.67zm-351.7-1.37c-.61-2.32-1.94-4.74-2.96-5.37-2.09-1.29-2.56 8.19-.5 10.25 2.44 2.44 4.58-.58 3.46-4.88zm363.45-33.02c-.46-15.87-.87-30.75-.92-33.06-.07-3.15-.53-3.49-1.89-1.35-.99 1.56-1.54 14.79-1.23 29.38l.57 26.54-2.62-23.08-2.61-23.09-.32 18.36c-.25 14.49-.96 18.37-3.36 18.37-2.17 0-3.26-3.16-3.81-11.02l-.77-11.02-.39 12.71c-.36 12.04-.08 12.85 5.39 15.18l5.77 2.45-5.53-.98c-3.3-.59-6.54.23-8.03 2.03-2.02 2.42-1.76 3.02 1.33 3.05 10.65.13 15.56.89 16.59 2.55.62 1.01 1.48 1.84 1.9 1.84s.39-12.99-.07-28.86zm-373.79 17.32c-.66-1.73-1.58-3.15-2.03-3.15-.46 0-.83 1.42-.83 3.15s.92 3.15 2.04 3.15c1.11 0 1.49-1.42.82-3.15zm353.81-8.92c-.28-14.99-4.45-18.1-10.03-7.49-3.18 6.03-3.16 6.11 2.18 11.08 6.51 6.06 8.02 5.37 7.85-3.59zm-7.2-.53c-.71-1.15-.35-2.1.8-2.1 1.16 0 2.68.95 3.4 2.1.71 1.16.35 2.1-.8 2.1-1.16 0-2.69-.94-3.4-2.1zm-407.64-10.66c4.314-3.56 7.215-7.48 6.455-8.72-.82-1.32-.41-1.65.98-.79 2.94 1.82 11.41-2.44 9.86-4.94-.62-1 1.53-.82 4.78.41 4.89 1.85 8.4 1.24 20.48-3.56 16.02-6.37 20.34-9.09 18.68-11.77-.6-.97 1.53-3.13 4.75-4.8 5.21-2.71 15.28-13.95 15.28-17.07 0-.67-2.8 1.66-6.22 5.16-3.43 3.5-6.92 6.37-7.76 6.37-.85 0 1.63-3.27 5.51-7.27 3.87-3.99 7.64-6.89 8.38-6.43 1.93 1.19 5.06-1.29 9.13-7.23 4.11-6 4.64-9.37 1.13-7.21-1.51.94-1.85.58-.9-.96.83-1.35 2.37-1.93 3.41-1.28 2.35 1.45 21.3-23.92 27.49-36.79 2.5-5.19 5.76-13.22 7.24-17.84 1.53-4.79 2.77-6.59 2.89-4.2.21 4.15.25 4.15 3.29.13 1.69-2.24 3.08-6.62 3.08-9.73s2.44-12.93 5.43-21.81c7.03-20.94 5.21-22.88-2.26-2.4-3.15 8.63-7.28 16.29-9.17 17.01-2.76 1.05-2.92.79-.82-1.33 3.54-3.56 3.32-6.14-.4-4.71-1.66.64-4.73.07-6.82-1.26-3.35-2.14-3.2-2.29 1.34-1.31 6.61 1.42 9.64-1.24 15.03-13.17 12.96-28.68 15.18-43.48 8.29-55.22-4.42-7.52-5.67-12.75-7.69-32.22-1.08-10.39-.49-14.62 3.3-23.41 2.53-5.9 4.3-12.78 3.91-15.29l-.69-4.56-7.35 4.9c-9.82 6.55-16.2 19.85-17.76 37.01-.7 7.72-1.65 16.87-2.11 20.33l-.82 6.3 2.94-6.66c5.33-12.07 6.85-9.28 1.78 3.27-8.56 21.19-12.09 38.04-11.81 56.44.16 10.93-.5 16.89-1.81 16.09-1.13-.71-1.49-3.09-.79-5.3 2.2-6.94-2.23-4.37-4.84 2.8-1.36 3.75-5.92 12.01-10.13 18.36-8.57 12.9-21.43 39.15-27.78 56.67-11.15 30.75-14.96 35.68-27.6 35.68-3.61 0-6.01.9-5.34 1.98 1.45 2.35-17.35 11.12-20.14 9.4-1.06-.66-1.79-.41-1.63.54.82 4.67-.61 7.28-4.92 9.01l-4.718 1.9 4.858.13c2.68.07 6.91-.96 9.4-2.3 2.5-1.33 7.12-2.73 10.28-3.1 4.55-.53 5.46.04 4.42 2.73-1.11 2.9-.15 3.18 6.53 1.93 4.31-.81 9.42-1.97 11.36-2.57 2.73-.85 2.58-.31-.67 2.39-3.16 2.62-7.06 3.26-15.74 2.57-11.92-.95-21.39 1.65-20.52 5.65.27 1.25-4.92 7.37-11.533 13.6-11.249 10.59-14.265 14.91-10.407 14.91.892 0 5.151-2.91 9.465-6.46zm23.545-22.92c-.71-1.16.65-2.1 3.03-2.1 2.37 0 4.32.94 4.32 2.1 0 1.15-1.36 2.1-3.03 2.1-1.66 0-3.61-.95-4.32-2.1zm42.27-32.53c.66-1.74 2.02-3.15 3.02-3.15.99 0 1.26 1.41.6 3.15-.67 1.73-2.03 3.14-3.02 3.14s-1.26-1.41-.6-3.14zm15.45-1.98c0-.51.95-1.51 2.1-2.22 1.15-.72 2.1-.3 2.1.92 0 1.23-.95 2.23-2.1 2.23s-2.1-.42-2.1-.93zm-10.44-4.4c.03-1.11 2.84-5.33 6.24-9.37s6.17-6.4 6.16-5.24c-.02 1.15-2.83 5.37-6.24 9.36-3.42 4-6.19 6.36-6.16 5.25zm27.23-36.65a2.1 2.1 0 112.1 2.1c-1.15 0-2.1-.95-2.1-2.1zm13.97-24.14c.88-3.46 1.61-9.63 1.61-13.71l-.01-7.41 5.69 6.36c5.89 6.6 6.42 10 .83 5.36-2.67-2.22-3.21-2.01-3.27 1.27-.04 2.17-1.51 6.29-3.27 9.18l-3.19 5.25 1.61-6.3zm310.64 120.12c-.58-1.42-1.01.25-.97 3.72.05 3.46.52 4.62 1.05 2.58s.49-4.88-.08-6.3zm-428.69-4.69c3.12-2.89 5.052-6.26 4.294-7.48-.758-1.23-.103-2.02 1.456-1.76 4.451.74 10.182-2.45 10.182-5.67 0-5.99-8.009-2.59-17.494 7.42-5.386 5.69-9.793 10.89-9.793 11.55 0 2.95 6.178.74 11.355-4.06zm140.24.5c-1.21-6.89 5.9-68.15 9.07-78.15 1.83-5.77 3.57-19.47 3.86-30.43.29-10.97 1.64-21.99 2.99-24.49 1.52-2.82 1.95-8.31 1.11-14.4-1.62-11.84-3.09-9.83-8.66 11.93-2.4 9.37-7.49 21.43-12.25 29.03-15.86 25.32-23.73 36.83-29.02 42.44-6.12 6.49-6.73 8.36-2.18 6.61 4.64-1.78 8.39 2.23 12.57 13.45 2.04 5.47 5.87 14.77 8.51 20.68 2.65 5.91 5.88 14.7 7.19 19.55 1.4 5.21 3.39 8.45 4.88 7.93 1.38-.48 2.24-2.35 1.93-4.15zm277.04-1.54c4.59 0 5.24-2.72 5.65-23.66.19-10.13.89-19.81 1.54-21.51.66-1.71.15-3.1-1.13-3.1-1.36 0-2.37 4.14-2.43 9.97-.16 13.91-2.21 34.94-3.53 36.2-.61.58-.43-13.45.38-31.18 1.06-22.88.83-31.83-.77-30.84-1.42.87-2.27 10.59-2.27 25.77 0 25.37-1.53 30.04-3.54 10.76-.64-6.18-1.46-11.57-1.83-11.98-.36-.4-.95 9.69-1.32 22.42-.59 21-.35 22.88 2.66 20.16 1.82-1.66 4.79-3.01 6.59-3.01zm-54.31-5.77c1.13-1.85-20.81-46.7-22.85-46.7-1.14 0 .91 5.09 7.83 19.36 3.25 6.71 7.08 15.95 8.51 20.55 2.52 8.07 4.47 10.1 6.51 6.79zm-365.93-2.75c0-1.22-.944-1.64-2.098-.92-1.155.71-2.099 1.71-2.099 2.22s.944.92 2.099.92c1.154 0 2.098-1 2.098-2.22zm-1.236-5.12c3.784-2.89 7.769-5.25 8.856-5.25 1.086 0 1.975-1.89 1.975-4.2 0-6.18-2.457-5.23-13.39 5.2-10.546 10.07-8.821 12.93 2.559 4.25zm372.93 1.4c-1.13-2.11-3.67-5.18-5.64-6.82-3.38-2.81-3.39-2.58-.06 3.84 1.94 3.76 4.48 6.83 5.64 6.83 1.41 0 1.43-1.3.06-3.85zm61.42-3.88c3.76-4.48 3.75-4.55-.54-3.43-2.66.7-4.4 2.85-4.4 5.45 0 2.37.25 3.91.55 3.43s2.28-2.93 4.39-5.45zm-107.97-6.03c-1.19-4.56-5.95-19.94-10.58-34.19s-7.97-26.37-7.42-26.92c.56-.56 1.64.95 2.4 3.35.76 2.39 2.32 4.35 3.46 4.35s1.55.86.9 1.91c-.64 1.04-.29 4.11.8 6.82 1.08 2.7 2.03 3.68 2.1 2.17s1.1-2.16 2.27-1.43c2.99 1.85-3.97-15.31-9.67-23.85l-4.69-7.03.08 10.18c.08 9.22 19.71 75.73 21.75 73.68.43-.42-.2-4.49-1.4-9.04zm53.93 6.24c-.7-1.83-1.28-6.31-1.3-9.97-.03-5.07-.52-5.9-2.07-3.5-2.51 3.89-2.55 1.34-.13-9.11 1.86-7.99 1.83-8.04-3.72-6.55-3.08.82-6.79 1.53-8.25 1.58-1.63.05-.81 2.14 2.09 5.35l4.76 5.26-8.39-5.05-8.4-5.05 8.39 11.51c11.24 15.41 14.24 18.85 16.44 18.85 1.02 0 1.29-1.5.58-3.32zm-295.9-4.82c7.19-8.3 11.03-12.04 19.41-18.92 8.67-7.13 11.22-12.82 5.74-12.82-1.61 0-3.52 1.55-4.25 3.44-1.1 2.88-.8 3.01 1.87.8 1.92-1.59 3.2-1.78 3.2-.47 0 1.2-3.07 4.09-6.82 6.43-8.71 5.42-28.47 25.48-25.11 25.48 1.4 0 4.08-1.77 5.96-3.94zm348.61-16.52c-.48-3.18-.88-.58-.88 5.77s.4 8.94.88 5.77.48-8.37 0-11.54zm4.07 5.2c-.58-1.42-1.01.25-.97 3.72.04 3.46.51 4.62 1.05 2.58.53-2.04.49-4.88-.08-6.3zm-50.31-25.55c-1.54-4.6-7.33 19.18-6.11 25.07 1.12 5.39 1.71 4.19 4.05-8.37 1.5-8.07 2.43-15.58 2.06-16.7zm55.99-46.29c.73-36.94 1.74-70 2.23-73.47.5-3.46 1.47-18.74 2.17-33.95l1.27-27.66 9.63-16.98c5.29-9.34 12.58-19.32 16.19-22.17 4.87-3.84 5.63-5.19 2.91-5.21-2.02-.01-7.41 3.36-11.98 7.49-9.57 8.64-16.24 23.89-20.14 46.01l-2.59 14.69-.4-13.64-.4-13.64-2.91 12.59c-2.47 10.7-7.54 106.58-8.13 153.55-.08 7.11-.85 11.83-1.7 10.5-.89-1.4-1.55-.12-1.57 3.01-.04 5.78 6.55 13.49 9.26 10.83.88-.87 1.36-.16 1.06 1.57-.54 3.12 2.28 15.46 3.25 14.26.28-.34 1.11-30.84 1.85-67.78zm-11.26 45.12c0-1.15.42-2.1.93-2.1s1.51.95 2.22 2.1c.71 1.16.3 2.1-.92 2.1-1.23 0-2.23-.94-2.23-2.1zm6.47-105.82c-.1-2.21.4-3.45 1.1-2.75s.77 2.51.16 4.02c-.67 1.68-1.16 1.18-1.26-1.27zm0-29.38c-.1-2.21.4-3.45 1.1-2.76.7.7.77 2.51.16 4.03-.67 1.67-1.16 1.17-1.26-1.27zm0-14.69c-.1-2.22.4-3.46 1.1-2.76s.77 2.51.16 4.02c-.67 1.68-1.16 1.18-1.26-1.26zm-21.76 141.98c-.48-3.15-.86-.06-.85 6.86.01 6.93.41 9.51.87 5.74.47-3.78.46-9.44-.02-12.6zm29.15 12.68c-.69-.7-1.19.54-1.1 2.75.1 2.45.6 2.95 1.27 1.27.61-1.51.53-3.32-.17-4.02zm-70.03-3.52c2.05-3.05 2.02-7.54-.05-7.54-.91 0-4.93 2.8-8.92 6.24l-7.27 6.24 7.35-1.33c4.04-.72 8.04-2.35 8.89-3.61zm-2.04-9.28c5.56-3.36 7.61-7.96 12.09-27.11l1.6-6.8-5.87 4.18c-8.76 6.23-10.26 5.05-2.55-2 3.72-3.4 6.78-7.41 6.8-8.92.02-2 .62-1.9 2.24.41 1.73 2.47 1.92 2.14.89-1.52-1.62-5.78 5.17-28.16 8.01-26.4 1.14.7 1.42.23.63-1.05-1.92-3.1.74-13.29 3.09-11.84 1.02.63 1.29-.32.6-2.11s-1.64-3.26-2.12-3.26-5.05 8.74-10.16 19.42c-9.48 19.84-20 36.15-20 31 0-1.57 1.29-4.35 2.87-6.18 1.58-1.82 5.19-7.56 8.01-12.75 9.1-16.73 10.19-23.17 1.56-9.21-4.07 6.58-14.52 13.4-20.53 13.4-1.06 0-5.91-4.01-10.78-8.92l-8.85-8.92 5.72 9.45c3.15 5.19 7.62 11.52 9.93 14.06l4.21 4.62 3.86-4.62c4.48-5.36 5.29-2.31.92 3.46-2.28 3.01-2.41 5.04-.62 8.98 1.7 3.72 2.79 4.37 4.03 2.42 1.16-1.83 1.71-1.15 1.73 2.12.02 2.65 2.02 7.49 4.44 10.77 3.61 4.88 3.98 6.77 2.03 10.41-4.29 8.01-14.54 4.78-17.84-5.62-2.03-6.38.55-5.85 3.01.62 1.41 3.7 3.57 5.25 7.34 5.25 5.31 0 5.32-.05 1.77-5.77-1.98-3.18-5.26-7.68-7.3-10s-5.14-7.52-6.9-11.54c-1.75-4.03-5.17-9.68-7.59-12.57-3.79-4.53-4.09-4.62-2.16-.67 1.24 2.52 3.19 7.25 4.36 10.5 1.97 5.51 1.9 5.64-1.05 1.84-4.65-6-3.97-3.19 4.3 17.74 7.2 18.2 7.71 23.13 2.38 23-3.54-.09-16.58-23.84-23.49-42.78-3.21-8.81-6.19-15.68-6.61-15.26-2.31 2.32 15.18 45.74 24.06 59.72l3.03 4.76 6.55-4.4c3.61-2.42 9.17-5.98 12.36-7.91zm140.07 7.19c0-.54-.92-3.41-2.05-6.37-1.56-4.1-3.52-5.38-8.24-5.38-4.19 0-7.6-1.79-10.55-5.53l-4.35-5.53v6.11c0 3.36 1.58 8.45 3.51 11.3l3.5 5.19-5.78-5.24c-3.18-2.89-10.12-11.86-15.42-19.94-11.81-18.01-10.74-16.7-12.26-15.18-.7.7 1.34 6.6 4.53 13.12 7.81 15.97 22.42 27 36.87 27.83 5.63.33 10.24.15 10.24-.38zm-159.13-16.32c-4.49-10.03-14.17-36.41-22.11-60.23-3.09-9.27-5.5-13.9-6.01-11.54-.47 2.16-2.61-3.63-4.77-12.86-3.52-15.09-7.38-24.74-7.38-18.46 0 3.25 13.84 50.52 19.07 65.15 5.43 15.17 23.73 51.61 24.6 48.98.36-1.08-1.17-6.05-3.4-11.04zm70.37 2.47c-.6-2.31-.25-4.72.78-5.35 2.35-1.46-3.99-11.45-7.24-11.41-1.4.02-1.19.79.51 1.87 1.59 1 2.21 2.93 1.38 4.29-.84 1.35-.37 5.23 1.03 8.63 2.91 7.01 5.19 8.29 3.54 1.97zm-3.43-7.17c-.09-2.21.41-3.45 1.11-2.76.69.7.77 2.51.16 4.03-.67 1.67-1.16 1.17-1.27-1.27zm93.92-10.15l-.37-21.51-1.28 19.94c-.7 10.97-.95 20.65-.55 21.51 2.01 4.4 2.54-.33 2.2-19.94zm-345.92 3.75c-5.2-12.8-8.43-14.91-8.43-5.49 0 3.37-.45 7.38-1.01 8.92-.89 2.43 11.04 10.21 13.36 8.71.44-.29-1.33-5.75-3.92-12.14zm314.88 4.07c-.99-4.59-2.53-16.37-3.43-26.18s-1.81-18.55-2.02-19.42c-.22-.86-.51-22.35-.66-47.75-.14-25.39-1.05-46.17-2.01-46.17-.97 0-2.96 17.24-4.43 38.3-1.47 21.07-3.34 47.75-4.16 59.3-.81 11.54-1.08 22.17-.59 23.61 1.65 4.9 3.91 2.65 3.14-3.15-.41-3.17.11-11.44 1.16-18.36l1.92-12.6.26 17.44c.16 11.3 1.01 16.97 2.4 16.11 1.41-.87 1.68 1.58.8 7.12-1.12 6.97-.49 9.5 3.62 14.57 2.74 3.37 5.16 5.99 5.38 5.82.23-.17-.4-4.06-1.38-8.64zm13.49-17.5c-.74-.73-3.5 1.35-6.12 4.64l-4.77 5.97 4.96 5.35c2.73 2.95 5.14 6.4 5.36 7.67.21 1.28.74-3.22 1.16-9.99.42-6.76.15-12.9-.59-13.64zm11.62 16.81c0-3.29-.62-11.99-1.39-19.32-1.79-17.09-4.55-11.22-4.76 10.1-.11 12.19.48 15.21 3 15.21 2.07 0 3.15-2.06 3.15-5.99zm-184.7-5.55c-1.22-3.21-2.7-5.35-3.29-4.76-.58.59.07 3.55 1.45 6.59 3.27 7.19 4.72 5.74 1.84-1.83zm105.71-51.42l1.18-28.34-5.04 24.14c-5.48 26.17-8.84 56.49-5.47 49.32 1.94-4.14 1.97-4.13 2.12.18.08 2.4.86 5.08 1.72 5.96 2.07 2.08 4.04-16.29 5.49-51.26zm71 26.23c2.35-4.62 6.17-10.47 8.5-13.01l4.23-4.62-8.58-8.5c-4.72-4.68-9.1-8.5-9.72-8.5s-1.13 4.35-1.13 9.67c0 7.29-.7 9.4-2.86 8.57-2.24-.86-2.94 2.49-3.26 15.59l-.4 16.69 4.48-3.75c2.46-2.06 6.4-7.52 8.74-12.14zm-82.26-3.24c0-4.66 1.48-15.63 3.28-24.37 1.81-8.74 2.76-17.25 2.12-18.91-.63-1.66-.3-2.49.75-1.84 2.7 1.67 5-22.5 5.21-54.8.24-36.47-2.56-34.7-6.31 3.99-.95 9.89-.66 14.17.99 14.17 1.3 0 2.34 1.65 2.32 3.67-.02 2.86-.43 3.04-1.83.82-2.93-4.61-3.85-.68-6.36 26.99-3.31 36.45-4.05 58.77-1.95 58.77.98 0 1.78-3.82 1.78-8.49zm4.2-53.43c0-2.88.81-5.25 1.81-5.25.99 0 1.35 2.37.8 5.25-.55 2.89-1.37 5.25-1.81 5.25s-.8-2.36-.8-5.25zm0-9.44a2.1 2.1 0 114.2 0c0 1.15-.95 2.09-2.1 2.09-1.16 0-2.1-.94-2.1-2.09zm2.26-7.18c-.09-2.21.41-3.45 1.1-2.75.7.7.78 2.51.17 4.02-.67 1.68-1.17 1.18-1.27-1.27zm57.88 61.18c-.57-1.42-1.01.25-.96 3.72.04 3.46.51 4.62 1.04 2.58s.5-4.88-.08-6.3zm-174.97 2.66c.6-2.31.24-3.67-.81-3.02-1.04.65-1.9.02-1.9-1.4 0-1.41-.56-2.01-1.24-1.33-1.17 1.17.76 9.95 2.19 9.95.36 0 1.15-1.89 1.76-4.2zm16.36-4.41c-1.11-2.77-2.07-3.93-2.15-2.58-.17 3.28 2.27 9.49 3.32 8.44.46-.46-.07-3.1-1.17-5.86zm44.74 4.5c2.92-1.12 7.47-5.35 10.1-9.42 2.64-4.07 5.78-7.41 6.97-7.43 2.3-.03 15.03-24.33 17.89-34.13 2.69-9.24.63-6.77-6.58 7.87-3.69 7.5-7.53 13.64-8.52 13.64-1 0-1.81 1.05-1.81 2.33 0 1.29-3.87 6.95-8.59 12.6-10.81 12.9-16.59 13.45-27.74 2.62-10.88-10.57-11.77-7.72-1.3 4.17 9.03 10.26 10.96 11.02 19.58 7.75zm114.31-47.83c-.25-36.91-.49-39.5-2.12-23.62-1.02 9.82-1.4 23.98-.86 31.49.54 7.5 1.02 18.13 1.07 23.61s.57 9.97 1.15 9.97c.57 0 .92-18.65.76-41.45zm-112.74 33.58c6.15-6.69 14.38-18.38 14.38-20.42 0-.77-2.49.56-5.53 2.95-5.71 4.49-16.38 5.86-18.53 2.38-.72-1.17 1.7-1.5 5.9-.82 4.19.68 7.72.19 8.57-1.18.9-1.45-.4-2.33-3.44-2.33-2.68 0-8.49-1.93-12.9-4.3-4.42-2.37-7.34-3.18-6.49-1.81.84 1.37 1.64 4.48 1.76 6.92.14 2.85 3.03 5.93 8.09 8.64 7.88 4.21 9.86 7.97 5.59 10.61-3.14 1.94-17.3-4.74-20.34-9.6-2.06-3.3-1.18-3.1 5.11 1.18 4.19 2.83 9.13 5.13 10.99 5.09 2.64-.05 2.46-.57-.82-2.38-12.2-6.75-26.11-27.74-27.42-41.4-.78-8.09-4.22-19.12-5.97-19.12-.52 0 .01 3.07 1.19 6.82 1.17 3.75 2.15 8.24 2.18 9.97.02 1.73 2.3 11.14 5.06 20.9 3.94 13.92 6.7 19.47 12.79 25.71 9.25 9.48 12.78 9.87 19.83 2.19zm-50.58-3.78c-1.01-3.4-1.93-4.62-2.03-2.69-.2 3.91 2.04 10.72 3.16 9.6.4-.39-.11-3.5-1.13-6.91zm-11.8-3.94c-.77-3.08-1.81-5.19-2.31-4.7-.49.5-.26 3.42.51 6.5.77 3.07 1.81 5.18 2.3 4.69.5-.49.27-3.42-.5-6.49zm205.21-45.74c-.35-27.95-1.06-51.25-1.58-51.77-2.1-2.1-2.67 1.98-3.93 28.09-1.97 40.8-3.51 55.63-5.76 55.63-1.11 0-1.54-1.66-.95-3.68 1.65-5.59 4.13-77.31 2.63-75.92-1.17 1.09-2.77 16.78-6.83 67-1.27 15.66-1.24 15.78 5.79 23.5 3.88 4.26 8.01 7.81 9.16 7.87 1.36.08 1.88-17.75 1.47-50.72zm-196.45 36.71c-.7-.7-1.19.54-1.1 2.76.1 2.44.6 2.94 1.27 1.26.6-1.51.53-3.32-.17-4.02zm19.33-7.06c-2.38-7.03-6.48-23.33-9.12-36.21-2.64-12.87-4.89-21.35-4.99-18.83-.43 10.32 13.73 67.83 16.69 67.83.96 0-.21-5.76-2.58-12.79zm-10.81 1.77c-.58-1.44-1.06-.26-1.06 2.62 0 2.89.48 4.07 1.06 2.63.58-1.45.58-3.81 0-5.25zm165.9-6.3c-.5-2.59-.91-.47-.91 4.73 0 5.19.41 7.32.91 4.72s.5-6.85 0-9.45zm-143.13.57c-7.29-11.55-6.59-14.71 1.55-7 7.4 7 16.01 12.11 17.65 10.47.57-.57-1.03-1.68-3.56-2.49-2.52-.8-8.26-4.77-12.75-8.83-4.49-4.05-8.16-6.61-8.16-5.68s-1.43-.14-3.18-2.38c-2.93-3.74-2.97-3.56-.6 2.23 3.12 7.6 11.82 22.03 13.28 22.03.57 0-1.33-3.76-4.23-8.35zm55.6 6.13c0-1.22-.95-1.64-2.1-.92-1.16.71-2.1 1.71-2.1 2.22s.94.92 2.1.92c1.15 0 2.1-1 2.1-2.22zm-21.67-2.4c3.84-1.38 6.98-3.89 6.98-5.57 0-2.48-.75-2.37-3.98.54-2.18 1.98-6.67 4.41-9.97 5.4s-4.64 1.88-3 1.97c1.65.1 6.14-.95 9.97-2.34zm-61-18.54c-1.63-7.46-3.06-11.51-3.18-9-.25 5.58 4.59 27.21 5.49 24.5.36-1.07-.68-8.04-2.31-15.5zm41.74 8.14c-7.21-3.96-13.72-11.96-16.77-20.58-3.53-10.01-7.37-36.37-7.37-50.6 0-6.22-.93-10.35-2.34-10.35-4.16 0 2.5 52.82 8.07 64.02 4.26 8.56 15.35 19.95 19.35 19.88 2.41-.05 2.16-.67-.94-2.37zm156.33-40.2c.03-24.39-.69-36.92-2.06-36.08-1.28.79-2.09 16.6-2.07 40.53.02 26.1.71 38.18 2.07 36.08 1.12-1.73 2.05-19.97 2.06-40.53zm-141.57 36.89c-10.39-1.54-17.57-8.48-25.18-24.33-4.13-8.61-6.71-12.36-6.01-8.76 2.01 10.37 11.42 25.97 18.34 30.41 3.57 2.28 9.32 4.03 12.78 3.87l6.3-.28-6.23-.91zm21.95-7.02c7.14-4.84 10.85-9.5 15.24-19.18 3.2-7.04 5.38-13.22 4.86-13.74s-3.7 5.14-7.07 12.57c-6.14 13.55-15.93 22.62-24.4 22.62-1.95 0-2.97.94-2.25 2.09 1.91 3.1 3.26 2.66 13.62-4.36zm93.76-4.56c-.58-1.44-1.06-.26-1.06 2.63 0 2.88.48 4.06 1.06 2.62s.58-3.8 0-5.25zm-95.31-.49c3.17-2.79 5.77-6.06 5.77-7.26 0-3.33 13.28-32.55 15.16-33.35.91-.39 1.14-1.54.51-2.57-.64-1.02.3-4.65 2.07-8.08 1.77-3.42 2.59-7.86 1.83-9.85-.94-2.45-.61-3.14 1.04-2.12 1.63 1.01 1.98.33 1.05-2.1-.94-2.44-.6-3.12 1.07-2.09 1.35.84 2.45 1.05 2.45.47 0-.57-.9-1.61-2.01-2.29-1.1-.68-3.54 1.73-5.42 5.36-1.87 3.62-2.38 5.96-1.13 5.19 3.22-2 2.87-.41-2.3 10.23-2.51 5.16-5.33 8.92-6.27 8.34s-1.19.3-.55 1.96c.63 1.65-2.74 9.49-7.51 17.42-13.47 22.42-13.63 22.56-25.76 24.03l-10.96 1.34 12.59.23c10.53.19 13.54-.61 18.37-4.86zm-84.49-2.13c0-3.08-1.08-5.03-2.62-4.72-1.44.29-2.36-.73-2.05-2.26.32-1.53-.37-2.19-1.53-1.47-2.84 1.75-11.02-2.79-9.49-5.27.67-1.09-.26-1.41-2.06-.71-2.13.81-5.81-1.49-10.44-6.55-3.93-4.3-8.1-7.22-9.26-6.51-2.59 1.6-31.9-20.34-43.35-32.46-4.62-4.88-7.1-8.14-5.5-7.23 1.81 1.03 2.59.75 2.1-.74-1.01-3.03-1.33-3.07-10.66-1.32l-7.76 1.45 7.44 8.04c4.77 5.16 8.68 7.64 10.91 6.94 2.62-.84 2.79-.62.7.88-2.1 1.5-.33 3.98 7.35 10.3 15 12.35 23.75 18.06 23.75 15.52 0-1.25 3.23-.15 7.17 2.44 3.95 2.58 6.77 5.36 6.27 6.17s.19 2.15 1.54 2.99c1.63 1 1.9.6.8-1.18-1.11-1.8-.7-2.37 1.25-1.72 1.6.53 2.91 1.99 2.91 3.24s.71 2.99 1.58 3.85c.86.87 1.57.5 1.57-.81s3.54.04 7.87 3c4.33 2.97 7.65 6.21 7.37 7.21-.27 1 1.06 1.22 2.97.49 2.31-.89 2.97-.52 1.96 1.1-.95 1.55-.4 2.01 1.55 1.26 1.67-.64 3.67-.16 4.43 1.08 2.21 3.58 3.23 2.63 3.23-3.01zm-35.68-24.14c0-1.15.42-2.1.93-2.1s1.51.95 2.22 2.1c.72 1.16.3 2.1-.92 2.1-1.23 0-2.23-.94-2.23-2.1zm-42.24-22.56c-2.61-3.33-2.54-3.4.79-.79 3.5 2.74 4.61 4.46 2.88 4.46-.44 0-2.09-1.65-3.67-3.67zm-16.53-14.17c-1.48-1.78-2.22-3.72-1.64-4.3.57-.57 2.26.42 3.74 2.2 1.49 1.79 2.23 3.73 1.65 4.3-.58.58-2.26-.41-3.75-2.2zm271.64 43.36c.99-14.99.76-21.28-.77-20.34-1.31.81-2.21 10-2.21 22.58 0 11.67.35 20.82.77 20.34s1.42-10.64 2.21-22.58zm-102.85 16.37c1.05-1.02-1.58-.9-5.85.28s-9.85 1.56-12.41.84c-3.72-1.04-4.02-.85-1.5.98 3.35 2.43 16.53 1.03 19.76-2.1zm-5.92-2.09c4.02-1.52 5.07-2.83 3.51-4.39-1.55-1.55-3.53-1.51-6.63.15-2.85 1.53-4.43 1.61-4.43.24 0-2.51 9.4-5.24 12.17-3.53 1.05.65 2.99-1.19 4.32-4.1 3.32-7.28 3.02-8.37-1.27-4.61-5.7 5-16.61 10.02-21.93 10.1l-4.83.07 4.95 4.12c5.73 4.77 6.46 4.88 14.14 1.95zm22.05-28.78c13.71-29.15 24.84-48.8 27.64-48.8.98 0 1.2.95.48 2.1-.71 1.16-.35 2.1.8 2.1 3.35 0 4.74-3.73 1.84-4.91-1.8-.73-.96-2.55 2.61-5.69l5.25-4.61-5.25 3.1c-5.94 3.51-14.95 14.45-38.02 46.16-14.57 20.02-16.79 22.17-25.13 24.29-7.69 1.95-9.76 1.78-12.87-1.04-4.86-4.39-7.6-14.72-6.93-26.11.29-5.03.13-6.08-.36-2.33-1.06 8.02-5.83 9.18-6.46 1.58-.24-2.89.55-5.25 1.76-5.25s1.61-.96.88-2.14c-2.99-4.84-5.66 1-4.46 9.77 1.55 11.31 8.36 25.07 13.87 28.02 8.82 4.72 31.27-4.28 38.32-15.36 1.03-1.63 1.57-1.28 1.59 1.05.02 1.92-.68 3.81-1.54 4.19-1.73.77-8.96 20.64-7.51 20.64.49 0 6.56-12.04 13.49-26.76zm-88.56 9.12c1.03-7.65.84-11.74-.56-11.74-1.18 0-.68-1.18 1.1-2.62 2.86-2.31 10.15-24.15 10.15-30.41 0-3.04-13.91-7.6-18.16-5.97-2.31.89-3.02 3.16-2.38 7.54.51 3.45.14 6.27-.81 6.27-.96 0-1.77-2.12-1.81-4.72-.06-4.64-.14-4.62-4.72.88-2.56 3.09-7.02 8.92-9.9 12.96-2.89 4.03-7.91 8.92-11.17 10.86-3.25 1.94-5.61 3.81-5.24 4.18 2.31 2.26 40.67 25.67 41.22 25.15.38-.35 1.4-5.93 2.28-12.38zm-14.5.85c0-1.15 1.47-2.1 3.27-2.1s2.69.95 1.98 2.1c-.71 1.16-2.19 2.1-3.27 2.1-1.09 0-1.98-.94-1.98-2.1zm-2.61-6.82c-1.34-3.63.39-7.87 3.21-7.87 1.72 0 1.71.63-.01 2.35-1.3 1.3-1.86 3.66-1.25 5.25s.64 2.89.06 2.89-1.48-1.18-2.01-2.62zm-9.67-5.77c-1.33-3.82-1.41-6.3-.2-6.3 1.09 0 1.99 1.7 1.99 3.78s1.13 4.91 2.52 6.3c1.71 1.71 1.77 2.52.2 2.52-1.27 0-3.3-2.84-4.51-6.3zm24.87-8.4c0-2.31.37-4.19.81-4.19s1.3 1.88 1.9 4.19c.61 2.31.24 4.2-.8 4.2-1.05 0-1.91-1.89-1.91-4.2zm-8.06-10.49c0-2.89.48-4.07 1.06-2.62.58 1.44.58 3.8 0 5.24-.58 1.45-1.06.27-1.06-2.62zm5.97-3.15c0-1.73.37-3.15.82-3.15s1.37 1.42 2.03 3.15c.67 1.73.3 3.15-.82 3.15s-2.03-1.42-2.03-3.15zm184.04 28.84c-.52-2.01-.93.13-.91 4.74.02 4.62.45 6.26.95 3.65.51-2.61.49-6.39-.04-8.39zm-223.92 9.01c0-.53-2.13-2-4.73-3.26-4.53-2.2-4.56-2.16-.64.98 4.28 3.43 5.37 3.89 5.37 2.28zm61.04-5.54c-1.1-2.76-2.07-3.92-2.14-2.57-.18 3.27 2.27 9.49 3.32 8.44.46-.46-.07-3.1-1.18-5.87zm38.57-5.55c.79-5.48 1.92-12.02 2.52-14.54.84-3.52-.37-5.33-5.29-7.87-8.47-4.38-10.79-4.16-10.79 1.02 0 2.38.95 3.74 2.1 3.03 1.15-.72 2.1-.3 2.1.92s-.95 2.22-2.1 2.22c-3.32 0-2.44 15.37 1.17 20.53 5.25 7.49 8.7 5.71 10.29-5.31zm16.86-3.15l7.44-11.02-5.81-2.52c-10.64-4.64-12.19-3.37-14.38 11.79-.59 4.14-1.48 8.71-1.96 10.15-.51 1.5.86 2.62 3.19 2.62 2.57 0 6.82-4.06 11.52-11.02zm53.75-34.83c1.37-4.22 5.35-11.92 8.85-17.11 4.23-6.29 4.94-8.21 2.12-5.75-9.68 8.47-21.92 43.75-21.5 62.02.12 5.21 1.46 1.32 4.1-11.88 2.16-10.79 5.05-23.07 6.43-27.28zm43.03 38.03c-.69-.7-1.19.54-1.1 2.75.1 2.45.6 2.94 1.27 1.27.61-1.52.53-3.33-.17-4.02zm-209.06.72c0-.45-2.59-2.39-5.77-4.32l-5.77-3.52 4.96 4.32c4.83 4.22 6.58 5.16 6.58 3.52zm53.75-7.02c-.7-.7-1.2.54-1.11 2.75.1 2.45.6 2.95 1.27 1.27.61-1.51.53-3.32-.16-4.02zm138.3-1.76c11.11-1.96 25.69-9.43 43.07-22.07 7.8-5.68 15.26-10.32 16.56-10.32 1.51 0 1.89-2.09 1.03-5.77-1.18-5.12-1.01-5.38 1.54-2.25 1.58 1.93 5.7 3.82 9.17 4.19l6.29.68-.69-10.75c-.64-9.8-.17-11.13 5.24-14.93 3.27-2.29 9.73-5.36 14.34-6.82 9.82-3.09 12.53-5.14 10.69-8.12-1.88-3.03-13.92 1.16-18.56 6.46-2.02 2.3-3.67 3.56-3.67 2.79s-2.33 1.25-5.18 4.49-5.21 4.68-5.25 3.2c-.04-1.8-2-1.25-5.95 1.67-3.5 2.58-7.33 3.8-9.45 2.99-5.45-2.1-4.22-4.66 1.69-3.53 2.9.55 5.25.02 5.25-1.2 0-1.21 1.89-2.8 4.2-3.54 6.03-1.91 6.09-15.74.06-15.74-2.88 0-3.75-.99-2.87-3.27.69-1.79 2.58-2.76 4.21-2.13 1.62.62 3.48-.23 4.11-1.89.79-2.04 3.02-2.65 6.86-1.88 5.86 1.17 12.97-4.08 9.68-7.15-.9-.83-2.04-.39-2.54 1-.64 1.79-2.42 1.94-6.16.52-9.02-3.43-28.01 10.17-32.8 23.5-.68 1.9-4.85 6.07-9.26 9.28s-11.62 9.55-16.02 14.09-8.54 7.71-9.22 7.04c-.67-.67 1.04-3.1 3.8-5.4 5.91-4.93 5.94-4.92-7.57-1.42-10.2 2.65-10.78 3.22-20.46 20.38-11.16 19.78-13.12 30.4-5.25 28.51 2.59-.62 8.5-1.8 13.11-2.61zm-14.16-2.11c-3.19-3.23-1.32-4.05 9.45-4.13 6.87-.05 14.36-1.75 19.94-4.53 4.91-2.45 8.39-3.58 7.73-2.52-3.91 6.33-33.21 15.16-37.12 11.18zm40.4-15.05c0-1.29 3.07-4.45 6.82-7.02 5.01-3.43 5.71-3.61 2.63-.67-2.31 2.2-5.38 5.36-6.83 7.03-1.54 1.78-2.62 2.05-2.62.66zm26.6-17.88c.9-1.43 1.38-4.49 1.06-6.8-.46-3.46-.19-3.65 1.6-1.05 3.09 4.5 2.72 7.76-1.03 9.2-2.24.86-2.75.43-1.63-1.35zm4.88-11.92c0-1.22.95-2.22 2.1-2.22 1.16 0 2.1.41 2.1.92s-.94 1.51-2.1 2.22c-1.15.72-2.1.3-2.1-.92zm-268.66 41.49c-4.04-3.59-11.41-10.28-16.38-14.86-4.98-4.58-9.52-7.84-10.11-7.26-.58.59 6.32 7.29 15.34 14.9 16.62 14.03 24.64 19.21 11.15 7.22zm16.38 1.61c7.55-3.93 13.68-10.89 19.11-21.7 2.45-4.9 5.5-8.68 6.76-8.39 1.27.28 5.27-3.64 8.91-8.72 3.84-5.36 12.18-12.61 19.91-17.31 7.32-4.45 13.69-8.09 14.15-8.09 2.37 0 .34 3.46-3.09 5.27-15.71 8.3-21.26 11.89-21.26 13.76 0 3.13 13.33 8.36 14.89 5.84.71-1.15 10.26 2.49 22.04 8.42 11.44 5.75 25.04 11.56 30.24 12.92 5.19 1.36 10.54 3.37 11.88 4.47 2.46 2.01 9.11-5.08 9.11-9.73 0-1.21 2.36-5.67 5.24-9.92 2.89-4.25 5.25-8.13 5.25-8.63 0-1.17-16.86-8.2-31.48-13.12-6.84-2.3-15-7.18-20.03-11.97-4.66-4.45-11.28-9.86-14.71-12.03-6.13-3.88-6.39-3.88-15.66.35-5.18 2.37-17.45 7.08-27.26 10.46-18.09 6.23-64.72 28.47-72.41 34.53-4.07 3.21-3.65 3.83 13.41 19.92 9.69 9.14 18 16.62 18.47 16.62s3.41-1.33 6.53-2.95zm-2.72-15.95c2.09-2.32 4.26-3.76 4.82-3.2 1.41 1.41-3.82 7.41-6.46 7.41-1.2 0-.46-1.9 1.64-4.21zm39.87-48.26c-4.05-1.74-4.04-1.81.4-1.95 2.53-.09 5.18.79 5.89 1.95 1.54 2.48-.52 2.48-6.29 0zm40.92-.18c-6.99-1.3-6.87-1.38 2.63-1.65 5.48-.15 9.97.51 9.97 1.48 0 2.03-2.46 2.06-12.6.17zm146.93 63.02c0-1.22-.95-1.64-2.1-.93-1.16.72-2.1 1.72-2.1 2.23s.94.92 2.1.92c1.15 0 2.1-1 2.1-2.22zm-100.75-8.3c-1.73-1.14-6.93-3.1-11.54-4.36-4.62-1.26-16.21-5.98-25.76-10.49-9.54-4.52-18.75-8.21-20.46-8.21s-3.11-1-3.11-2.22c0-1.23-.93-1.65-2.07-.94-1.14.7-6.32-.6-11.51-2.89-5.18-2.3-9.91-3.39-10.5-2.44-1.8 2.92 8.81 8.49 20.31 10.67 6 1.14 11.42 2.77 12.06 3.64 2.45 3.32 45.44 19.04 52.58 19.22 2.8.07 2.8-.15 0-1.98zm63.61-35.25c6.36-6.59 6.44-6.85 1.46-5.02-6.29 2.3-18.34 21.62-19.94 31.96-.92 5.95.05 4.79 5.33-6.35 3.55-7.51 9.47-16.77 13.15-20.59zm-116.91 25.35c-.7-.7-1.2.54-1.1 2.76.1 2.44.59 2.94 1.26 1.26.61-1.51.53-3.32-.16-4.02zm93.12-10.01c0-1.16-.92-.68-2.04 1.05s-2.03 4.09-2.03 5.25c0 1.15.91.68 2.03-1.05 1.12-1.74 2.04-4.1 2.04-5.25zm129.17.95c1.49-4.7-2.06-10.4-6.48-10.4-1.53 0-3.72-1.65-4.86-3.67-3.23-5.73-6.76-.63-4.75 6.87 1.49 5.55 2.48 6.19 8.87 5.7l7.19-.54-6.29 3-6.3 2.99 5.63.18c3.92.11 6.04-1.14 6.99-4.13zm-351.18-7.53c10.07-6.98 10.39-8.9.52-3.07-9.3 5.48-14.79 5.54-23.46.25-3.73-2.28-8.1-3.64-9.7-3.02-1.6.61-3.53-.49-4.28-2.45-1.2-3.11-.9-3.21 2.35-.75 3.17 2.41 3.34 2.39 1.1-.12-5.16-5.78-2.51-6.57 3.91-1.17 4.46 3.75 7.96 5.1 11.02 4.24 3.25-.9 3.68-.7 1.58.76-2.31 1.6-1.97 2.3 1.68 3.46 2.65.84 5.89.36 7.71-1.15 1.72-1.43 7.65-4.69 13.17-7.25 5.51-2.56 14.7-8.79 20.41-13.84 17.97-15.9 39.35-30.4 48.83-33.11 5.03-1.44 10.61-3.18 12.41-3.87 2.28-.88 2.78-.45 1.63 1.41-1.32 2.14-.7 2.15 3.21.06 2.67-1.43 7.27-3.41 10.22-4.4 4.05-1.37 3.04-1.57-4.08-.84-7.94.83-22.02 4.93-43.02 12.54-4.2 1.52-4.2 1.52 0-2.04 10.6-8.99-16.57 6.46-40.46 23-18.57 12.87-19.96 13.46-30.43 12.87-6.03-.34-7.37-.21-2.97.28 10.9 1.23 9.13 6.09-1.87 5.16-4.53-.39-9.31-1.59-10.63-2.68s-3.38-1.71-4.58-1.38c-1.19.33-3.75-1.29-5.69-3.6-3.31-3.95-3.32-3.87-.14 1.5 4.31 7.3 4.28 9.22-.11 5.58-3.22-2.67-3.23-2.41-.18 3.49 3.78 7.3 9.16 10.47 22.55 13.25 5.19 1.08 9.86 2.07 10.38 2.19.51.13 4.53-2.26 8.92-5.3zm-10.12-9.81c2.16-1.38 6.88-4.43 10.49-6.78s9.63-5.53 13.38-7.07c3.76-1.54 6.83-4.07 6.83-5.62 0-3.39 7.21-7.65 9.34-5.52.82.82 1.18.21.8-1.37s1.07-3.16 3.23-3.53c2.16-.36 6.64-3.25 9.95-6.42s6.52-5.26 7.14-4.64c1.86 1.86-22.34 20.69-24.72 19.22-1.23-.77-1.58-.36-.78.93 1.58 2.56-31.11 23.62-36.36 23.42-2.56-.1-2.42-.64.7-2.62zm17.8 12.35c4.87-2.52 12.8-13.8 9.7-13.8-.55 0-4.78 3.78-9.4 8.39-9.11 9.11-9.16 9.99-.3 5.41zm-42.73-1.21c-.71-1.15-2.42-2.08-3.79-2.07-1.5.02-1.25.85.65 2.07 4.03 2.61 4.75 2.61 3.14 0zm70.62-16.4c14.36-11.22 22.6-14.67 15.24-6.38-3.96 4.46-3.96 4.48.41 2.19 5.07-2.65 22.18-21.74 20.76-23.16-.52-.52-4.83 1.63-9.58 4.77-4.74 3.14-9.03 5.31-9.52 4.82-1.32-1.32 15-12.24 19.23-12.86 3.76-.56 10.03-7.55 8.3-9.28-1.39-1.4-39.65 22-44.21 27.04-3.74 4.13-3.7 4.14 4.47.91 7.51-2.98 7.87-2.97 4.04.04-2.31 1.82-6.56 3.86-9.44 4.54-7.08 1.67-14 8.25-16.65 15.87-1.71 4.9-1.62 5.85.41 4.33 1.43-1.07 8.87-6.84 16.54-12.83zm176.01 6.44c0-.58-1.42.13-3.15 1.57-1.73 1.43-3.15 3.08-3.15 3.66s1.42-.13 3.15-1.57c1.73-1.43 3.15-3.08 3.15-3.66zm145.7 2.39c4.59-1.76 4.17-5.02-.66-5.02-2.18 0-4.51 1.41-5.18 3.15-1.29 3.36.48 3.93 5.84 1.87zm-8.23-2.92c.72-1.16.36-2.1-.8-2.1-1.15 0-2.68.94-3.39 2.1-.72 1.15-.36 2.1.8 2.1 1.15 0 2.68-.95 3.39-2.1zm-128.17-6.1c-.56-.55-2.64.7-4.63 2.78-3.46 3.62-3.42 3.66 1 1.01 2.55-1.53 4.18-3.23 3.63-3.79zm13.78-1.51c0-.43-1.41-.79-3.15-.79-1.73 0-3.14 1.53-3.14 3.41 0 2.79.57 2.93 3.14.79 1.74-1.44 3.15-2.97 3.15-3.41zm104.95 2.36c0-1.73-1.42-3.15-3.15-3.15-3.28 0-4.16 2.48-1.75 4.9 2.42 2.41 4.9 1.53 4.9-1.75zm17.31-2.47c2.24-1.31 1.96-6.49-.43-7.97-1.1-.68-5.34.16-9.42 1.86-5.39 2.25-7.06 4.02-6.12 6.47.98 2.56 2.87 3.04 7.84 1.97 3.61-.77 7.27-1.82 8.13-2.33zm-98.62-2.16c-2.58-.49-7.3-.51-10.49-.03-3.19.49-1.08.89 4.69.91 5.78.02 8.39-.38 5.8-.88zm13.42-.9c-2.78-1.61-4.54-1.6-6.2.06-1.68 1.69-.64 2.3 3.88 2.26 5.43-.06 5.71-.34 2.32-2.32zm-294.93-1.82c1.13 0 1.47-.94.76-2.1-.72-1.15-3.84-2.11-6.95-2.13-3.77-.02-4.74-.6-2.92-1.76 2.2-1.39 2.15-2.2-.27-4.21-2.44-2.02-3.19-1.49-4.02 2.86-1.09 5.72 3.46 10.15 8.56 8.34 1.53-.55 3.72-1 4.84-1zm20.52-.75c-2.47-2.13-12.64-3.41-11.42-1.43.74 1.2 3.81 2.18 6.82 2.18s5.08-.34 4.6-.75zm-35.5-11.13c0-.41-1.89.43-4.2 1.88-2.31 1.44-4.2 3.48-4.2 4.54 0 1.05 1.89.21 4.2-1.88s4.2-4.14 4.2-4.54zm36.73 5.59c1.64-2.66-1.14-2.66-5.25 0-2.71 1.75-2.66 2.04.4 2.06 1.95.02 4.13-.91 4.85-2.06zm91.13-6.71c9.72-3.29 22.6-8.81 28.63-12.25 6.96-3.99 12.38-5.77 14.86-4.89 3.09 1.09 3.39.82 1.43-1.3-1.63-1.76-7.71-2.57-17.81-2.36-13.43.27-16.25 1.05-22.71 6.24-4.06 3.26-10.21 7.4-13.68 9.2-7.87 4.09-19.17 15.83-12.59 13.09 2.31-.97 12.15-4.44 21.87-7.73zm2.27-7.73c0-1.01 1.57-3.14 3.49-4.72 3.17-2.61 3.26-2.44.98 1.84-2.61 4.88-4.47 6.09-4.47 2.88zm10.66-4.98c.09-2.6.65-3.5 1.25-2.01.88 2.2 1.74 2.21 4.56.04 2.41-1.86 2.24-1.24-.53 2.01-4.98 5.83-5.49 5.83-5.28-.04zm-129.68 14.37c-2.07-2.77-4.16-4.66-4.63-4.21-.86.84 6.04 9.26 7.58 9.26.45 0-.87-2.27-2.95-5.05zm23 1.41c2.03-.58 5.1.11 6.83 1.55 2.34 1.94 3.13 1.97 3.13.12 0-1.36.74-2.02 1.64-1.47.89.56 3.96-.78 6.82-2.98 3.06-2.35 3.99-4 2.27-4.03-1.61-.03-4.17 1.6-5.71 3.63-1.53 2.02-2.81 2.6-2.85 1.3-.11-3.86 5.73-7.52 9.9-6.2 2.71.87 6.34-1.31 12.16-7.29l8.31-8.52-23.69 11.67c-13.03 6.41-24.54 11.66-25.59 11.66-1.04 0-2.58 1.1-3.42 2.45-1.07 1.73-.33 1.97 2.5.82 2.21-.91 5.68-2.13 7.7-2.71zm344.27-8.33c-6.65-3.45-8.98-1.94-8.98 5.81v6.2l7.1-4.65 7.09-4.65-5.21-2.71zm-342.35 1.15c16.93-8.04 29.1-20.61 28.97-29.9-.06-4.36-.09-4.36-2.49-.21-2.41 4.17-7.94 10.43-7.94 8.99 0-.42 1.89-4.46 4.2-8.99 4.25-8.34 5.5-15.8 2.62-15.68-.87.04-3.41 1.46-5.65 3.15-2.47 1.87-8.26 2.99-14.69 2.84l-10.62-.25 10.18-1.71c5.59-.94 10.79-2.38 11.54-3.21s-.69-1-3.21-.38c-2.51.62-7.71.38-11.54-.52-6.92-1.64-6.9-1.65 2.18-1.87 7.32-.17 8.89-.86 7.9-3.45-.94-2.45-.44-2.78 2.07-1.38 7.82 4.38 14.72-.38 13.61-9.39-.17-1.36.66-3.07 1.85-3.8 1.18-.73 2.15-4.7 2.15-8.82v-7.49l-8.17 1.31c-5.62.89-8.48.49-9.14-1.31-1.23-3.36.33-7.86 2.73-7.86 1.02 0 1.37 1.26.78 2.8-.75 1.96.87 2.8 5.41 2.8 5.07 0 6.18-.72 5.13-3.33-3.49-8.6-3.63-19.73-.29-22.17 2.82-2.07 3-3.71 1.07-9.988-1.27-4.133-4.3-8.48-6.73-9.66-4.01-1.941-3.78-2.16 2.39-2.289 6.12-.127 6.82-.779 6.82-6.315 0-7.116-1.87-8.658-12.98-10.69-5.53-1.01-7.9-.735-7.53.873.6 2.579-.84 3.397-5.95 3.397-2.01 0-2.92-1.173-2.26-2.911.79-2.056-.09-2.594-3.01-1.832-6.29 1.646-3.55 5.417 5.69 7.828 6.18 1.615 8.26 3.225 8.24 6.36-.03 2.698-1.67 4.43-4.61 4.848-2.51.358-5.7 2.011-7.08 3.673-1.38 1.663-3.79 3.023-5.35 3.023s-4.39 2.361-6.28 5.247c-4.01 6.126-5.66 6.436-10.15 1.946-1.82-1.811-3.3-2.33-3.3-1.151 0 1.181 1.65 3.081 3.67 4.211 3.2 1.8 2.71 2.49-3.67 5.27-4.86 2.12-5.97 3.23-3.27 3.28 3.99.09 3.99.15.09 3-2.2 1.6-5.21 2.45-6.7 1.88-1.49-.58-2.71.06-2.71 1.4 0 1.35.94 1.87 2.1 1.15 1.15-.71 2.09-.37 2.09.75 0 1.13-1.18 2.53-2.62 3.11-1.62.65-1.28 1.12.91 1.22 1.94.1 4.13-1.72 4.86-4.03.74-2.31 2.4-4.2 3.71-4.2 1.69 0 1.65.73-.14 2.52-3.12 3.12-3.24 14.24-.19 18.47 1.93 2.69 2.1 2.63 1.12-.41-.79-2.5-.23-3.22 1.91-2.4 3.97 1.52 3.88 4.72-.19 6.28-1.77.68-4.96-.33-7.09-2.25-3.56-3.22-3.96-3.23-5.17-.07-1.9 4.96.49 7.63 5.43 6.06 2.82-.89 3.8-.58 2.88.92-.78 1.26-.31 4.43 1.04 7.05 2.03 3.93 1.97 4.31-.32 2.14-1.53-1.44-4.24-2.61-6.03-2.59-2.2.02-2.47.53-.82 1.58 1.33.85 3.11 5.32 3.94 9.93.83 4.62 4.12 16.53 7.3 26.47 5.56 17.36 6.1 27.71 1.59 30.5-1.34.82-1.54-1.92-.57-7.65 1.65-9.77-1.66-10.44-4.07-.82-.95 3.8-.26 6.76 2.24 9.52 1.99 2.2 4.16 3.73 4.82 3.41s8.45-4.03 17.3-8.23zm-6.65-7.82c0-1.01 1.18-2.75 2.62-3.87 4.28-3.31 9.97-4.8 9.97-2.61 0 1.11-1.44 2.03-3.21 2.03s-3.76 1.42-4.42 3.15c-1.3 3.38-4.96 4.34-4.96 1.3zm6.3-12.62c0-1.02 2.83-2.27 6.29-2.77 3.47-.51 6.3-.15 6.3.81 0 .95-.71 1.8-1.57 1.89-.87.08-3.7.55-6.3 1.04-2.6.48-4.72.04-4.72-.97zm12.62-7.97c.02-.94.95-3.12 2.07-4.85 1.75-2.71 2.04-2.66 2.07.4.01 1.95-.92 4.13-2.07 4.85-1.15.71-2.08.53-2.07-.4zm-27.25-21.56c-1.7-1.07-2.58-2.47-1.95-3.09.63-.63 2.96.23 5.19 1.91 4.42 3.35 1.73 4.33-3.24 1.18zm34.73-14.51c-.71-1.16.37-3.08 2.42-4.27 3.53-2.06 3.52-2.17-.1-2.23-2.09-.03-5.64.92-7.87 2.11-5.29 2.83-5.61-1.62-.39-5.44 2.61-1.91 4.44-2.04 6.34-.46 2.06 1.7 2.35 1.36 1.27-1.47-1.24-3.21-.84-3.37 3.1-1.27 2.48 1.33 4.51 3.66 4.51 5.17 0 3.94-7.68 10.45-9.28 7.86zm-20.1-32.8c0-1.73-1.66-3.15-3.68-3.16-2.66-.01-1.95-1.21 2.63-4.4 6.2-4.32 4.85-4.55-6.3-1.04-2.31.73-.42-.55 4.2-2.85 9.65-4.8 15.92-5.37 19.52-1.77 3.74 3.75 3.05 6.83-.82 3.62-2.79-2.31-3.26-2.27-2.9.27.94 6.54-.28 8.28-5.83 8.32-4.5.02-5.08.48-2.62 2.06 2.69 1.74 2.61 2.04-.53 2.07-2.02.02-3.67-1.39-3.67-3.12zm19.55-39.62c.61-1.591.17-3.834-.98-4.985-1.39-1.391-.21-2.092 3.53-2.092 3.95 0 4.78.538 2.78 1.804-2.21 1.406-2.03 1.811.83 1.836 2.02.018 3.67 1.449 3.67 3.181 0 1.993-2.01 3.148-5.47 3.148-3.79 0-5.13-.891-4.36-2.892zm133.67 136.8c-2.89-2.33-4.94-4.69-4.55-5.24.38-.54.22-1.46-.37-2.05-.58-.59-.85.39-.59 2.17.61 4.14 7.89 12.26 9.52 10.62.68-.68-1.13-3.16-4.01-5.5zm-193.1 3.79c0-.45-1.47-1.38-3.26-2.07-1.87-.72-2.71-.36-1.97.82 1.23 2 5.23 2.95 5.23 1.25zm390.39-9.66c0-1.16-.94-2.1-2.09-2.1a2.1 2.1 0 00-2.1 2.1 2.095 2.095 0 004.19 0zm-256.68-7.35c5.29-4.04 10.58-7.35 11.76-7.35s1.61-.54.95-1.2c-1.75-1.75-13.17 4.57-19.26 10.66-7.35 7.35-4.75 6.51 6.55-2.11zm266.02 4.12c5.64-4.26 1.5-8.72-4.91-5.29-4.54 2.43-5.49 4.65-3.03 7.12 1.99 1.98 3.3 1.68 7.94-1.83zm-299.94-17.32c-.99-.99-17.93 11.76-17.93 13.51 0 .55 4.24-2.05 9.44-5.78 5.19-3.73 9.01-7.21 8.49-7.73zm-20.44-.02c.46-4.52-.48-7.05-3.14-8.47-3.31-1.77-3.8-1.14-3.8 5 0 7.28 1.99 7.23 3.75-.1.8-3.31 1.06-3.03 1.25 1.32.23 5.17-4.15 11.42-6.42 9.15-.56-.56-1.03.4-1.03 2.15 0 6.23 8.7-2.15 9.39-9.05zm21.15-6.33c-.89-.37-3.56.38-5.93 1.65-2.47 1.31-4.32 1.46-4.32.33 0-1.09-1.73-1.52-3.85-.97-3.92 1.02-5.49 7-1.84 7 1.1 0 .71 1.57-.87 3.5-1.59 1.92 1.91.27 7.78-3.68 5.86-3.94 9.93-7.47 9.03-7.83zm-14.45 6.03c0-1.22.95-2.22 2.1-2.22 1.16 0 2.1.41 2.1.92s-.94 1.51-2.1 2.23c-1.15.71-2.1.29-2.1-.93zm300.15 5.12c0-3.23-5.48-4.13-11.38-1.87-5.81 2.23-3.57 5.02 4.03 5.02 5.13 0 7.35-.95 7.35-3.15zm-267.61-2.1l6.29-2.97-6.29 1.25c-3.47.68-7.72 2.03-9.45 2.99-5.65 3.15 2.36 2.06 9.45-1.27zm1.57-6.72c-2.6-.5-6.85-.5-9.44 0-2.6.5-.48.91 4.72.91 5.19 0 7.32-.41 4.72-.91zm-110.33-9.98c-.93-2.85-14.03-4.15-14.03-1.4 0 1.16 2.13 1.93 4.72 1.71 2.6-.22 4.73.55 4.73 1.7 0 1.16-.68 1.88-1.5 1.6-.83-.27-.91 1.04-.19 2.92 1.18 3.06 1.6 3.02 4.15-.47 1.56-2.13 2.52-4.86 2.12-6.06zm-10.88-9.53c-4.48-4.95-7.72-5.52-6.01-1.06.66 1.72 2.05 2.61 3.08 1.97s1.88-.16 1.88 1.06c0 1.23 1.09 2.23 2.42 2.23 1.38 0 .78-1.82-1.37-4.2zm3.15-6.42c0-1.22-.95-1.64-2.1-.93-1.16.72-2.1 1.72-2.1 2.22 0 .51.94.93 2.1.93 1.15 0 2.1-1 2.1-2.22zm3.36-3.51c-.69-.7-1.19.54-1.1 2.76.1 2.44.6 2.94 1.27 1.27.61-1.52.53-3.33-.17-4.03zm-1.26-4.57c0-1.04-1.89-1.41-4.2-.8-2.31.6-4.2 1.46-4.2 1.9s1.89.8 4.2.8 4.2-.85 4.2-1.9zm-3.27-4.2c.64-1.04-.72-1.4-3.03-.8-4.9 1.28-5.52 2.71-1.17 2.71 1.66 0 3.55-.86 4.2-1.91zm-1.76-10.12c-.7-.7-1.2.54-1.1 2.76.1 2.44.59 2.94 1.26 1.27.61-1.52.53-3.33-.16-4.03zm10.43-6.61c-1.21-1.96-9.6-4.7-9.6-3.14 0 .51 2.12 1.78 4.72 2.82 6.16 2.48 6.21 2.48 4.88.32zm-15.9-1.05c0-.43-1.65-2.08-3.67-3.67-3.33-2.61-3.4-2.54-.79.79 2.74 3.5 4.46 4.61 4.46 2.88zm78.93-7.03c-2.13-2.13-3.89 1.08-2.14 3.91 1.32 2.14 1.81 2.14 2.52.01.49-1.46.32-3.22-.38-3.92zm-78.31-2.6c-1.95-2.28-3.96-3.72-4.48-3.2-1.25 1.25 3.89 7.33 6.2 7.33 1 0 .23-1.86-1.72-4.13zm4.69-8.37c-.69-1.11-2.63-1.48-4.33-.83-4.33 1.67-3.82 2.84 1.24 2.84 2.38 0 3.77-.91 3.09-2.01zm-8.09-5.33c-2.56-1.88-2.78-3.05-.92-4.91 1.67-1.68 1.72-2.45.15-2.45-3.11 0-5.17 5.85-2.62 7.43 1.12.69 1.51 2.13.85 3.19s.4 1.32 2.36.57c3.24-1.25 3.26-1.58.18-3.83zm12.23 1.04c-.72-1.16-1.72-2.1-2.23-2.1s-.92.94-.92 2.1c0 1.15 1 2.1 2.22 2.1s1.64-.95.93-2.1zm-3.88-10.657c.23-4.998.01-5.588-.72-1.937-.58 2.886-2.14 6.584-3.48 8.214-1.91 2.34-1.75 2.75.73 1.94 1.89-.62 3.28-3.91 3.47-8.217zm12.33 6.547c-.68-1.1-2.63-1.47-4.32-.82-4.34 1.66-3.83 2.83 1.24 2.83 2.37 0 3.76-.9 3.08-2.01zm.82-10.583c2.36-4.948 2.32-5.015-.76-1.173-1.8 2.241-3.27 4.995-3.27 6.122 0 2.664.97 1.474 4.03-4.949zm-16.12-.986c.55-2.851.18-4.684-.8-4.074-1.74 1.075-2.62 9.258-.99 9.258.44 0 1.25-2.333 1.79-5.184zm31.55-1.113c-1.98-2.309-3.77-4.198-3.98-4.198-.22 0 .1 1.889.71 4.198.6 2.309 2.39 4.198 3.98 4.198 2.21 0 2.04-.984-.71-4.198zm-21.55-1.173c0-.509-.95-.926-2.1-.926-1.16 0-2.1 1-2.1 2.223 0 1.222.94 1.639 2.1.925 1.15-.713 2.1-1.713 2.1-2.222zm73.46 1.173c0-1.154-1-2.099-2.23-2.099-1.22 0-1.64.945-.92 2.099.71 1.154 1.71 2.099 2.22 2.099s.93-.945.93-2.099zm-59.42-4.364c-.74-2.829-.28-4.032 1.33-3.42 1.51.578 2.55-1.391 2.69-5.081.12-3.314-.59-6.025-1.57-6.025-.99 0-1.8 1.918-1.8 4.263 0 2.346-1.4 4.801-3.11 5.458-2.36.903-2.59 2.162-.98 5.181 2.84 5.303 4.86 5.082 3.44-.376zm13.63.831c-1.51-.606-3.32-.532-4.02.166-.7.697.54 1.193 2.76 1.102 2.44-.1 2.94-.598 1.26-1.268zm42.69-2.358c-.64-.647-2.34-.002-3.76 1.433-2.06 2.073-1.82 2.314 1.18 1.175 2.07-.789 3.23-1.962 2.58-2.608zm-65.61-2.421c2.09-2.261 1.99-2.456-.52-1.016-5.15 2.95-10.53 2.532-10.53-.818 0-1.731-.59-2.558-1.31-1.838-.72.719-.75 2.765-.07 4.544 1.44 3.745 8.61 3.242 12.43-.872zm27.9.899c-2.24-1.695-4.84-3.082-5.77-3.082s-1.7-.914-1.7-2.033c0-1.118 1.65-1.501 3.67-.851 3 .963 3.11.783.63-.977-3.22-2.281-6.4-1.377-6.4 1.819 0 1.05 2.6 3.317 5.77 5.04 7.37 3.996 9.02 4.032 3.8.084zm9.32-4.356c0-.453-1.41-.824-3.15-.824-1.73 0-3.14.914-3.14 2.033 0 1.118 1.41 1.489 3.14.824 1.74-.664 3.15-1.579 3.15-2.033zm-40.03-7.984c1.68-2.024 1.76-3.392.26-4.321-1.21-.749-2.2.043-2.2 1.758s-1.66 3.55-3.68 4.078c-3.1.81-3.14.998-.26 1.203 1.88.134 4.53-1.089 5.88-2.718zm13.64-3.583c-.87-1.417-9.29-.042-9.29 1.519 0 .429 2.29.591 5.1.359 2.8-.232 4.69-1.077 4.19-1.878zm7.5-7.323c0-1.608.95-2.924 2.1-2.924 1.16 0 2.1 1.362 2.1 3.025 0 3.3 3.8 6.469 5.6 4.671.62-.617-.93-3.309-3.44-5.983-4.27-4.558-4.72-4.632-7.26-1.188-3 4.068-9.59 4.995-9.59 1.35 0-1.278-1.44-1.772-3.2-1.097-2.56.983-2.78.446-1.09-2.706 1.92-3.59 1.65-3.723-3.08-1.527-5.65 2.619-6.74 5.284-2.6 6.383 1.44.384 5.46 1.604 8.92 2.711 7.38 2.359 11.54 1.379 11.54-2.715zm37.78 3.373c-1.73-1.119-4.09-2.034-5.24-2.034-1.16 0-.69.915 1.05 2.034 1.73 1.119 4.09 2.035 5.24 2.035 1.16 0 .68-.916-1.05-2.035zm-13.29-3.806c-2.45-2.712-2.79-4.455-1.19-6.06 1.44-1.441 1.51-2.712.2-3.525-1.13-.7-2.71 1.318-3.5 4.483l-1.45 5.756-2.9-5.245c-2.86-5.172-2.91-5.179-2.98-.523-.04 2.597.63 4.795 1.5 4.883 4.65.474 9.45 1.766 10.51 2.83 3.04 3.039 2.88.786-.19-2.599zm-15.83-5.149c-2.07-2.058-2.31-1.817-1.18 1.175.79 2.07 1.97 3.235 2.61 2.588.65-.646 0-2.339-1.43-3.763zm21.03 2.889c-1.99-1.258-2.15-2.24-.53-3.24 1.28-.79 3.26-.857 4.41-.149 1.14.708 3.74.32 5.77-.862 3.09-1.798 2.62-2.159-2.87-2.212-3.61-.035-7.62 1.203-8.91 2.753-2.45 2.953-1.16 5.601 2.7 5.546 1.25-.017.99-.844-.57-1.836zm-28.11-7.052c-.72-3.589-8.13-6.352-10.55-3.933-1.23 1.223-.5 1.843 1.93 1.638 2.14-.181 3.66.852 3.37 2.295s.89 2.624 2.62 2.624c1.74 0 2.92-1.181 2.63-2.624z"/></svg>