<svg version="1.1" id="prefix__Calque_1" xmlns="http://www.w3.org/2000/svg" x="0" y="0" viewBox="-283 378.9 28.4 85"
    xml:space="preserve">
    <style>
        .prefix__st0 {
            fill: #fff;
            stroke: #010101;
            stroke-width: .25;
            stroke-linecap: round;
            stroke-linejoin: round;
            stroke-miterlimit: 10
        }
    </style>
    <path id="prefix__XMLID_51_" class="prefix__st0" d="M-276.9 387.2h16.1v70.7h-16.1z" />
    <path id="prefix__XMLID_10_" class="prefix__st0"
        d="M-272.3 456.1c-.6 0-1-.4-1-1V390c0-.6.4-1 1-1s1 .4 1 1v65.1c0 .6-.5 1-1 1z" />
    <path id="prefix__XMLID_44_" class="prefix__st0" d="M-275.9 390v65.1c0 .5-.5 1-1 1V389c.6 0 1 .4 1 1z" />
    <path id="prefix__XMLID_23_" class="prefix__st0"
        d="M-265.3 456.1c-.6 0-1-.4-1-1V390c0-.6.4-1 1-1s1 .4 1 1v65.1c0 .6-.4 1-1 1z" />
    <path id="prefix__XMLID_42_" class="prefix__st0" d="M-260.8 389v67.1c-.5 0-1-.5-1-1V390c0-.6.5-1 1-1z" />
    <path id="prefix__XMLID_40_" class="prefix__st0" d="M-258.4 458.9v1h-20.8v-1c0-.5.5-1 1-1h18.8c.6 0 1 .5 1 1z" />
    <path id="prefix__XMLID_36_" class="prefix__st0" d="M-280.4 459.8h23.2v1.9h-23.2z" />
    <path class="prefix__st0" d="M-277.6 381.2h17.6l-.8 6h-16.1z" />
    <path class="prefix__st0"
        d="M-273.9 383.9c0 1.8-1.5 3.3-3.3 3.3-1.8 0-3.3-1.5-3.3-3.3 0-1.5 1.2-2.7 2.7-2.7s2.7 1.2 2.7 2.7c0 1.2-.9 2.1-2.1 2.1-1.2 0-2.1-.9-2.1-2.1 0-.9.8-1.6 1.6-1.6.9 0 1.6.8 1.6 1.6 0 .6-.5 1.1-1.1 1.1s-1.1-.5-1.1-1.1c0-.3.3-.5.5-.5.3 0 .5.3.5.5M-263.7 383.9c0 1.8 1.5 3.3 3.3 3.3 1.8 0 3.3-1.5 3.3-3.3 0-1.5-1.2-2.7-2.7-2.7s-2.7 1.2-2.7 2.7c0 1.2.9 2.1 2.1 2.1 1.2 0 2.1-.9 2.1-2.1 0-.9-.8-1.6-1.6-1.6s-1.6.8-1.6 1.6c0 .6.5 1.1 1.1 1.1.6 0 1.1-.5 1.1-1.1 0-.3-.3-.5-.5-.5s-.5.3-.5.5" />
    <path fill="none" stroke="#010101" stroke-width=".25" stroke-linecap="round" stroke-linejoin="round"
        stroke-miterlimit="10" d="M-273.9 383.9h10.2" />
</svg>