<?xml version="1.0" encoding="utf-8"?>
<!-- Generator: Adobe Illustrator 19.0.0, SVG Export Plug-In . SVG Version: 6.00 Build 0)  -->
<svg version="1.1" id="Calque_1" xmlns="http://www.w3.org/2000/svg" xmlns:xlink="http://www.w3.org/1999/xlink" x="0px" y="0px"
	 viewBox="-283 378.9 28.4 85" style="enable-background:new -283 378.9 28.4 85;" xml:space="preserve">
<style type="text/css">
	.st0{fill:#FFFFFF;stroke:#010101;stroke-width:0.25;stroke-linecap:round;stroke-linejoin:round;stroke-miterlimit:10;}
	.st1{fill:none;stroke:#010101;stroke-width:0.25;stroke-linecap:round;stroke-linejoin:round;stroke-miterlimit:10;}
</style>
<rect id="XMLID_51_" x="-276.9" y="387.2" class="st0" width="16.1" height="70.7"/>
<path id="XMLID_10_" class="st0" d="M-272.3,456.1c-0.6,0-1-0.4-1-1V390c0-0.6,0.4-1,1-1s1,0.4,1,1v65.1
	C-271.3,455.7-271.8,456.1-272.3,456.1z"/>
<path id="XMLID_44_" class="st0" d="M-275.9,390v65.1c0,0.5-0.5,1-1,1V389C-276.3,389-275.9,389.4-275.9,390z"/>
<path id="XMLID_23_" class="st0" d="M-265.3,456.1c-0.6,0-1-0.4-1-1V390c0-0.6,0.4-1,1-1s1,0.4,1,1v65.1
	C-264.3,455.7-264.7,456.1-265.3,456.1z"/>
<path id="XMLID_42_" class="st0" d="M-260.8,389v67.1c-0.5,0-1-0.5-1-1V390C-261.8,389.4-261.3,389-260.8,389z"/>
<path id="XMLID_40_" class="st0" d="M-258.4,458.9v1h-20.8v-1c0-0.5,0.5-1,1-1h18.8C-258.8,457.9-258.4,458.4-258.4,458.9z"/>
<rect id="XMLID_36_" x="-280.4" y="459.8" class="st0" width="23.2" height="1.9"/>
<g id="Calque_2">
</g>
<polygon class="st0" points="-277.6,381.2 -260,381.2 -260.8,387.2 -276.9,387.2 "/>
<path class="st0" d="M-273.9,383.9c0,1.8-1.5,3.3-3.3,3.3c-1.8,0-3.3-1.5-3.3-3.3c0-1.5,1.2-2.7,2.7-2.7s2.7,1.2,2.7,2.7
	c0,1.2-0.9,2.1-2.1,2.1c-1.2,0-2.1-0.9-2.1-2.1c0-0.9,0.8-1.6,1.6-1.6c0.9,0,1.6,0.8,1.6,1.6c0,0.6-0.5,1.1-1.1,1.1
	s-1.1-0.5-1.1-1.1c0-0.3,0.3-0.5,0.5-0.5c0.3,0,0.5,0.3,0.5,0.5"/>
<path class="st0" d="M-263.7,383.9c0,1.8,1.5,3.3,3.3,3.3c1.8,0,3.3-1.5,3.3-3.3c0-1.5-1.2-2.7-2.7-2.7s-2.7,1.2-2.7,2.7
	c0,1.2,0.9,2.1,2.1,2.1c1.2,0,2.1-0.9,2.1-2.1c0-0.9-0.8-1.6-1.6-1.6s-1.6,0.8-1.6,1.6c0,0.6,0.5,1.1,1.1,1.1c0.6,0,1.1-0.5,1.1-1.1
	c0-0.3-0.3-0.5-0.5-0.5s-0.5,0.3-0.5,0.5"/>
<line class="st1" x1="-273.9" y1="383.9" x2="-263.7" y2="383.9"/>
</svg>
