<?xml version="1.0" encoding="utf-8"?>

<!DOCTYPE svg PUBLIC "-//W3C//DTD SVG 1.1//EN" "http://www.w3.org/Graphics/SVG/1.1/DTD/svg11.dtd">
<svg version="1.1" id="Layer_1" xmlns="http://www.w3.org/2000/svg" xmlns:xlink="http://www.w3.org/1999/xlink" x="0px" y="0px"
	 viewBox="0 0 721.007 1640.928" enable-background="new 0 0 721.007 1640.928" xml:space="preserve">
<g>
	<path d="M208.87,500.706c-3.52,0.422-2.621-2.775-3.091-4.292c-18.583-59.945-14.453-78.894-16.928-106.057
		c-0.161-1.771-0.849-3.534-0.071-5.339c2.131-0.423,2.713,1.069,2.688,2.509c-0.698,40.03,11.427,93.068,14.845,93.366
		c0.754-2.691-0.363-5.244-0.922-7.731c-4.271-19.013-11.686-59.387-6.441-78.087c0.781-2.785-6.352-10.587-0.732-16.615
		c3.514,4.19,2.631,8.966,2.533,13.186c-1.922,83.005,28.464,121.338,23.098,184.703c-0.867,10.234-2.97,20.328-2.963,30.685
		c0.003,3.914-2.432,7.776-3.346,11.756c-8.347,36.343-1.847,44.176,4.429,53.483c1.608,2.385,3.839,1.327,6.232,1.326
		c-0.329-1.053-0.39-1.687-0.701-2.155c-0.706-1.061-2.919-1.838-0.964-3.395c3.72-2.965,3.346,4.924,10.282,8.994
		c-0.749-6.159-9.029-10.047-6.395-12.418c3.25-2.925,12.717,16.848,15.192,8.824l-0.193,0.199c2.578,0.042,4.076-1.375,4.934-3.654
		l0.294-0.333c3.047,3.622,5.427,7.329,6.247,12.346c0.857,5.242,4.447,9.671,6.933,14.409c0.578,1.102,1.43,2.453,2.834,1.674
		c1.581-0.877,0.355-2.266-0.15-3.224c-5.387-10.211-7.998-21.771-15.144-31.127c-0.756-0.99-1.261-2.135-0.362-4.38
		c14.087,10.717,17.828,47.059,29.479,41.352c-0.571-3.661-5.291-5.289-4.79-10.116c4.431,2.178,6.595,6.064,9.396,9.044
		c2.467,2.625,8.648,5.225,10.894,2.14c1.496-2.055-0.958-3.262-2.168-4.386c-8.084-7.513-10.595-18.158-15.526-27.432
		c-0.711-1.337,0.806-2.687,1.034-4.099l-0.13,0.157c1.572,0.34,1.914,2.098,3.22,2.796c0.579-1.325,1.251-2.648,0.547-4.097
		c-4.36-8.976-3.174-19.103-5.857-28.463c-3-10.468-3.005-10.975-1.381-11.403c2.744-0.723,3.103,4.058,3.487,5.668
		c3.541,14.845,5.932,48.964,23.524,70.247c0.925,1.119,1.685,1.576,2.997,1.607c1.647,0.039,3.376,0.579,4.919,0.233
		c4.05-0.906,9.448,1.573,11.931-1.631c2.291-2.956-1.974-6.956-2.561-10.721c-0.527-3.382-1.309-6.723-2.213-11.264
		c5.692,3.662,2.642,5.842,8.773,19.115c0.678,1.468,0.286,4.609,3.74,3.372c2.473-0.886,4.531-1.793,4.502-5.006
		c-0.25-27.321-0.163-28.269,1.819-28.285c2.042-0.017,1.464-1.713,1.464,26.663c4.369-5.365,4.915-24.589,2.424-31.34
		c-1.636-4.434,3.099-4.351,3.546-0.896c4.343,33.598-12.714,40.78,11.421,32.902c3.56-1.162,3.714-4.585,3.473-7.271
		c-0.743-8.271,0.056-16.519-0.191-24.77c-0.174-5.81-0.304-7.458,2.236-7.232c3.254,0.289,0.749,2.908,0.759,4.442
		c0.21,32.97-0.787,31.78,1.304,32.376c6.227,1.775,9.84-11.428,9.842-19.622c0-1.42-0.72-2.848,0.352-4.547
		c9.316,5.65-6.664,25.251,3.036,21.684c25.729-9.461,32.107-6.858,31.595-13.521c-0.171-2.22-0.012-5.833,2.246-5.665
		c3.731,0.279-1.576,8.187,3.437,8.222c3.567,0.025,2.786-4.006,3.267-6.445c2.873-14.569,0.082-28.359-5.892-41.711
		c-1.049-2.344-3.042-4.642-1.401-7.508c2.287-0.259,2.2,1.697,2.65,2.881c4.098,10.777,9.93,21.1,9.18,33.202
		c-0.873,14.077-3.45,18.434,3.461,16.812c9.476-2.224,10.335-3.513,8.612-13.169c-2.615-14.655-8.305-28.104-15.487-41.015
		c-0.653-1.173-2.372-2.669-0.806-3.79c2.103-1.505,2.908,1.052,3.527,2.233c7.985,15.228,15.663,30.579,17.069,48.159
		c0.11,1.371-0.608,3.568,2.167,3.615c14.873,0.254,3.86-22.073,5.656-28.994c2.805,0.936,3.334,3.015,3.55,5.401
		c0.479,5.305,2.579,10.418,1.445,15.944c-1.376,6.701,12.509,3.302,15.543-2.018c1.784-3.129,3.053-1.78,4.705-0.272l-0.131-0.175
		c-1.588,1.249-3.714,2.14-1.765,4.861c1.95,2.721,4.83,3.355,7.063,1.841c3.197-2.167,6.55-2.35,10.018-2.577
		c6.913-0.453,24.898-14.003,22.012-6.749c-2.621,6.587-7.654,10.553-14.506,10.853c-20.097,0.879-38.865,7.587-57.919,12.847
		c-163.265,45.075-173.486,19.42-192.021,15.589c-1.708-0.353-3.212-1.321-3.578-3.719c-0.549-3.599-2.682-2.502-4.242-0.662
		c-2.575,3.038-10.966,11.049-1.717,16.381c3.325,1.917,6.46,4.342,10.439,5.289c21.292,5.071,42.172,12.364,64.617,10.629
		c47.065-3.637,75.097-16.465,105.518-21.516c6.702-1.113,13.356-2.989,19.768-5.26c8.86-3.138,18.182-4.33,27.08-7.045
		c43.83-13.373,40.822-42.319,70.82-14.966c0.78,0.711,1.667,1.335,0.897,2.529c-0.907,1.408-2.069,1.204-3.139,0.27
		c-11.737-10.244-13.344-15.21-26.893-8.067c-10.357,5.46-11.152,8.967-29.227,18.57c-19.853,10.549,4.177,24.663,5.359,52.181
		c0.202,4.705-5.223,4.445-6.327,1.009c-2.666-8.295-5.126-16.66-6.088-25.303c-1.358-12.203-5.524-12.164-4.94-18.934
		c0.452-5.239-2.1-2.852-8.253-2.256c-24.445,2.364,18.131,45.191,9.797,123.438c-2.211-24.469,0.751-27.979-7.811-68.929
		c-3.426-16.387-10.628-31.724-13.611-48.247c-1.182-6.546-6.912,0.63-29.898,5.671c-3.438,0.754-11.796,0.263-10.84,4.062
		c4.882,19.409-3.584,90.211-2.406,194.242c0.436,38.513,10.903,100.077,4.687,100.426c-2.551,0.143-1.744-2.378-1.684-3.767
		c0.581-13.49-2.365-26.669-4.174-40.031c0,28.305,0.523,13.924-1.707,32.621c-0.43,3.605,1.418,7.186,1.268,11.196
		c-2.98,79.68-6.908,46.566-9.56,196.942c-0.682,38.659,2.059,41.148-2.729,94.88c-3.738,41.949-10.442,77.539-7.997,127.633
		c2.133,43.723,3.542,38.232,3.26,53.266c-0.06,3.175-3.924,3.514-4.497,0.066c0,0-2.515-64.491-2.519-65.349
		c-0.208-39.561,4.637-67.725,6.45-91.741c7.269-96.307,3.47-194.281,8.913-246.952c11.434-110.655,0.875-117.581,8.764-117.365
		c2.203,0.06,0.982-2.313,0.889-3.249c-2.881-28.996-4.949-46.667-4.006-83.888c1.55-61.149,7.526-143.113,3.168-159.611
		c-24.275,5.404-24.568,4.898-25.064,7.721c-1.023,0.243-2.646-1.761-2.886,0.112c0.951-0.032,1.901-0.064,2.852-0.096
		c3.353,0.907,1.741,3.552,1.705,5.422c-0.13,6.596-2.824,12.257-6.911,17.3c-3.147-7.13,0.855-14.458-0.712-22.061
		c-3.585-1.007-6.917,1.337-10.48,1.597c-2.227,0.163-1.912,2.292-1.758,3.979c18.76,205.632,11.076,151.437,10.367,269.986
		c-0.49,81.989,3.122,107.352-1.357,121.352c-1.681-30.665-1.988-61.353-2.137-92.047c-0.659,0.003-1.319,0.006-1.978,0.01
		c0,519.796-18.679,453.272-1.28,500.026c1.534,4.122,5.078,12.084,0.629,12.888c-4.633,0.837-0.541-9.249-6.106-13.712
		c-2.12,9.701-0.1,19.921-6.424,29.544c-1.6-6.222,0.36-10.808,1.101-15.359c2.806-17.228-1.389-21.173-0.19-50.807
		c2.094-51.723,2.113-48.401,0.297-51.702c-0.135,1.02-16.476,136.39-29.435,131.749c-2.998-1.074,1.208-5.561,2.255-8.467
		c14.823-41.107,20.572-100.235,24.013-121.836c1.464-9.192-0.683-14.671,3.406-15.876c1.555,2.99-1.31,6.548,1.415,9.317
		c0.271-2.43,0.648-4.935,0.798-7.453c0.409-6.861-5.096-1.36-4.197-7.33c1.168-7.757,0.593-15.71,2.643-23.371
		c8.151-30.468,6.092-466.921,12.653-475.946c-3.456-3.339-0.31-6.374,0.378-9.559c0.487-2.256-5.459-183.494-13.55-183.157
		c-4.014,0.167-2.223,1.013,1.18,28.265c19.787,158.473-11.091,383.753-8.673,421.157c2.418,37.407,3.141,56.261,0.231,136.177
		c-3.413,93.713-8.357,82.194-11.832,117.152c-5.23,52.626-3.909,92.885-36.219,135.37c-6.316,8.305-7.836,10.861-4.982,12.439
		c5.658,3.128,1.384-16.661,14.248-5.036c22.288,20.141,26.413-18.859,39.861-10.691c7.916,4.807,12.386-3.454,14.228-4.842
		c2.456-1.851,6.439,0.882,6.022,2.863c-0.765,3.632-3.831-0.534-5.289,3.718c3.302,0.051,5.968-0.972,8.245-3.05
		c7.37-6.728-4.034-4.176-3.695-7.932c0.215-2.381,7.452-3.379,11.141,2.743c1.796,2.981,4.52,6.172,2.746,10.346
		c-1.11,2.612,0.658,2.732,2.531,2.661c17.161-0.651,36.483-35.892,51.414-38.283c1.43-0.229,3.305-2.152,4.193,0.397
		c0.722,2.072-1.226,2.852-2.762,3.444c-10.136,3.907-25.454,20.124-32.541,28.62c12.094,1.426,24.858-26.286,44.847-29.156
		c9.402-1.35,24.371-8.549,45.629-7.45c0.63,0.033,1.21-0.159,1.535-1.788c-8.389-1.505-16.618-4.355-25.303-1.986
		c-8.368,2.282-17.286,2.433-25.184,6.591c-1.382,0.728-3.178,0.835-5.308-1.205c7.064-4.823,15.305-5.004,22.729-7.462
		c7.718-2.556,15.644-3.122,24.667-2.541c-22.832-20.474-37.302-1.999-47.312-4.283c24.851-20.067,47.568-1.306,54.722,2.717
		c1.008,0.567,2.349,2.48,3.483,0.157c0.683-1.4,0.636-3.403-0.914-3.797c-11.813-3.003-0.899-93.163,15.355-296.188
		c0.773-9.66,3.399-113.066,2.393-114.017c-1.222,0.04-1.088,1.061-1.065,1.753c0.458,14.22-3.579,27.794-5.55,41.663
		c-4.108,28.898-5.274,56.823-4.274,57.289c7.113,3.316,2.898,9.46,2.793,13.875c-1.109,46.542-16.275,211.979-17.543,213.128
		c-4.953-0.952,12.937-152.49,12.075-179.953c-5.106,10.307-1.449,30.139-7.235,60.26c-2.313,12.042,1.769,8.894,0.981,13.883
		c-1.004,6.356-14.951,89.303-17.183,127.423c-1.52,25.96,0.482,26.597-3.384,28.343c-4.385-6.003,10.392-112.187,11.439-117.129
		c-23.528,77.557-12.597,83.169-17.315,110.336c-2.94-1.33-2.52-2.649-2.531-3.814c-0.797-80.02,27.807-115.537,30.388-220.612
		c0.374-15.215,5.172-31.954,3.703-57.573c-0.342-5.963,2.484-11.697,0.475-18.964c-3.397,11.597-5.349,22.171-5.834,33.013
		c-0.11,2.46,0.567,5.037-1.412,7.098c-5.693,5.927-1.717-23.088,0.835-31.176c6.998-22.177,15.274-48.408,15.844-71.771
		c0.279-11.42,7.499-21.661,6.827-52.124c-2.514-114.072,2.762-117.486-0.193-171.805c-0.075-1.377-0.696-2.927,1.482-4.059
		c5.829,13.094-2.766,109.715,1.639,184.006c1.511,25.488-8.318,274.211-15.941,338.047c-7.88,65.992,3.708,105.066-4.495,120.294
		c-1.305,2.422-1.004,3.37,1.49,3.853c3.12,0.604,5.7,2.521,8.622,3.516c4.326,1.473,6.791,4.516,8.531,8.472
		c1.468,3.338,5.733,10.858,8.596,8.591c3.561-2.82-12.748-20.365-5.985-32.221c1.886,0.373,2.14,1.477,2.04,2.853
		c-0.549,7.54,1.852,14.369,5.41,20.796c6.781,12.25-7.162,11.435,6.248,17.208c-1.263-8.624,0.845-17.125-2.122-24.941
		c-5.05-13.302-3.474-24.197-2.229-31.231c1.583,3.826,2.703,6.17,2.584,9.062c-0.996,24.33,12.231,36.915,3.884,50.971
		c-5.715,9.624,0.722,15.872-13.864,22.526c-1.615,0.737-4.56-0.544-3.368,3.837c0.693,2.546-4.082,3.378-6.511,4.306
		c-27.02,10.322-25.732,7.242-33.036,7.669c-1.514,0.089-3.401,0.493-3.388-2.253c0.011-2.347,1.514-2.695,3.178-3.001
		c57.507-10.572,49.265-24.441,54.212-31.556c1.324-1.905-4.772-3.194-7.349-0.088c-12.715,15.33-29.433,23.574-48.995,22.701
		c-34.586-1.544-28.5-11.139-48.518-10.659c-15.279,0.367-16.62-12.208-26.504-5.878c-2.011,1.288-4.622-0.245-6.361,1.757
		c0.381,2.976,0.103-0.049,30.392,11.23c4.78,1.78,20.905,11.607,45.403,11.568c2.604-0.005,2.691,0.848,3.316,1.658
		c-0.906,1.884-2.636,1.958-4.512,2.129c-32.401,2.951-53.548-21.873-70.901-17.403c-6.901,1.778-14.316-0.464-21.51,1.345
		c-63.407,15.942-38.698,5.382-88.857,22.35c-1.101,0.372-2.062,1.597-3.437,0.729c3.426-9.062,21.703-7.298,27.464-13.418
		c-7.12-2.351-3.302-3.732-38.922,13.943c-3.55,1.761-5.886,5.24-9.856,6.336c-10.244,2.828-19.411,9.093-30.43,9.531
		c-0.887,0.035-1.737,0.984-2.604,1.508c-0.416,0-0.833,0-1.249,0c-1.249-1.434-2.498-1.434-3.747,0c-0.833,0-1.666,0-2.498,0
		c-0.416-0.542-0.833-0.542-1.249,0c-1.666,0-3.331,0-4.997,0c-0.833-0.997-1.666-0.997-2.498,0c-1.666,0-3.331,0-4.997,0
		c-5.244-1.963-10.933-1.699-16.262-3.287c-30.201-9.001-30.43-22.219-20.783-29.368c2.784-2.063,1.486-3.664,0.02-5.633
		c-4.129-5.547-3.958-15.234,0.297-20.293c3.382-4.021,7.4-2.439,4.336,0.752c-5.39,5.613-3.082,18.495,0.852,12.456
		c1.924-2.953,9.688-11.451,11.434-8.42c0.469,0.813,0.17,1.733-0.553,2.202c-7.008,4.542-10.158,11.177-10.681,19.304
		c-0.243,3.775-6.09,1.4-6.19,5.922c-0.103,4.719,0.763,10.099,7.711,13.712c23.754,12.35,61.345,11.507,83.433-4.443
		c8.375-6.048,17.683-11.232,25.158-19.758c-17.528-5.018-18.265,8.656-51.462,21.729c-12.181,4.797-27.373,1.408-32.426,3.648
		c-1.682,0.746-4.301,1.039-5.4-0.237c-3.966-4.601-10.184-5.275-14.583-8.954c-7.88-6.591-0.235-8.342,2.554-17.713
		c2.438-8.189,11.698-15.55,13.555-12.661c0.733,1.139-0.175,1.892-1.103,2.462c-7.938,4.871-8.509,14.385-13.278,21.28
		c-1.69,2.442,1.715,6.021,5.332,5.299c2.846-0.568,4.209-0.064,5.296,2.543c3.875,9.292,15.96,1.355,14.955-5.46
		c-0.238-1.616-1.495-3.467,0.657-4.288c2.932-1.118,12.132,19.51,26.783,2.477c1.909-2.22,3.188-5.378,6.503-1.536
		c2.552,2.958,17.64-10.508,19.091-11.509c1.782-1.23,0.603-2.472-0.351-3.638c-20.972-25.626-21.237-29.018-34.329-29.964
		c-11.396-0.824-36.645-5.246-44.306,2.023c-5.455,5.176-13.378,6.552-18.66,12.073c-1.142,1.194-3.318-0.203-4.77,1.148
		c-0.529,2.355,3.903,1.909,2.733,3.813c-1.09,1.774-3.16,3.091-5.594,3.633c-10.799,2.408-21.512-15.308-12.432-25.426
		c12.32-13.729,6.929-21.378,22.714-59.996c0,0,2.3-78.36,12.008-167.141c5.018-45.894,5.405-31.183,4.782-91.416
		c-0.831-80.28,7.694-63.784,3.682-96.494c-2.65-21.606,0.673-51.128-1.164-97.648c-0.503-12.721-1.739-41.322,4.048-56.582
		c0,0-0.359,81.534,0.198,125.292c0.431,33.821,4.783,32.884-0.104,65.005c-5.321,34.97-0.281,62.497-2.593,104.984
		c-1.906,35.033-8.422,50.546-8.432,77.563c-0.007,19.82-9.031,102.1-5.997,107.665c1.032-1.347,6.871-34.711,10.3-70.108
		c3.816-39.393,2.904-54.457,6.341-72.44c1.965,3.871,2.039,9.575,1.336,15.782c-6.78,59.817-1.178,64.038-18.943,152.145
		c-1.976,9.8-6.941,18.481-9.52,28.075c-1.768,6.58-3.356,13.267-5.594,19.739c-9.464,27.367-18.735,19.285-7.234,27.583
		c8.778,6.333,31.429-11.488,40.541-17.673c5.875-3.988,5.602-3.773,11.238,0.759c2.641,2.124,6.561,1.818,10.006,2.259
		c21.627,2.773,26.226-0.815,39.484,14.645c12.534,14.616,12.274,17.899,14.937,15.813c1.189-0.932,2.484-2.189,1.3-3.65
		c-5.462-6.736-5.334-16.56-12.834-22.303c-3.253-2.49-5.972-5.622-9.88-7.291c-7.455-3.184-13.026-9.627-20.929-12.126
		c-9.273-2.933-8.511,0.541-21.875-3.943c-6.676-2.24-12.545-1.573-18.787,2.491c-5.713,3.72-11.804,6.759-16.571,11.804
		c-3.74,3.96-11.53,2.641-7.87-2.932c5.47-8.328,8.434-17.899,11.865-27.04c5.922-15.778,4.777-27.025,10.396-30.292
		c-1.433,19.623-9.762,36.177-15.665,53.579c8.313-1.673,15.543-7.403,16.919-15.488c3.687-21.666,6.832-11.38,11.444-57.663
		c0.358-3.588,0.094-7.076,2.937-6.331c3.003,0.788-3.796,37.221-4.949,42.397c-4.185,18.777-11.058,29.365-3.667,25.842
		c9.649-4.601,22.475,3.938,32.341,2.336c1.477-0.24,3.085-0.272,4.246,0.589c10.311,7.647,22.658,12.145,32.123,21.166
		c13.82,13.173,9.299,24.459,23.004,28.576c3.125,0.938,0.422,3.547,1.379,5.24c28.895-37.267,37.241-60.111,44.117-125.794
		c-1.79,0.495-0.143-5.323-20.181,63.694c-3.213,11.067-8.851,21.284-15.83,30.616c-1.211,1.619-2.314,2.899-4.576,1.598
		c-2.09-1.203-2.247-2.914-1.419-4.784c1.342-3.033,2.43-6.338,4.445-8.878c3.131-3.948,3.582-8.8,5.518-13.117
		c1.617-3.607-6.435-7.51-3.117-10.257c1.093-0.905,2.05,0,2.651,0.671c2.373,2.65,5.523,4.844,5.663,9.097
		c3.278-6.451,5.358-13.152,6.946-19.95c8.204-35.111,35.238-78.542,35.234-241.589c-0.002-87.118-2.459-77.065-2.641-106.779
		c-0.178-29.082,5.522-34.953,10.16-104.241c4.991-74.569,10.813-226.389-2.244-302.567c-1.963-11.451,1.802-18.234-8.458-16.714
		c-17.64,2.614-20.404,0.667-19.899,6.679c2.754,32.741-6.974,52.047-7.612,93.336c-0.411,26.617-0.47,26.06-1.684,26.128
		c-4.813-5.753-5.997-71.548-1.155-84.729c1.78,8.661-0.495,16.617,0.593,25.257c6.453-15.014,8.72-56.64,3.274-63.224
		c-1.709,6.419,0.877,12.434-0.275,18.418c-1.12,5.82-1.135,11.852-1.694,18.494c-2.829-2.673-3.045-5.638-2.318-8.119
		c1.796-6.13,0.405-12.358,1.207-18.523c1.951-15.005-15.727-10.175-24.461-12.953c-4.275-1.36-6.377,0.772-5.353,4.803
		c2.889,11.375-2.211,42.609-2.879,48.068c-0.181,1.477-0.123,3.339-2.11,3.07c-2.509-0.339-1.621-2.361-1.269-3.925
		c3.494-15.517,4.382-31.242,3.56-47.074c-0.307-5.918-1.385-6.728-9.73-8.789c1.174,16.775-4.279,32.548-6.553,48.777
		c-0.284,2.027-0.297,4.544-2.772,5.658l0.148,0.12c-1.278-3.209-1.18-6.369-0.156-9.685c2.546-8.245,2.61-16.941,4.352-25.339
		c1.607-7.747-5.514,4.879-3.762-10.318c0.911-7.902-1.511-11.321-9.132-13.067c-3.824-0.876-7.77-4.221-11.181-2.873
		c-3.49,1.379-1.162,6.953-3.425,10.067c-0.725,0.998-1.233,2.154-1.952,3.438c-3.511-3.437,0.539-9.55,1.182-13.538
		c0.737-4.57-7.28-0.169-8.613,4.547c-3.254,11.513-7.373,22.716-10.194,34.434c-15.746,65.409-5.743,144.263-21.883,199.688
		c10.205-114.574,7.353-152.784,12.571-167.607c0.628-1.783,1.562-3.942,0.099-5.305c-3.557-3.314-4.669,6.326-10.751,1.215
		c-17.9-15.042-12.897-8.372-20.371-26.206c-0.47-1.121-0.219-2.897-0.984-3.486c-7.395-5.696-7.106-15.427-11.978-22.476
		c-5.311-7.684,6.284-33.666,9.832-61.224c6.404-49.735,0.734-75.281,6.111-117.36c1.333-10.432-9.268-37.313-13.034-46.834
		c-23.616-59.703-13.963-46.903-20.419-68.627c-3.503-11.786-17.373-27.203-10.963-47.505c2.088-6.614,1.426-14.158,6.517-19.835
		c4.077-4.546-8.096-0.489-13.142-8.607c-1.419-2.283-4.745-0.044-7.51-1.593c3.889-3.067,3.042-6.608,1.576-10.345
		c-13.572-34.607-16.854-42.643-18.645-53.877c-2.886-18.102,9.262-21.36,10.7-31.501c-21.269-5.301-84.329,19.859-91.934,11.624
		c4.779-2.514,9.842-1.69,14.483-1.905c9.89-0.457,19.185-2.807,28.417-6.126c16.471-5.921,45.163-7.064,48.721-5.721
		c4.383,1.654,6.156-13.733,18.637-31.143c12.855-17.931,24.54-8.302,33.631-11.904c5.416-2.146,8.403-0.826,11.487,4.148
		c3.645,5.879,3.645,5.879,10.968,4.132c13.265-3.165,17.532,8.244,14.812,9.893c-1.694,1.027-2.713-0.832-3.215-2.053
		c-5.819-14.156-24.973,5.669-26.977-9.923c-1.052-8.185-7.004-1.403-17.93-2.74c-18.339-2.244-26.027,20.931-34.414,36.241
		c-13.272,24.228-18.772,26.913-10.264,49.329c4.829,12.723,8.863,25.746,14.807,38.046c0.947,1.959,1.041,4.416,1.17,6.663
		c0.342,5.932,3.76,4.029,4.237,5.029c4.211,8.819,11.327,5.855,23.787,8.317c10.881,2.15,2.301,10.979,4.115,23.561
		c-8.183-3.397,4.384-16.52-4.17-20.448c-4.796-2.202-7.722-1.57-10.825,2.388c-0.512,0.653-1.258,1.228-1.501,1.968
		c-14.593,44.361,4.648,42.861,8.005,66.642c6.818,48.296,22.378,59.334,31.356,99.811c2.014,9.08,0.467,4.822-0.702,61.094
		c-1.943,93.528-8.663,77.73-13.269,112.321c-5.203,39.073,25.346,29.226,29.028,12.934c1.295-5.727-8.863-2.007-10.608-6.405
		c-1.652-4.165-3.133-8.631-2.767-13.271c8.918-113.315,1.558-122.935,8.948-151.55c2.894-11.204,2.505-56.992-4.572-76.931
		c-0.639-1.801-0.334-2.891,1.378-3.354c4.283-1.16,5.574,15.93,6.389,24.472c3.837,40.225,0.666,49.361-0.737,59.32
		c-3.91,27.759-2.81,71.965-1.87,80.462c9.341-96.836,9.832-85.777,8.919-94.065c-0.115-1.045-1.016-2.69,1.035-2.834
		c7.256-0.509-17.498,167.405-6.881,177.035c2.83-0.61,3.028-3.27,3.504-5.213c2.949-12.034,8.309-22.469,18.639-29.873
		c5.326-3.817-11.585-11.181-6.665-15.245c1.686-1.393,2.486,0.708,3.367,1.639c10.156,10.74,7.437,11.925,17.438,7.867
		c0.448-1.148-0.534-1.433-1.188-1.801c-13.435-7.564-16.61-19.869-14.959-33.88c1.037-8.795,0.716-17.864,3.855-26.324
		c11.825-31.867-2.017-99.011-5.836-108.979c-1.141-2.978-0.219-5.634,0.007-8.437c1.553,0.165,1.249,3.014,3.889,2.51
		c-2.399-6.883-2.323-14.187-6.43-21.018C204.919,489.02,210.768,496.3,208.87,500.706z M275.626,704.55
		c-0.25,0.34-0.407,0.104-0.14-0.024c0.74-0.358-0.401-0.293,0.294,0.167c0.425,0.294,0.851,0.588,1.276,0.882
		c0.031-0.125,0.11-0.351,0.087-0.362C276.644,704.977,276.134,704.766,275.626,704.55z M268.051,702.578
		c-0.923,0.044-1.986-0.876-2.712,0.337c-0.104,0.175,0.2,0.853,0.434,0.928c1.268,0.406,1.625-0.898,2.418-1.409
		c-0.306-0.277-0.054-0.408,0.053-0.126C268.537,703.076,268.58,701.935,268.051,702.578z M378.186,692.828
		c-1.961,2.205-5.792-0.933-7.581,2.724c3.404,0.962,5.71-0.246,7.572-2.723c6.086,2.688,82.455-19.214,88.855-21.071
		c-2.67-5.658-36.91,7.809-67.837,15.031c-4.814,1.124-10.532,1.668-14.357,5.903C382.621,692.739,380.403,692.783,378.186,692.828z
		 M510.367,1555.784c2.833-0.682,2.434,1.351,2.42,2.952c-0.03,3.251-2.562,5.233-5.541,8.469c8.854-4.22,9.94-5.458,9.081-10.191
		c-0.342-1.885,2.264-4.843-1.108-5.489c-2.21-0.423-2.807,2.393-5.025,4.367c-0.018-0.124-0.085-0.338-0.047-0.359
		C510.878,1555.132,509.825,1555.152,510.367,1555.784z M252.117,694.411c3.813,3.746,8.51,1.354,4.49-3.899
		c-5.006-6.541-1.01-13.982-13.765-11.124c1.495,2.799,5.359,3.545,5.924,6.917c0.19,1.133,1.429,3.266-1.315,2.754
		c-4.716-0.881-2.551,2.826-3.301,4.586l0.111-0.126c-2.348,4.151,6.096,7.843,7.999,0.747L252.117,694.411z M503.143,1542.489
		c0.136,0.377-0.465,0.98,0.353,1.147c-10.872-23.956-28.572-13.166-64.499-6.265c-4.667,0.897-9.592,3.046-12.466,6.605
		c-5.642,6.989-12.739,12.308-19.232,18.426c11.325,6.948,15.675,7.865,27.063,5.13c2.517-0.604,5.11-0.654,6.208,1.301
		c5.708,10.157,25.12,8.912,27.241-1.346c1.356-6.558-7.842-4.404-7.012-7.304c0.466-1.628,1.614-2.218,6.579-0.827
		c5.925,1.66,5.823,2.169,4.483,8.216c-1.068,4.819-4.156,7.77-8.47,11.079c9.158,2.164,16.84,4.136,23.803-3.846
		c2.581-2.958,3.427-5.287,1.453-7.691c-6.001-7.304-10.536-16.814-22.177-16.795c-0.325,0.001-0.652-0.902-0.998-1.413
		c6.499-2.412,12.116-1.308,16.242,3.432c5.344,6.139,12.436,10.91,14.595,19.771c5.253-6.001,5.09-6.823,0.931-12.578
		c-2.956-4.09-6.113-7.757-10.472-10.425c-1.051-0.643-3.84-1.236-2.327-3.485c4.109-6.108,17.873,13.417,21.376,18.404
		C508.827,1548.525,492.089,1547.473,503.143,1542.489z M167.98,746.259c6.358,13.236,31.49,12.864,39.615,3.349
		c3.429-4.016,10.29-34.509,16.665-40.199c0.72-0.642,1.391-1.85,1.341-2.754c-0.335-5.952,6.392-7.596,10.836-21.05
		c0.544-1.646,2.414-3.48,0.645-5.128c-1.918-1.787-4.51-0.314-5.652,0.853c-5.116,5.231-9.354,2.395-14.475,6.042
		c-31.191,22.209-9.863,54.944-39.692,57.868C174.388,745.522,171.519,745.869,167.98,746.259z M316.356,1581.941
		c10.644-0.308,18.806-4.932,27.584-6.988c8.915-2.088,18.167-2.731,27.272-4.007
		C352.331,1569.437,334.285,1572.077,316.356,1581.941z M362.718,1576.92c-18.037-0.595-27.007,1.628-32.795,7.91
		C341.334,1583.14,351.968,1579.795,362.718,1576.92z M179.907,766.398c8.202,5.724,16.95,4.396,21.803-3.703
		C194.227,765.892,187.132,766.238,179.907,766.398z M490.218,1490.202c0.412-0.085,0.825-0.17,1.237-0.255
		c0-7.359,0-14.718,0-22.077C489.665,1475.315,489.29,1482.758,490.218,1490.202z M192.824,779.688
		c4.911,2.194,7.346-2.048,10.685-3.143c0.098-0.032,0.012-1.171-0.254-1.644c-0.443-0.787-1.679-1.206-2.064-0.655
		C199.238,777.035,195.232,776.683,192.824,779.688z M379.163,1574.043c-4.777-0.637-8.208,0.144-11.594,2.345
		C371.641,1575.879,375.497,1575.854,379.163,1574.043z M187.1,773.794c0.058,0.489,0.116,0.979,0.175,1.468
		c3.453,0.685,6.629,0.25,10.233-3.298C193.285,772.706,190.192,773.25,187.1,773.794z M259.416,733.893
		c0.915-3.007,2.036-6.095-1.346-8.422C258.254,728.323,257.11,731.286,259.416,733.893z M490.888,1493.627c0,2.383,0,4.766,0,7.849
		C493.536,1498.516,493.056,1496.037,490.888,1493.627z M282.856,705.956c2.123,1.557,3.996,1.639,5.921,0.845
		c0.259-0.107,0.407-1.453,0.179-1.613c-1.603-1.121-3.392-0.031-5.104-0.221C283.728,704.953,283.571,705.233,282.856,705.956z
		 M322.691,1586.102c0.617-0.086,2.705,0.933,4.266-1.306C324.571,1584.126,323.294,1586.205,322.691,1586.102z M362.493,1566.136
		c2.432,0.833,5.063,1.504,3.912-0.793C365.627,1563.79,364.037,1564.121,362.493,1566.136z M211.881,505.626
		c0.413,1.966-0.667,3.84,1.717,4.717C214.549,508.332,213.443,507.201,211.881,505.626z M244.04,686.176
		c-0.742-0.84-1.042-2.228-2.589-1.929c-0.275,0.053-0.72,0.627-0.657,0.82C241.339,686.739,242.803,686.09,244.04,686.176z
		 M494.411,1245.449c1.185-1.021,2.208-1.732,1.259-3.072c-0.127-0.179-0.637-0.087-0.97-0.12
		C494.612,1243.215,494.526,1244.175,494.411,1245.449z M360.422,1020.286c-1.311,0.063-1.216,1.918-0.502,2.246
		C361.241,1023.14,361.653,1020.733,360.422,1020.286z M284.991,674.008c0.118-1.643-1.325-1.74-1.52-0.763
		c-0.129,0.643,0.092,1.264,0.807,1.412C284.465,674.696,284.754,674.238,284.991,674.008z M270.195,704.239
		c0.685,0.33,1.355,0.872,2.061,0.925C273.727,705.275,272.712,700.623,270.195,704.239z M180.1,761.919
		c-0.166-1.703-3.431-2.732-3.132-0.605c0.125,0.888,0.88,1.414,1.719,1.39C179.186,762.69,179.67,762.174,180.1,761.919z
		 M297.654,706.847c-1.589-0.649-2.715-0.551-4.244,0C294.95,706.847,296.077,706.847,297.654,706.847z M355.091,698.977
		c-2.641,0-1.883-0.165-2.676,0.375C354.655,699.462,353.894,699.536,355.091,698.977z M361.246,1014.394
		c-0.748,0.654-0.829,1.504-0.174,2.23C361.13,1015.88,361.188,1015.137,361.246,1014.394z M344.638,1569.994
		c0.361-0.457,0.733-0.928,1.105-1.398c-1.86-0.725-2.403-0.059-2.175,0.764C343.64,1569.619,344.194,1569.745,344.638,1569.994z
		 M329.643,1572.4c1.631,0.545,2.449-0.466,3.458-1.412C331.402,1570.363,330.466,1571.103,329.643,1572.4z M305.888,706.44
		c-1.431-0.203-2.475-0.87-3.861,0.419C303.329,707.304,304.377,707.895,305.888,706.44z M297.578,1575.811
		c0.014-0.709-0.424-1.107-1.03-1.208C294.591,1574.275,296.678,1578.307,297.578,1575.811z M186.943,649.665
		c0.011-0.149,0.022-0.298,0.033-0.447c-1.148,0.183-0.881,0.172-0.84,0.643C186.405,649.796,186.674,649.731,186.943,649.665z
		 M492.256,1505.494c-0.826,0.74,0.119,1.503,0.127,0.466C492.384,1505.793,492.295,1505.627,492.256,1505.494z M299.989,1585.127
		c0.152-0.616,0.468-1.273-0.136-1.44c-0.449-0.125-0.735,0.148-0.577,0.635C299.379,1584.635,299.74,1584.862,299.989,1585.127z
		 M183.431,710.956l0.187,0.484l0.172-0.491L183.431,710.956z M495.761,1386.788l0.169,0.443l0.151-0.455L495.761,1386.788z
		 M490.795,1460.668l0.307,0.038l-0.116-0.453L490.795,1460.668z M361.172,1005.714l-0.351-0.035l0.14,0.492L361.172,1005.714z
		 M152.914,1564.665l-0.038,0.326l0.473-0.121L152.914,1564.665z M336.566,1565.032l0.481-0.182l-0.481-0.162L336.566,1565.032z
		 M306.212,801.11l-0.184-0.489l-0.174,0.492L306.212,801.11z M498.801,665.568c-0.252-0.402,0.06-0.587-1.297-0.136
		C497.816,665.813,497.525,665.97,498.801,665.568z M216.134,525.283l0.242-0.441l-0.358-0.067L216.134,525.283z M198.17,770.175
		c-0.144,0.034-0.289,0.068-0.433,0.102c0.127,0.325-0.017,0.339,0.552,0.204C198.249,770.379,198.209,770.277,198.17,770.175z"/>
	<path d="M608.943,362.46c-4.245,5.128-10.626,6.677-16.009,9.894c-7.935,4.744-15.593,10.255-22.107,17.04
		c-5.523,5.753-12.657,9.29-19.111,13.746c-2.924,2.019-6.315,1.089-9.547-0.154c-25.788-9.916-17.961-38.355-48.632-72.84
		c-1.31-1.473-0.702-2.201-0.448-3.201c3.031-0.041,4.429,2.175,6.058,4.228c27.709,34.929,23.842,62.327,44.832,68.147
		c10.902,3.023,19.836-11.361,39.89-24.593c16.378-10.807,21.555-6.42,16.824-15.925c-47.229-94.885-98.379-69.087-150.586-92.424
		c-39.857-17.816-51.841-11.66-55.784-34.912c-0.777-4.585-11.322-65.174-12.956-69.616c-2.495-0.251-3.56,1.931-5.307,2.843
		c-1.921,1.002-4.937-0.237-4.37-3.228c0.532-2.809,8.227,2.067,9.169-5.973c0.412-3.518,1.895-6.733,5.263-9.014
		c1.932,2.281-1.853,4.746,1.013,6.983c7.386-14.421-0.369-25.99-0.453-26.99c-0.112-1.329-0.612-3.141,1.1-3.736
		c2.181-0.759,4.821,4.989,3.398,7.289c0.055-0.053,0.109-0.106,0.164-0.16c3.358,2.582,0.237,6.723,2.806,10.323
		c4.375-5.207,1.414-11.118,2.329-16.329c0.08-0.11,0.16-0.221,0.241-0.331c0.051,0.118,0.101,0.235,0.152,0.353
		c-0.095-0.06-0.19-0.119-0.284-0.179c-1.438,0.096-1.977-1.566-1.53-1.812c1.205-0.664,3.868-1.697,4.021-0.296
		c0.655,5.978,4.077,0.623,6.188,1.895c-2.936,11.334,3.939,18.252-1.474,19.528c-4.085,0.963-1.645-4.822-5.346-4.973
		c0.326,5.214-1.019,9.671-6.107,12.32c-2.134,1.111,1.509,3.961,3.899,3.487c6.009-1.191,3.619,3.225,4.422,7.142
		c4.229-2.182,5.163-13.285,9.612-13.687c6.99-0.632,6.181-5.973,7.473-10.724c-3.294,1.01-1.765,3.882-3.079,5.362
		c-0.706,0.794-0.154,2.803-2.079,2.377c-4.376-0.969-1.223-5.131-2.593-11.703c-0.839-4.025-4.341-7.546,1.759-11.232
		c2.679-1.619-0.817-15.375-4.278-16.116c-4.717-1.01-4.73-4.827-6.995-7.215c-9.052-9.544-8.874-6.229-7.867-10.757
		c2.294-10.314-8.534-18.155-14.172-13.276c-2.084,1.804-4.218,1.136-5.086-0.969c-0.966-2.342-1.681-2.181-4.002-1.805
		c-3.013,0.489-1.698-3.048-2.428-4.697c-0.778-1.757,0.578-2.594,2.375-2.492c8.952,0.51,2.605-0.521-3.882-14.189
		c-0.886-1.866-2.079-2.854-3.977-3.544c-0.998,2.583,2.018,3.921,1.745,6.128c-3.93,2.006-2.041-4.277-5.087-3.48l-0.227-0.094
		l0.377,0.036c1.225,6.216,4.673,11.771,5.425,18.457c-3.171,0.981-6.306-1.038-9.511-0.314c-1.01,0.228-2.478-0.989-2.819,0.924
		c-0.301,1.686,0.93,1.686,2.267,1.965c6.214,1.296,15.263,16.241,9.218,13.924l0.124,0.111
		c-11.023-14.553-8.001-12.351-15.425-12.928c-2.167-0.168-1.638,2.884-2.371,4.492c-4.023,8.838-11.346,14.332-19.596,18.743
		c-2.074,1.109-4.398,0.961-6.141-1.079c0.142-0.447,0.232-1.134,0.384-1.148c15.027-1.415,21.487-12.281,24.63-24.705
		c2.547-10.064,13.356,4.069,11.127-7.253c-0.512-2.6-0.334-5.282-1.706-7.784c-1.203-2.195,0.197-3.895,2.098-5.119
		c-0.15-1.22,0.527-1.492,1.557-1.358c-0.26-0.791-0.713,0.436-0.394-0.333c0.204-0.492,0.39-0.516,0.707-0.117
		c0.518,0.651-0.225-0.393-0.289,0.437c-0.766-0.185-1.532-0.37-2.299-0.555c-0.479-1.294,0.647-2.952-0.908-4.002
		c-1.67-4.356-4.878-7.101-8.849-9.042c2.482,3.518,4.911,7.111,9.019,8.877c-0.36,1.482-0.206,2.845,0.923,3.982
		c0.175,0.729,0.35,1.458,0.524,2.187c-3.542-1.88-13.057-12.097-14.093-15.765c-0.924-3.272-19.415-10.777-32.969-5.941
		c-9.382,3.347-18.481-8.959-39.468,6.267c-4.38,3.177-8.791,6.204-11.776,10.871c-0.61,0.953-1.339,2.119-3.207,1.722
		c-0.121-2.721,2.757-3.95,3.255-6.341c2.547-12.233-30.662,18.828-23.797,30.754c0.754,1.31,14.785,1.008,15.832-8.186
		c0.425-3.734,1.715-7.481,6.146-9.411c0.24,2.757-6.039,9.255-1.909,12.844c8.463,7.354,14.655-2.885,16.208,1.952
		c0.561,1.748-1.634,2.098-2.868,2.657c-6.363,2.881-3.622,4.469-6.976,2.499c-9.074-5.331-12.213-5.051-17.145,5.127
		c-0.984,2.031-0.283,3.539-2.626,4.426c-3.211-1.365,0.661-6.243-2.497-7.559c-5.098-2.125-6.099,8.378-10.97,4.228
		c-4.046-3.448-10.175-2.795-13.437,0.99c-4.678,5.428,5.726,0.378,1.771,6.459c-0.793,1.219-2.092,2.411-2.222,3.709
		c-0.721,7.201-4.448,10.097-11.61,9.11c-2.289-0.316-3.179,3.062-5.731,3.212c1.141-5,3.077-5.912,12.803-5.901
		c-5.775-6.034,0.524-19.079,7.49-21.542c5.594-1.978,3.359-14.825,13.741-16.954c1.482-0.304,2.336-1.559,3.071-2.899
		c2.624-4.779,6.873-8.283,10.064-12.602c8.949-12.112,21.01-7.642,27.973-13.859c13.103-11.7,22.913-1.998,42.937-5.991
		c28.303-5.643,52.4,23.701,57.078,28.637c8.689,9.168,3.074,19.461,14.8,19.858c10.881,0.368,8.26,13.815,14.375,18.272
		c4.589,3.345,7.201,8.525,12.005,11.998c6.85,4.951,2.038,15.31,5.944,20.069c6.782,8.263,4.742,24.851-3.67,31.449
		c-4.169,3.27-5.069,1.346-9.093,8.884c-1.122,2.102-0.442,1.933,6.935,10.01c9.491,10.392,4.407,20.998-2.412,32.623
		c-3.283,5.597-9.913,3.365-15.858,3.156c-0.626,8.516,2.925,16.433,4.422,24.659c2.039,11.211,8.887,17.089,20.092,19.962
		c32.332,8.29,44.267,22.43,82.099,25.555c25.771,2.129,56.256,13.957,79.31,41.374c12.608,14.994,12.305,20.851,19.349,21.855
		c18.547,2.644,22.78,17.738,36.041,33.468c12.626,14.976,1.021,23.698,8.592,33.757c21.974,29.198,28.895,45.981,48.791,85.523
		c3.544,7.043,16.361,19.957,9.218,44.99c-9.605,33.663-36.228,74.861-50.284,85.918c-1.249,0.983,1.578,4.501-2.092,3.758
		c-1.817-0.368-2.155-2.887-3.298-4.219c-2.741-3.195-5.434-6.371-9.493-8.395c-12.304-6.133-27.957-30.757-57.158-20.247
		c-16.678,6.003-13.068,1.029-24.999,11.034c-1.463,1.227-2.633,3.203-1.626,4.989c1.114,1.976,2.944,0.327,4.428-0.081
		c14.012-3.848,14.223-5.175,23.208-3.76c-2.435,2.84-5.797,1.661-8.577,2.502c-41.205,12.471-24.898-2.042-44.933,23.443
		c-1.045,1.329-1.551,2.628-0.33,3.854c1.961,1.969,2.256-0.636,3.126-1.396c22.443-19.611,70.872-10.064,91.229,0.251
		c1.836,0.93,2.976,2.003,3.187,5.562c-11.62-6.862-23.182-11.35-37.081-12.003c15.681,19.112,33.086,45.32,33.086,45.32
		c1.259,1.177,1.211,3.038,1.042,4.737l0.196-0.192c-5.951-0.719-19.013-29.251-35.756-46.49
		c-11.053-11.381-45.693-4.112-51.921,4.56c3.497,2.836,37.994,12.871,54.012,54.251c3.419,8.832,7.7,17.324,9.872,26.617
		l-0.062,0.056c-4.878,0.092-6.599-14.775-16.655-35.035c-10.648-21.452-33.161-37.869-50.145-42.034
		c-4.378-1.073-8.638,0.432-13.006-0.321c-2.13-0.367-3.424,2.26-3.734,4.343c-0.913,6.129,9.592,2.092,35.457,20.712
		c5.198,3.742,10.328,8.034,12.967,14.507c-9.797-6.331-17.783-15.297-29.69-19.765c1.598,4.82,4.5,8.055,7.055,11.246
		c19.078,23.823,13.349,38.843,49.121,86.085c11.32,14.948,20.125,11.547,28.506,41.001c6.333,22.255,9.375,24.135,2.006,25.262
		c-2.354,0.36-2.646-0.461-2.66-1.57c-0.062-5.13-2.42-10.101-0.745-15.375c1.152-3.629-1.367-6.792-2.003-10.204
		c-3.066-16.455-14.745-25.243-27.163-36.512c-0.688,4.383,2.069,7.844,1.623,11.764c-5.493-1.511-2.669-13.143-6.897-12.313
		c-2.589,0.508-1.864,3.424-1.383,5.291c4.043,15.695,4.201,31.907,6.44,47.838c0.187,1.327,1.666,3.959-0.755,4.164
		c-2.622,0.222-1.896-2.709-1.967-4.309c-0.158-3.545-1.758-25.376-3.704-27.489c-0.338,0.215-0.376,0.164-0.114-0.155
		c0.081,0.093,0.162,0.186,0.243,0.279c-0.67,1.495-1.567,2.87-1.147,4.714c0.211,0.928,1.548,2.549-0.628,2.92
		c-2.085,0.356-2.257-1.372-2.453-2.812c-2.462-18.16-2.537-19.32-2.573-21.642c-0.065-4.187-3.675-8.482-1.816-12.004
		c1.304-2.47,4.526-4.37,5.715-7.503c-0.215-0.31-0.413-0.872-0.646-0.886c-6.21-0.381-6.702,3.193-10.321-9.459
		c-2.802-9.795-2.381-14.552-5.904-17.942c-0.9-0.866-0.715-3.094-2.826-2.232c-5.498,2.245,5.018,18.436,7.634,55.231
		c4.84,68.071,5.021,117.468,7.312,133.695c0.658,4.659,13.423,68.77,5.095,67.328c-1.096-0.19-1.035-1.013-0.963-1.874
		c1.411-16.931-1.115-33.684-4.58-50.003c-6.192-29.157-1.249-31.345-10.767-120.954c-0.285-2.68-1.078-5.312,0.254-7.93
		c0.784-1.542,0.344-2.611-1.11-3.656c-0.909-0.653-0.921-2.054,0.714-1.883c2.74,0.285,2.706-1.334,2.309-3.076
		c-4.021-17.685,1.335-14.55-9.879-60.092c-0.415-1.685-5.853-5.238-0.9,10.46c3.644,11.55,4.079,23.651,6.699,35.361
		c0.786,3.513,2.63,6.979,1.707,11.351c-3.057-1.325-3.151-4.031-3.37-6.124c-1.427-13.654-5.342-26.825-7.575-40.314
		c-0.802-4.844-4.206-13.887-12.202-11.249c-6.188,2.042,1.186-1.152,9.142,54.436c3.727,26.041-0.363,110.776,7.351,124.124
		c4.117-8.242-0.223-16.465,1.766-24.183c3.307,0.721,8.54,37.501-3.31,27.382c-15.753-13.453,4.521-147.22-25.2-183.932
		l-0.129,0.169c6.294-4.224,9.468,1.396,21.251-2.554c8.732-2.928,9.64-5.852,5.793-13.999
		c-5.201-11.015-10.014-22.273-16.958-32.296c-18.462-26.649-19.361-9.642-26.804-25.02c-3.481-7.192-17.992,1.708-24.579,6.344
		c-4.555,3.206-9.146,6.396-15.08,6.369l0.112,0.104c-0.673-3.363,1.105-0.207,18.894-12.765c4.852-3.426,10.201-5.409,16.101-5.957
		c1.609-0.149,3.339,0.15,4.373-1.676c3.638-6.424,7.344-1.375,11.405-8.426c7.734-13.427,15.44-19.723,17.072-19.989
		c12.753-2.076,7.052-14.79,27.188-18.244c5.786-0.993,11.007-3.615,16.705-4.681c9.063-1.696,12.046-52.965,33.179-63.097
		l-0.124-0.102c0.709,2.204-0.767,3.72-2.049,4.883c-10.981,9.968-8.797,17.378-24.792,56.446
		c19.357,0.273,47.555,21.078,59.177,33.532c7.34-8.545,13.846-17.372,20.157-26.324c1.409-1.999,5.877-1.438,4.767-4.36
		c-1.401-3.688,1.695-5.338,2.177-8.039c0.109-0.609,0.749-1.594,1.781-0.694c-0.04-0.516,0.042-0.548,0.248-0.095
		c-0.146-0.018-0.291-0.036-0.437-0.054c3.038-2.771,2.681-7.202,5.035-10.307l0.228,0.091l-0.38-0.033
		c2.105-1.956,0.63-5.961,4.087-7.144c0.134-0.521,0.45-0.322,0.199-0.013c-0.509,0.624,0.403,0.226-0.334-0.161
		c1.212-7.41,4.954-13.945,7.396-20.926c10.045-28.717-0.13-35.254-19.82-80.201c-3.92-8.948-10.543-16.264-14.505-25.137
		c-5.305-11.882-13.157-22.159-20.506-32.757c-4.702-6.78,6.08-15.566-7.495-31.354c-11.453-13.321-14.742-27.106-30.407-29.56
		c-8.392-1.314,2.514,8.171,4.255,16.178c0.521,2.396,2.961,1.036,3.829,2.453L608.943,362.46z M401.482,188.704
		c-2.845,5.628-2.845,5.628-6.777,6.792c-2.943,0.871-4.086,3.817-1.747,5.198c11.327,6.689,17.119,0.988,14.357-5.854
		c-0.647-1.603,0.087-2.176,0.832-3.139c5.017-6.489,2.85-16.438-4.456-20.329c-3.643-1.94-7.248-3.861-9.345-7.68
		c-0.506-0.922-1.23-1.683-2.445-0.915c-0.818,15.446,8.341,5.829,12.086,18.259c-3.467,0.79-3.828-3.539-6.671-3.097
		c-1.363,8.318-1.363,8.318-7.091,6.78C390.565,193.005,392.547,193.876,401.482,188.704z M578.956,782.172
		c0.761-0.145,1.523-0.29,2.284-0.435c-2.146-6.335-1.577-13.161-3.604-19.517c-0.613,0.1-1.225,0.2-1.838,0.3
		C576.851,769.07,577.903,775.621,578.956,782.172z M227.053,73.395c5.955-1.121,1.473-5.739,2.893-8.429
		c0.441-0.836,0.765-2.469-0.468-3.318c-1.617-1.112-5.14,3.059-3.72,4.027C229.129,67.973,225.693,71.085,227.053,73.395z
		 M417.023,134.737c2.091-6.887,1.428-9.027-3.236-11.288C412.77,127.884,415.985,130.998,417.023,134.737z M390.901,175.4
		c-0.606-0.804-0.101-2.813-2.219-2.747c-3.06,0.097-1.63,5.099,0.422,5.223C390.193,177.942,390.789,176.886,390.901,175.4z
		 M404.617,166.725c-1.914-1.139-2.664-3.137-4.944-2.335C398.053,164.961,400.455,169.289,404.617,166.725z M384.91,158.231
		c-0.098-0.496-0.167-0.847-0.236-1.197c-2.029,1.652-1.759,1.197-1.008,2.21C384.098,158.892,384.531,158.54,384.91,158.231z
		 M389.836,158.406c-1.649-2.026-2.247-0.872-1.372,0.955C388.915,159.047,389.365,158.734,389.836,158.406z M401.895,136.5
		c-0.019,0.522,0.197,1.052,0.311,1.579c0.325-0.175,0.723-0.282,0.962-0.538C403.989,136.66,401.94,135.288,401.895,136.5z
		 M583.96,756.414l-0.044,0.379l0.537-0.141L583.96,756.414z M393.746,181.525l-0.185-0.489l-0.177,0.493L393.746,181.525z
		 M572.322,739.688l-0.344-0.043l0.138,0.498L572.322,739.688z"/>
	<path d="M600.188,401.165c-3.994,7.672-26.891,20.716-41.796,21.553c-4.598,0.258-8.155,4.355-12.158,6.739
		c-6.331,3.771-10.906,9.567-15.894,14.784c-11.025,11.53-23.037,21.828-35.965,31.143c-3.989,2.874-9.765,2.723-12.57,7.687
		c1.57,1.833,4.023-0.187,5.614,1.279c-5.92,5.223-15.94,5.139-20.484-0.544c14.32-5.327,40.977-15.452,77.168-56.427
		c-7.44-1.329-14.031,1.324-20.781,0.088c-64.947-11.895-22.921-52.668-98.116-90.028c-17.556-8.722-18.053,2.911-31.514-0.528
		c-0.85-0.217-1.521-0.124-2.35,0.089c-28.908,7.431-94.727-12.514-96.934-13.508c-15.81-7.116-26.859-14.462-35.725-19.881
		c-5.176-3.164-5.77,4.874-1.631,7.843c55.122,39.547,50.843,33.746,71.353,41.798c1.526,0.599,4.411,0.556,3.576,3.042
		c-0.681,2.03-2.922,0.637-4.398,0.164c-32.637-10.469-34.719-16.033-46.284-24.272c-25.165-17.928-26.341-19.437-28.132-13.534
		c-2.31,7.614-2.487,9.691,39.544,41.205c6.335,4.75,29.913,13.649,49.354,15.639c24.085,2.467,61.63-13.356,66.618-5.632
		c-0.194,0.423-0.356,1.085-0.52,1.085c-39.875,0.122-54.47,20.837-114.418-6.124c-6.128-2.756-10.573-7.802-15.409-11.948
		c-7.809-6.694-16.532-12.344-23.621-19.883c-4.373-4.65-11.969,1.887-7.304,6.442c23.361,22.804,23.786,41.542,42.483,57.37
		l0.051-0.024c-2.328,1.596-4.439-0.091-5.258-1.472c-1.438-2.421-3.929-3.596-5.436-5.78c0.037,0.518-0.326,0.429-0.193,0.117
		c0.319-0.746-0.446-0.075,0.38,0.033c0.874,9.796,4.869,18.482,12.036,24.805c14.994,13.228,21.149,24.28,53.943,51.976
		c15.053,12.713,56.772,43.68,70.038,47.82c2.075,0.648,4.4,1.373,5.477,4.074c-9.592,3.543-64.484-40.529-74.632-46.565
		c4.653,11.24,55.815,43.683,76.863,54.557c43.178,22.308,49.865,29.225,72.797,56.313c2.336-2.12,2.697-5.098,3.551-7.809
		c4.679-14.854-5.883-5.77-8.712-10.593c1.066-2.025,3.758-1.566,5.356-3.757c-3.485-2.684-23.565-3.059-24.471-11.935l-0.109,0.13
		c3.09-0.184,5.38,1.85,7.66,3.29c7.321,4.624,15.207,4.398,23.274,3.62c4.886-0.471,10.995-22.223,11.283-29.47
		c-2.102-1.26-3.309,0.232-4.678,0.954c-16.013,8.44-20.214-2.143-26.23-2.972c-2.01-0.277-4.842-1.976-5.965,0.829
		c-0.913,2.28-0.497,5.393,2.048,6.65c5.423,2.679,9.471,7.436,15.14,9.66c1.365,0.536,3.152,1.056,2.447,2.894
		c-1.848,4.818-16.342-8.047-20.031-10.219c-4.467-2.63-4.389-15.719,4.595-13.216c29.875,8.323,37.086-3.15,44.141-10.675
		c12.803-13.654,23.674-38.508,23.674-42.698c-9.284,3.809-16.447,14.22-19.733,13.993l-0.284-0.285
		c2.559-4.357,6.561-7.48,10.333-10.48c15.728-12.507,28.51-28.11,33.956-26.413l-0.191-0.197c-4.242,6.373-11.9,6.554-8.125,10.605
		c14.843,15.928,30.33,53.303,65.599,61.928c-2.73,1.667-5.494,2.08-6.544,4.93c-1.349,3.663-3.921,3.72-6.829,1.626l0.013,0.005
		c10.914-13.566-11.355-4.384-36.15-40.477c-5.235-7.62-9.271-16.096-16.146-22.595c-4.837-4.572-5.949-4.659-8.661,1.383
		c-13.099,29.184-17.454,39.911-33.226,56.91c-9.033,9.736-5.313,23.137-14.733,36.981c-6.942,10.202-0.185,15.205-8.82,30.039
		c-4.436,7.62,0.533,5.548,20.566,42.483c0.629,1.159,3.127,2.579,0.853,4.108c-2.39,1.607-3.047-0.737-3.976-2.35
		c-66.049-114.694-115.894-90.956-181.508-162.872c-21.644-23.723-42.644-37.603-51.738-56.884
		c-18.216-38.621-12.002-36.445-30.208-59.431c-2.06-2.601-4.787-4.758-6.456-7.565c-7.714-12.979-19.326,26.646-48.543,25.258
		c-8.348-0.397-9.759-0.696-9.563-2.309c0.232-1.906,1.851-1.627,3.435-1.34c18.437,3.345,15.722,1.59,47.006-25.173
		c1.955-1.672,0.453-11.51,6.24-12.803l-0.48,0.065c-2.566-8.762,0.715-17.475,0.219-26.268c-0.552-9.797-0.097-19.652-0.051-29.482
		c0.007-1.431,0.045-2.938,2.325-3.496c1.099,7.214,0.981,14.439,0.904,22.883c6.219-9.885,1.588-20.42,2.492-25.224
		c0.567-3.014-2.45-3.288-4.093-4.586l0.038-0.25l0.001,0.416c-5.224-1.406-2.493-7.517-8.294-12.407
		c-7.422-6.257-9.116-6.385-17.692,0.665c-2.322,1.909-2.83,1.504-3.87-0.745c-4.353-9.411-4.383-9.397-14.251-9.003
		c-0.605,0.024-1.192,0.023-1.428-0.701c5.58-4.142,12.212-3.311,16.101,3.003c2.622,4.256,4.454,4.576,8.023,1.427
		c3.168-2.796,10.355-2.058,13.247,1.688c3.214,4.164,14.178,11.749,14.236,16.347c0.167,13.379,79.325,62.577,127.94,51.125
		c39.95-9.411,62.191-19.988,90.402-5.921c7.288,3.634,16.202,3.221,22.153,15.436c1.407,2.888-1.671,5.215-3.476,1.821
		c-5.222-9.815-15.9-13.153-35.815-20.157c-13.131-4.619-53.445,7.969-54.447,8.227c-12.289,3.165-39.088,11.836-82.135-3.931
		c-41.323-15.135-44.607-21.377-59.42-34.741c-2.697-2.433-3.852-0.057-3.349,1.304c1.265,3.425-4.615,13.192,4.947,18.533
		c10.459,5.842,19.353,14.099,29.868,19.933c3.191,1.771,3.177,2.362,1.649,4.647c-0.982-0.272-2.132-0.303-2.919-0.854
		c-32.89-22.988-31.293-23.206-32.987-20.987c-2.861,3.747,22.38,16.387,30.659,21.183c1.851,1.072,3.533,0.771,5.355,0.622
		c0.879,4.901,24.86,9.109,29.147,9.793c6.028,0.962,34.267,10.944,68.604,7.682c11.046-1.049,57.719-10.817,63.052-11.151
		c14.904-0.935,27.308,2.723,16.911,6.795c-3.99,1.563-7.38-0.926-10.462-1.976c-9.367-3.191-17.69,0.571-26.561,1.572
		c1.166,4.203,6.323,4.056,6.806,8.07l0.127-0.137c-5.915,1.374-9.326-7.314-15.557-5.012c50.59,33.819,42.122,26.707,65.804,74.144
		c3.561,7.133,4.113-0.919,8.755,4.265c12.856,14.357,25.056,14.729,41.24,11.466c-7.186-4.461-13.827-9.653-22.225-11.389
		c-2.483-0.513-3.665-2.5-2.819-4.639c1.076-2.719,3.03-0.999,4.588-0.1c10.889,6.281,37.407,29.147,77.486-3.749
		c1.112-0.913,2.512-1.491,4.064-1.329L600.188,401.165z M344.222,469.464c0.042,0.535-0.331,0.461-0.204,0.131
		c0.29-0.756-0.433-0.056,0.396,0.018c0.345,0.273,0.293,0.45-0.155,0.531C344.247,469.918,344.235,469.691,344.222,469.464z
		 M248.852,310.257c1.998-4.184,2.266-9.465,0.777-11.724C246.971,302.425,249.84,306.439,248.852,310.257z M249.53,315.851
		c-1.229-0.81-1.315,1.048-0.353,0.489C249.336,316.248,249.415,316.018,249.53,315.851z M471.033,560.853l-0.236,0.421l0.34,0.08
		L471.033,560.853z M488.41,578.791c-0.632,0.771-0.066,1.413,0.976,0.481C489.061,579.111,488.736,578.95,488.41,578.791z
		 M249.764,292.806l0.253-0.429l-0.354-0.082L249.764,292.806z"/>
	<path d="M528.21,816.441c-5.445-4.222,1.153-8.722-9.355-72.506c-0.999-6.064-2.518-12.125-5.501-17.704
		c-1.236-2.312-2.538-2.822-4.938-2.198c-6.302,1.639-1.647,4.857,0.595,34.357c0.284,3.733,7.349,70.419,1.492,78.183
		c-1.078-5.949-0.289-96.551-11.269-114.963c0.368-1.071,1.529-1.009,2.429-0.655c10.81,4.257,21.926-3.562,26.263,1.199
		l0.129-0.169c-4.229,1.22-5.544,2.921-3.137,7.592c17.461,33.895,0.477,235.175,14.184,240.985
		c13.136,5.569,26.414,10.69,41.145,8.654c3.571-0.493,6.956-0.713,9.556,2.584c3.023-2.131,1.639-6.014,3.684-8.152
		c0.828,0.043,1.719,0.223,1.626,0.84c-1.494,9.959,2.285,20.466-3.593,30.028c-5.397,8.781,5.908,83.726,5.065,109.646
		c-2.503,0.115-2.574-1.187-2.545-2.466c0.214-9.519-2.264-18.791-2.576-28.261c-0.228-6.914-5.846-0.444-7.37-8.692
		c-1.732-9.378-14.085-11.166-23.623-18.769c-18.655-14.869-6.617-31.802-7.891-68.987c-0.143-4.172-2.933-6.536-4.217-9.779
		c-3.529,0.823-0.888,0.824-1.998,36.69c-0.415,13.391-2.052,26.785-1.753,40.146c1.11,49.597,2.385,48.112-1.718,49.53
		c-1.621,0.56-1.069,2.425-1.08,3.869c-0.007,1.001-3.273,207.971-7.598,265.806l-0.313-0.31
		c-4.658-8.167-0.212-35.027-1.432-54.658c-0.412-6.633,2.702-13.004,1.357-19.715c-0.298-1.489,0.947-3.367-1.295-4.286
		c-0.952-0.39-1.274-1.45-0.616-1.973c5.435-4.314,2.619-10.48,3.186-15.657c1.527-13.928,1.286-70.117,1.281-71.133
		c-0.395-76.559,4.191-76.235,2.785-116.149c-0.149-4.225,3.268-6.845,2.627-11.147c-3.224-21.611,6.533-100.14-0.552-103.37
		c-7.901-3.602-8.325-5.203-7.982,36.64c0.793,96.903-3.658,54.447-5.695,152.404c-0.03,1.463-0.311,2.861-2.221,3.867
		c-4.554-7.994,5.909-69.897,4.711-173.381c-2.048-177.009-5.895-175.213-2.035-178.133c2.439-2.777,3.377-6.007,2.91-9.659
		c-3.424-8.352,1.721-54.492-11.235-80.007c-0.586-1.154-1.448-2.907-3.28-1.822c-1.646,0.975-0.293,2.119,0.228,3.128
		c6.203,12.011,10.258,61.26,11.229,74.408c0.154,2.078-0.076,4.361,3.058,4.275C529.237,809.644,526.908,812.542,528.21,816.441z
		 M585.236,1007.573c-0.04-0.516,0.323-0.429,0.192-0.119c-0.316,0.747,0.446,0.072-0.381-0.03
		c1.323-5.471,1.793-11.225,5.509-16.249c-4.05-0.79-7.422-2.453-10.211-5.536c-5.565-6.152-6.542-0.054-21.003-4.797
		c-7.086-2.324-2.827,7.206-3.288,15.712c-1.241,22.942-3.552,25.599-1.375,28.043c4.274-4.025,9.052-7.192,14.257-8.929
		C574.834,1013.701,579.76,1010.165,585.236,1007.573z M586.886,1068.959c1.08-1.677,3.564-2.542,2.968-4.038
		c-1.789-4.49,0.3-8.957-0.486-13.346c-5.766-32.205-0.084-43.388-9.029-37.364c-13.578,9.143-15.739,1.369-23.62,15.295
		c-3.848,6.799-1.692,16.806,4.552,21.667C573.479,1060.675,582.06,1060.817,586.886,1068.959z"/>
	<path d="M248.068,166.134c14.688,38.506,17.19,54.097,61.253,77.926c15.813,8.552,33.307-5.346,41.504-21.494
		c0.635-1.251,0.977-3.931,3.184-2.957c2.68,1.183,0.8,3.25-0.041,4.699c-10.378,17.874-27.687,31.772-43.991,23.602
		c-11.731-5.879-0.482,16.493-3.997,25.406c-2.378,0.072-2.865-1.443-2.777-3.249c0.375-7.685-2.531-15.16-1.384-22.904
		c0.662-4.47-1.75-1.513-25.648-22.4c-16.778-14.665-24.903-41.03-25.103-43.356c-0.842-9.811-10.1,7.436-22.717-5.658
		c-0.707-0.734-1.475-1.912-2.281-1.971c-7.819-0.57-10.387-7.816-15.17-12.093c-2.931-2.621-3.853-7.347-2.467-11.078
		c2.129-5.73,0.703-10.645-2.073-16.105c4.239-0.157,6.367,1.043,5.967,5.166c-0.987,10.175,16.993,11.47,22.826,14.298
		c-2.993-5.565-13.689-1.675-13.607-11.134c2.725-0.936,6.807,9.138,11.852,2.054c2.045-2.872,6.203-1.218,7.34,2.414
		c1.283,4.099,1.706,8.565,4.878,11.827c2.722-0.352,4.174-14.122,20.488-11.949c1.221,0.163,2.318,1.358,3.633-0.659
		c2.069-3.173,2.698-2.907,4.595,0.243c1.221,2.029,4.887,25.289,5.25,36.78c0.18,5.717,0.87,11.986,8.617,13.152
		c0.921,0.139,1.729,0.722,1.689,1.536c-0.183,3.743-11.472,2.218-12.934-7.323c-0.376-2.454-0.296-4.98-0.392-7.474
		c-0.303-7.841-3.04-15.389-2.786-23.298c0.064-2.009-0.688-3.011-2.989-2.777c-2.168,0.22-2.859,1.034-2.545,3.179
		c0.456,3.119-2.711,12.643-9.256,9.997c-0.766-0.31-1.755-0.918-2.347-0.675c-4.321,1.776-6.332-0.514-7.415-4.67
		C248.837,165.505,248.453,165.819,248.068,166.134z M256.447,152.402c-1.293,1.283-4.512,0.692-4.062,4.235
		c2.473-0.78,2.918-2.829,3.9-4.398c2.185,0.831,4.319,0.368,6.436-0.378C260.606,151.641,258.436,150.638,256.447,152.402z
		 M255.411,160.324c-0.448-0.189-0.298-0.538-0.008-0.348c0.683,0.447,0.293-0.465-0.15,0.24c-0.89,5.968,5.201,2.875,6.783,6.297
		C264.116,156.811,262.066,159.88,255.411,160.324z M242.381,170.713c-1.341,4.169-6.795,2.656-6.734,5.047
		c0.097,3.784,12.319,1.558,10.723-4.544c-0.841-3.218-1.518-7.908-6.403-2.977c-0.627,0.633-14.765-3.896-17.809-5.811
		c-2.889-1.817-5.602-4.381-6.845-7.804c-0.613-1.686,0.631-5.009-2.402-4.366c-2.456,0.52-1.121,3.589-0.898,5.503
		c0.684,5.896,7.113,6.627,7.943,8.597C225.457,177.415,238.07,168.248,242.381,170.713z M218.488,151.948
		c3.192,8.482,10.015,11.088,18.15,12.288C235.375,152.665,225.971,156.685,218.488,151.948z M242.663,162.218
		c-0.5-4.13-4.214-2.953-3.78-1.599C239.47,162.454,240.82,162.819,242.663,162.218z"/>
	<path d="M612.336,1125.903c6.136-2.514,9.82-7.888,14.329-12.298c5.199-5.084-1.939-24.739-1.131-52.028
		c0.178-6.013-1.571-11.802-2.009-17.782c-0.01-0.141-1.857-131.993-7.65-202.73c-0.377-4.608,1.629-9.088,1.447-13.882
		c-0.079-2.077,2.851-2.149,4.341,0.116c-0.083,0.109-0.166,0.218-0.25,0.327c-0.048-0.119-0.168-0.31-0.133-0.346
		c0.587-0.59-0.421-0.285,0.271,0.178c2.919-2.999,4.801,2.605,2.727,4.001c-4.611,3.102-3.275,8.458-4.798,12.671
		c-1.052,2.908-0.202,6.504-0.202,10.721c16.768-5.958,9.438-21.526,17.923-18.729c4.082,1.345,10.07-17.244,15.397-17.688
		c-0.663,4.492-3.407,8.285-5.882,11.04c-7.769,8.648-12.687,19.752-22.936,26.32c-8.524,5.463,0.083,3.179,2.279,127.338
		c0.284,16.05,2.494,32.075,0.753,48.202c-0.543,5.035,0.601,10.312,1.376,15.417c2.838,18.689-0.068,19.004,4.809,60.077
		c1.119,9.427-7.646,12.085-7.989,13.086c-3.188,9.28-11.929,9.964-19.366,12.688c-6.162,2.256-6.077-4.129-16.813,4.911
		c-5.835,4.914-14.991,4.062-18.656-2.176c-3.172-5.4-7.714-7.757-13.228-9.296c-10.747-3.001-14.229-12.028-10.477-21.272
		c4.763-11.735,20.6-10.756,29.897-18.112c1.042-0.824,2.482-1.41,3.274-0.129c0.818,1.324-0.665,2.043-1.601,2.855
		c-11.173,9.694-21.329,5.172-26.947,16.167c-3.55,6.948-1.023,13.408,6.276,16.298c6.182,2.448,13.2,3.89,16.03,11.259
		c0.24,0.625,1.231,1.036,1.95,1.392c14.52,7.188,14.549-9.3,23.154-5.318c5.081,2.352,9.38-1.861,14.002-3.305l0.267,0.002
		L612.336,1125.903z"/>
	<path d="M397.418,1308.954c-5.074,28.114-4.307,56.541-5.939,84.758c-0.771-0.041-1.541-0.081-2.312-0.121
		c0-47.9,8.941-100.043,6.447-136.926c-0.616-9.113,1.589-44.99,9.311-79.715c2.142-9.634-0.556-18.955-1.24-28.409
		c-1.583-21.875-1.186-56.95,2.256-62.381c1.522,2.16,1.221,4.027,1.067,5.67c-2.066,22.103-1.584,44.14,1.547,66.115
		c2.409,16.905-2.172,14.693-8.017,70.054c-2.571,24.35,0.727,48.473,0.723,72.693c-0.019,129.452,10.401,162.995,10.3,161.995
		c0.382,3.8-5.635,19.41-11.493-61.283c-1.32-18.188-2.132-36.348-2.237-54.59C397.758,1334.262,399.225,1321.664,397.418,1308.954z
		"/>
	<path d="M454.932,1300.059c-0.161,29.464-3.991,58.673-5.16,88.064c11.498-57.787,11.891-66.593,13.787-151.12
		c6.126,7.046,0.676,98.389-6.528,130.45c-2.48,11.036-7.693,68.47-7.83,69.528c-1.24,9.614,0.496,19.082,1.56,28.561
		c0.358,3.184,2.827,4.932,5.589,6.869c18.083,12.681,24.108,29.648,19.178,30.859c-3.345,0.822-2.111-3.132-2.903-4.99
		c-4.893-11.479-13.631-19.395-23.961-25.829c-17.227-10.729-31.077-4.183-33.894-18.989c-0.253-1.331-0.59-2.608,0.789-3.239
		c1.988-0.91,2.502,0.705,2.828,2.142c2.396,10.593,10.887,6.864,23.103,12.705c8.941,4.276,0.241-3.993,2.776-56.135
		c0.016-0.334,6.082-71.67,8.505-102.75C452.941,1304.021,452.621,1301.72,454.932,1300.059z M449.339,1402.522
		c-1.552-3.691,2.243-7.005,0.323-11.149C448.017,1395.808,447.9,1397.465,449.339,1402.522z"/>
	<path d="M238.407,732.601c4.733,20.751-22.639,309.603-0.084,390.077c0.791,2.823,6.103,13.382,2.128,14.298
		c-2.031,0.468-2.044-1.254-2.511-2.678c-11.347-34.563-15.486-59.448-12.379-153.174c4.212-127.08,4.492-144.9,7.611-167.383
		C237.066,785.678,231.445,742.773,238.407,732.601z"/>
	<path d="M212.541,1153.248c-4.534,66.853-14.398,43.808-9.401,191.17c1.051,30.992,6.494,97.859,4.345,113.849
		c-5.043,37.534,11.843,10.692-8.141,50.569c-0.553,1.104-1.01,2.541-2.52,2.135c-1.53-0.412-1.24-1.923-1.155-3.161
		c0.639-9.287,10.951-16.805,7.784-26.637c-0.931-2.891-1.442-5.886-0.943-9.121c4.619-29.939-7.158-157.271-4.191-209.076
		c4.197-73.277,10.561-84.321,11.148-109.568c0.04-1.731-1.1-4.707,1.1-4.883C214.019,1148.248,211.51,1151.787,212.541,1153.248z"
		/>
	<path d="M340.227,867.304c0,68.921-4.31,158.669-6.09,204.752c-2.8,72.501-30.31,142.174-35.019,139.575
		c-2.077-1.146-0.381-3.161,0.378-4.325c10.566-16.185,13.378-35.02,18.55-53.086c12.841-44.854,11.35-90.4,13.913-125.703
		c7.32-100.847,1.481-164.127,6.738-163.734C340.859,864.944,340.089,866.908,340.227,867.304z"/>
	<path d="M362.7,85.413c4.457-1.398,1.028,4.399,4.025,4.448c4.518,0.074,0.64-11.819-1.716-16.049
		c3.898,0.165,5.428,4.08,9.721,2.575c-5.671,5.779-1.043,12.425-5.36,18.041c3.407-0.378,4.237-1.698,4.265-3.775
		c0.14-10.382-0.608-10.044,1.127-10.241c3.455-0.393,1.124,4.239,3.865,5.629c0.145-0.575,0.554-1.241,0.372-1.637
		c-1.058-2.303-1.664-4.53,1.532-5.423c2.713-0.758,4.663,0.503,6.171,2.902c2.971,4.726,0.267,9.729,0.931,14.555
		c0.375,2.722-3.936-1.006-4.054,1.658c-0.064,1.454,0.726,3.142,1.935,3.712c1.612,0.76,0.665-1.572,1.407-1.826
		c2.648-0.907,4.995-3.824,8.232-0.662c2.529,2.47,4.563,4.596,2.854,8.457c-1.426,3.222-4.882,1.563-6.852,3.165
		c-0.744,2.945,4.203,4.035,3.459,6.782c-0.091,0.336-1.289,0.785-1.483,0.617c-1.559-1.359-4.668-1.473-4.341-4.316
		c0.159-1.384,0.516-2.704-0.927-3.016c-1.962-0.423-0.503,2.072-1.603,2.475c-4.571,1.674-6.651,3.826-0.266,22.19
		c-3.809,0.351-3.086-3.85-6.258-3.872c-1.015,2.519-2.967,4.429-6.297,4.02c2.98-4.614,8.916-7.733,6.329-15.102
		c-0.658-1.875,0.395-4.693-1.292-6.798c-0.472-0.59-1.078-0.653-1.563-0.22c-2.504,2.234-1.392,4.945-0.784,7.489
		c2.506,10.481-7.313,5.991-2.657,14.605c0.185,2.542,2.865,0.024,3.443,1.686c0.68,1.956,2.105,4.741,0.587,5.858
		c-2.415,1.777-4.167,4.943-7.088,5.359c-2.503,0.357-2.472-4.913-6.162-4.24c-0.146,0.027,0.019-2.331,0.641-3.395
		c1.295-2.215,1.041-4.114-0.244-6.355c-1.686-2.94,0.185-7.712,3.08-9.522c1.36-0.85,4.421-0.577,3.442-3.326
		c-1.054-2.958-3.316-1.312-5.203-0.67c-0.288,0.098-0.727-0.247-1.975-0.72c7.496-1.802,5.757-11.086,12.595-13.21
		c-1.268-1.583-1.664-3.695-3.697-5.157c-3.465,4.901-4.138,11.867-11.984,14.822c2.565-4.108,4.439-7.108,6.81-10.906
		c-7.113,2.48-10.222,10.655-19.626,10.205c10.058-5.77,18.519-11.268,19.11-23.83c-3.299,2.4-3.032,7.026-6.868,7.753l0.13,0.124
		c0.67-5.013,2.302-9.872,2.375-14.98L362.7,85.413z M378.816,101.263c1.347,3.217-0.526,6.4,1.93,8.892
		c1.729,1.754,3.037-3.218-0.186-8.503C380.489,101.535,380.189,101.558,378.816,101.263z M377.427,87.21
		c-0.989,2.324-1.97,3.841-0.418,5.574C377.905,93.784,380.874,91.267,377.427,87.21z M375.061,97.106
		c-0.053-0.161-0.105-0.321-0.158-0.482c-0.371,0.493-0.329,0.319,0.032,0.97C374.977,97.432,375.019,97.269,375.061,97.106z
		 M372.073,137.783l0.406,0.041l-0.161-0.565L372.073,137.783z"/>
	<path d="M322.396,1202.919c0.137-27.624,4.589-59.273,4.589-59.273c0.038-1.686,3.498-2.627,2.955,0.763
		c-4.022,25.09-2.191,43.054-6.038,136.076c-4.186,101.217-26.415,204.284-35.974,198.596c-2.309-1.374-0.18-3.438,0.525-4.881
		c19.871-40.645,28.613-138.708,31.478-183.807C320.776,1277.095,322.178,1246.711,322.396,1202.919z"/>
	<path d="M486.395,716.471c16.022,106.128,14.44,87.598,17.76,316.516c0.364,25.078,7.323,37.838,0.69,58.86
		c-0.401,1.271-0.991,3.106-2.991,2.269c-1.531-0.64-1.066-2.014-0.543-3.2c6.815-15.458,0.276-19.682-0.651-81.569
		c-0.836-55.822,0.187-79.845-1.95-141.083c-3.756-107.586-10.252-115.875-14.363-147.466
		C484.151,719.289,484.657,717.975,486.395,716.471z"/>
	<path d="M296.713,1423.233c-19.478,63.033-17.301,61.553-24.182,64.678c-14.072,6.391-23.043,15.443-33.966,13.831
		c-1.587-0.234-2.939-1.205-2.841-2.783c0.129-2.083,1.86-1.528,3.337-1.484c11.101,0.332,20.652-7.956,30.14-12.104
		c14.194-6.205,45.3-128.078,42.504-234.02c-0.146-5.523,3.592-5.14,3.616-2.469
		C315.761,1298.597,313.148,1370.045,296.713,1423.233z"/>
	<path d="M219.732,1216.44c6.598,34.922,7.091,33.191,5.098,33.911c-2.733,0.989-1.528-1.619-6.448-18.101
		c0.021,1-0.401,54.377-1.441,67.285c-5.664,70.31,14.645,164.659,2.612,162.687c-3.699-0.606-1.33-5.485-0.799-8.48
		c2.107-11.888-8.713-96.784-6.755-131.327C217.838,1219.358,209.044,1216.113,219.732,1216.44z M217.544,1228.139l-0.29-0.042
		l0.105,0.434L217.544,1228.139z"/>
	<path d="M227.828,733.887c2.795,3.691,0.403,7.275-0.489,10.14c-5.145,16.537-11.835,109.977-11.616,108.974
		c-0.279,1.277,0.185,2.756,1.79,2.675c3.74-0.191,2.63,2.59,2.537,4.27c-3.185,57.553-2.777,53.573-5.048,54.461
		c-2.925-13.44,1.658-26.769,0.128-41.476c-2.909,13.977-3.248,26.774-4.912,39.403c-3.366,25.545-2.012,57.621-6.457,57.047
		c-1.003-0.13,11.889-187.305,20.903-230.194C225.062,737.302,225.9,735.373,227.828,733.887z M215.751,860.417
		c-0.301,1.371-0.186,2.489,0.563,3.59C215.775,862.9,217.334,861.736,215.751,860.417z M216.118,868.213
		c-1.831,0.498-0.177,1.365,0.088,0.577C216.261,868.626,216.155,868.408,216.118,868.213z"/>
	<path d="M221.823,1163.316c-5.339-10.343-5.111-18.204-7.541-17.405c-5.841,1.92-2.264,2.352-8.386-37.934
		c-4.911-32.32-3.981-126.61-2.588-136.816c4.856,3.632,0.172,9.714,2.358,77.591c3.797,117.896,21.801,97.932,36.292,149.871
		c0.832,2.981,4.398,7.315,0.102,8.981c-2.005,0.777-2.821-5.136-3.77-8.135c-4.043-12.784-8.669-25.277-16.588-36.278
		L221.823,1163.316z"/>
	<path d="M200.573,351.342c-1.424,0.33-3,0.557-3.877,1.81c-4.096,5.86-10.874,8.065-16.434,11.858
		c-8.623,5.882,2.678,17.291,1.702,34.494c-0.08,1.411,1.122,6.408-2.26,6.935c-4.889,0.761-6.188-8.334-6.166-9.334
		c0.177-8.181-2.863-16.263-0.447-24.539c0.925-3.167-1.229-4.489-4.398-3.281c-8.744,3.335-2.022,48.654,0.519,59.603
		c22.759,98.051,9.317,82.375,9.836,78.314c1.925-15.074-11.739-71.435-15.4-86.389c-6.604-26.981,2.168-43.69-3.982-51.024
		c8.066-1.988,15.642-4.631,22.424-8.859c23.907-14.903,10.534-15.573,28.027-20.771c2.769-0.823,3.587,1.473,2.334,3.905
		c-2.741,5.319-6.867,9.228-12.311,11.767c-1.659-1.755,0.482-3.128,0.262-4.667c3.894,0.441,5.739-1.984,8.187-5.793
		C204.015,346.279,201.799,348.157,200.573,351.342z M178.547,400.903c1.145-5.384,0.171-10.484-2.207-15.395
		C174.662,390.963,176.653,395.927,178.547,400.903z"/>
	<path d="M524.505,1173.07c-0.488-1.439,2.322-2.683,3.071,0.048c0.809,2.949-0.938,5.585-0.912,8.55
		c0.722,83.246-7.234,203.223-7.665,213.713c-2.063,50.129,1.238,49.398-1.935,49.764
		C511.148,1445.826,526.646,1179.384,524.505,1173.07z"/>
	<path d="M391.893,1395.655c1.262,2.579,2.564,36.958,2.6,37.969c0.108,3.028-0.38,3.307-3.162,1.438
		c-4.706-3.161-0.795,32.904-0.818,39.422c-0.023,6.553-1.024,12.776-2.425,19.071c-0.849,3.814-3.43,5.536-6.755,6.533
		c-7.611,2.281-6.955-5.367-13.702-6.998c-1.434,4.961,0.536,9.425,1.255,13.977c0-2.109-0.362-6.161,2.434-6.316
		c2.501-0.14,1.781,2.241,1.996,3.738c1.247,8.701,1.982,29.781-3.976,35.781c-1.305-0.342-1.591-0.906-1.565-1.518
		c0.649-15.416-8.787-50.98-2.153-53.032c7.17-2.218,8.02,13.09,15.645,10.357c2.524-0.905,4.044-2.381,4.422-5.352
		c0.832-6.549,1.566-13.015,1.148-19.688c-2.117-33.779,1.643-49.254,3.33-72.273
		C390.241,1397.756,390.333,1396.663,391.893,1395.655z M390.751,1431.24l-0.497-0.266l-0.066,0.403L390.751,1431.24z"/>
	<path d="M383.357,925.608c5.004,48.518-3.323,150.396-4.016,163.98c-1.488,29.18-0.904,77.223-3.772,80.966
		c-7.248-7.57,7.426-130.143,6.072-234.443C381.595,932.554,380.916,928.831,383.357,925.608z"/>
	<path d="M653.605,816.499c1.492-8.794,8.293-14.355,9.047-33.006c1.321-32.714-4.324-64.42-6.438-109.776
		c-0.755-16.21-14.037-25.175-11.637-31.583c5.607,4.03,12.205,21.831,14.647,27.538c2.242-7.18,0.411-13.12-0.708-18.931
		c-2.939-15.27-9.205-19.79-5.866-21.425c2.577-1.262,2.903,1.755,3.453,3.136c16.625,41.759,1.97,51.901,6.925,93.01
		c2.769,22.97,2.755,59.206,2.066,65.806C664.082,800.955,659.368,808.967,653.605,816.499z"/>
	<path d="M337.444,56.425c0.691,3.325-1.944,6.308-5.492,3.049c-10.776-9.899-13.33,2.355-21.287,1.875
		c5.11-11.914-0.581-21.263-6.708-30.61c4.428,2.499,8.041,5.897,9.526,10.656c1.13,3.622,4.188,6.225,4.594,10.124
		c0.31,2.978,5.702,1.686,5.138-1.365c-0.724-3.919-1.784-7.673-4.272-10.885c-4.351-5.617-5.444-6.424-3.901-7.589
		c1.275-0.962,2.641-0.018,3.127,1.037c2.285,4.967,7.287,8.462,7.285,14.738c-0.002,4.839,4.326,5.404,8.08,6.49
		c1.276-2.849-0.489-5.236-0.944-7.741c-0.382-2.1-3.504-4.181,0.308-6.219c1.77-0.947-3.864-3.695-4.56-6.597
		c0.971-1.338,2.348-0.503,3.471-0.828c-0.204,1.192,3.11,3.886,5.58,3.52c-0.379,3.73,0.43,5.361,4.592,9.086
		c0.147-4.037-2.93-6.215-4.716-9.053c-1.613-0.372-2.69-2.194-4.62-1.709c0.179-0.859-0.007-1.507-0.979-1.705
		c-1.825-4.318-7.932,2.353-12.282-5.535c1.593-1.724,2.68-0.536,3.767,0.408c5.587,4.847,4.879-2.895,9.931,1.166
		c9.047,7.273,16.062,15.729,17.857,27.78c0.546,3.669-2.785,3.752-3.859,5.799c-0.189,0.36-1.23,0.227-1.128-0.705
		c0.51-4.638-0.393-2.139-2.238-0.744c-1.641,1.241-2.962-0.213-2.799-2.454c0.347-4.792-2.903-8.536-3.914-12.946
		c-0.177-0.772-0.887-1.379-1.892-0.934c-0.199-0.381,0.474-1.033-0.376-1.212C336.738,47.925,336.474,51.752,337.444,56.425z
		 M343.058,48.774c-0.272,0.305-0.318,0.273-0.138-0.096c0.094,0.079,0.188,0.157,0.282,0.236c-0.059,2.093-0.548,4.26,0.817,6.101
		C344.048,52.872,344.551,50.63,343.058,48.774z"/>
	<path d="M585.964,891.778c0.626-24.297,0.621-48.555-0.26-72.819c4.468,9.628,5.471,83.36,1.589,89.789
		c-1.764-3.772,0.387-7.967-2.444-11.148c1.373,6.122-1.324,12.299,0.355,18.282c3.33,0.854-0.986-5.548,2.602-5.617
		c2.491-0.048,1.643,3.302,1.581,5.162c-0.179,5.387,1.914,10.934-0.637,16.268c-3.168-0.983-1.849-3.614-2.596-5.364
		c-1.648,0.976,0.09,2.93-1.317,4.083c-3.161-0.509-3.266-3.066-3.239-5.43c0.555-49.563-5.927-68.203-0.137-67.427
		C584.411,857.953,582.15,887.387,585.964,891.778z M586.078,921.286c-0.034-0.385-0.067-0.771-0.101-1.156
		c-0.539,0.864-0.483,0.389-0.138,1.679C585.916,921.635,585.993,921.461,586.078,921.286z"/>
	<path d="M316.614,407.552c10.02,4.131,35.641,32.937,61.711,46.346c42.442,21.83,45.525,18.955,70.472,30.807
		c16.124,7.66,35.414,9.412,36.414,9.832c1.574,0.661,4.433-2.087,4.614,0.664c0.206,3.126-3.301,2.737-5.311,2.459
		c-29.024-4.018-35.993-10.4-61.578-20.245c-52.693-20.277-64.269-29.902-103.312-65.313c-1.405-1.274-2.442-2.796-2.882-4.676
		L316.614,407.552z"/>
	<path d="M230.251,416.863c8.561,69.273,28.967,104.794,34.035,174.433c0.097,1.338,0.498,3.326-1.527,3.53
		c-2.486,0.25-2.227-1.851-2.27-3.485C259.04,536.692,220.517,428.091,230.251,416.863z"/>
	<path d="M234.921,546.346c3.766,1.768,1.741,0.438,8.843,44.424c0.92,5.697-1.664,38.716,3.025,63.622
		c0.221,1.172-0.087,2.443-0.154,3.77c-6.468,0.454-4.227-22.14-6.478-29.634c-1.837-0.038-2.109,1.339-2.153,2.456
		c-0.307,7.839-3.537,15.373-2.42,23.356c0.427,3.051-2.2,3.526-3.178,0.603c-0.815-2.435,5.953-46.49,6.322-48.949
		C241.978,584.334,232.879,555.55,234.921,546.346z"/>
	<path d="M343.144,406.07c7.138,2.76,13.022,7.758,20.03,10.907c8.312,3.735,16.895,6.551,25.425,9.582
		c65.526,23.281,33.758,20.952,118.518,5.477c-1.104,2.813-3.275,3.639-5.806,4.323c-12.386,3.345-60.266,13.781-70.842,9.364
		c-40.783-17.03-66.133-21.028-83.289-34.47c-1.813-1.421-3.518-2.894-3.847-5.367L343.144,406.07z"/>
	<path d="M164.516,325.897c-2.395-22.361-9.351-43.116-2.252-64.246c0.462-1.375,0.297-3.463,3.326-4.067
		c-4.314,21.099-5.663,20.464-3.497,30.872c2.533,12.173,3.167,24.689,6.715,36.668c1.013,3.419-3.102,4.411,0.103,6.537
		c2.654,1.759,5.585,2.99,8.716,2.687c4.634-0.448,9.332-0.113,13.87-1.623c1.178,9.206-31.767,7.258-35.989-13.77
		c-2.226-11.086-2.75-22.6-6.551-33.237c-3.144-8.797,0.21-19.385,3.682-20.256c0.991,1.74,0.189,3.443-0.67,4.682
		c-6.646,9.582,3.688,15.488,5.015,40.745C157.259,316.131,158.562,321.43,164.516,325.897z"/>
	<path d="M595.977,908.599c-3.904-1.874-3.583-4.927-3.198-7.28c1.247-7.629-0.35-15.133-0.509-22.687
		c-0.706-33.595,1.91-57.384-5.448-101.31c-0.215-1.285-0.7-3.35,1.264-3.576c4.766-0.549,8.73,68.524,8.198,93.167
		C595.991,880.548,597.715,894.199,595.977,908.599z"/>
	<path d="M603.732,420.006c-5.168,11.339-17.095,4.171-14.773,11.462c0.15,0.471-0.153,1.498-0.517,1.66
		c-5.857,2.61-9.264,8.694-15.429,10.835l0.191,0.197c-0.759-4.342,4.118-4.385,5.529-7.155c0.547-1.074,2.717-0.965,2.931-2.768
		c-1.304-0.912-2.266-0.255-3.319,0.568c-37.18,29.065-27.243,19.798-36.354,26.525c-23.383,17.265-32.253,28.228-51.872,31.647
		c2.685-3.953,6.011-3.536,8.527-4.682c20.249-9.219,106.475-82.9,116.82-76.68l-0.171-0.199c-3.054,3.876-6.06,7.816-11.398,8.699
		c-0.416-0.199-0.399-0.313,0.049-0.342C603.875,419.851,603.803,419.928,603.732,420.006z"/>
	<path d="M397.741,496.347c-16.811-5.646-58.375-45.748-59.376-46.441c-1.484-1.027-3.416-2.756-1.405-5.128l-0.181,0.182
		c2.204-0.079,3.205,1.732,4.53,2.964c40.674,37.813,39.773,36.526,110.26,59.286c2.087,0.674,4.54,0.745,5.559,3.787
		c-19.794-4.353-31.558-11.044-60.308-18.46c-0.559,1.695,1.395,2.162,1.224,3.483L397.741,496.347z"/>
	<path d="M221.701,1163.19c0.225,7.676,12.931,31.336,8.807,34.324c-2.214,1.604-2.174-2.689-4.281-2.21
		c-0.014-1.406,0.81-2.877-0.649-4.638c3.187,21.209-5.554-0.358,15.28,52.89c0.876,2.238,2.181,6.03,0.115,6.851
		c-2.457,0.977-2.516-1.347-6.751-12.844c-14.613-39.67-8.295-15.557-15.374-67.231c-0.267-1.95-2.485-6.671,2.974-7.018
		L221.701,1163.19z M225.368,1187.137c0.325-0.248,0.368-0.203,0.129,0.136c-0.089-0.089-0.177-0.177-0.266-0.266l0.041-0.262
		L225.368,1187.137z"/>
	<path d="M207.978,547.607c6.524,27.404-4.27,87.152-4.674,115.966c-0.019,1.352,0.127,3.296-1.796,3.444
		c-8.019,0.616,9.722-68.226,4.105-112.985C205.346,551.896,205.294,549.894,207.978,547.607z"/>
	<path d="M465.095,590.022c7.4,11.564,16.794,15.618,14.294,18.23c-1.515,1.583-3.213,0.068-4.168-1.243
		c-10.713-14.726-26.152-23.554-19.716-27.575c1.15-0.719,2.051,0.121,2.787,0.655c12.476,9.047,32.697,17.97,48.344,47.6
		c2.236,4.234,6.221,8.318,2.794,9.477c-1.209,0.409-1.923-0.427-2.457-1.374c-8.504-15.077-24.911-41.986-41.724-45.655
		C465.197,590.099,465.146,590.061,465.095,590.022z"/>
	<path d="M305.542,141.466c3.222-7.746,9.066,1.402,18.756,1.533c2.747,0.037,3.334,4.827-0.149,5.765
		c-3.212,0.865-3.696,3.851-7.085-2.281c-2.103,0.927-2.557,2.882-3.543,4.329c-5.995,8.801-7.693,1.739-12.831,2.628
		c-5.616,0.972-9.387-3.863-7.254-9.046c4.376-10.637,18.619-15.204,28.3-9.056c4.229,2.685,0.455,6.885-2.328,4.686
		c-2.408-1.903-5.35-2.084-8.06-3.033c-2.65-0.928-4.786-0.083-7.117,0.913c-4.189,1.79-2.268,3.298,0.069,4.891l-0.172-0.188
		c-0.237,0.754-0.249,1.747-0.751,2.217c-5.343,5.006,5.671,9.503,7.196,1.769c0.826-4.19-2.866-4.068-5.164-5.263L305.542,141.466z
		 M299.513,143.925c-0.125-0.319-0.183-0.859-0.386-0.921c-1.032-0.314-2.598,2.12-1.334,2.247
		C298.719,145.344,299.235,144.756,299.513,143.925z"/>
	<path d="M253.906,779.455c0.864,2.115,1.595,4.157,1.114,6.601c-3.072,15.601-1.866,31.392-1.823,47.12
		c0.122,44.786,1.321,38.993-0.027,43.88c-0.656,2.379-2.951,1.628-3.351-0.077c-0.724-3.087-0.784-56.534-0.358-72.199
		c0.229-8.42-0.502-17.474,4.594-25.205L253.906,779.455z"/>
	<path d="M334.095,383.347c32.831,22.777,69.214,31.029,107.729,32.185c0.075,1.042-0.674,1.737-1.775,1.817
		c-8.245,0.599-16.424,1.918-24.762,0.148c-56.917-12.078-66.78-20.275-78.13-28.992
		C335.977,387.598,334.195,386.798,334.095,383.347z"/>
	<path d="M443.842,1160.753c2.722-11.265,15.092-0.654,29.91-21.68c20.749-29.443,21.282-42.743,25.971-40.521
		c3.967,1.879-16.637,33.898-19.192,37.624c-9.919,14.462-16.338,18.91-29.614,21.949
		C448.653,1158.643,447.199,1160.855,443.842,1160.753z"/>
	<path d="M428.398,585.167c2.209,1.304,34.199,55.119,31.917,70.282c-0.345,2.295,0.917,6.386-1.968,6.384
		c-3.306-0.002-1.574-4.003-1.73-6.171c-1.46-20.358-19.319-49.198-26.288-62.59C429.112,590.733,427.149,588.616,428.398,585.167z"
		/>
	<path d="M440.766,1482.214c-3.643-6.373-9.48,1.861-10.536-3.586c-1.641-8.457,13.867-2.264,25.431,1.269
		c0.913,0.279,2.156,0.282,2.298,1.673c0.303,2.977-5.154,0.888-2.833,4.819c2.876,4.87-8.473,1.61-9.487,1.39
		c-5.175-1.124-10.35-3.232-15.513,0.082c-0.309,0.198-0.839,0.205-1.22,0.112c-1.978-0.485-5.24,1.496-5.722-1.494
		c-0.467-2.905,2.97-2.772,17.643-4.198c0.352-0.034,0.703-0.068,1.055-0.102C441.509,1482.19,441.138,1482.202,440.766,1482.214z
		 M448.838,1483.616l0.414,0.238l0.073-0.325L448.838,1483.616z"/>
	<path d="M437.98,455.133c5.023-2.897,8.992-0.862,12.683-0.884c9.937-0.059,19.056-3.481,28.562-5.22
		c15.727-2.878,31.995-10.417,34.582-8.347c0.662,4.226-45.611,15.045-48.481,15.7C456.63,458.366,447.876,458.616,437.98,455.133z"
		/>
	<path d="M209.711,1046.034c2.401,1.716,2.869,3.548,2.806,5.746c-0.512,17.647,2.716,35.008,4.152,52.506
		c0.687,8.375,4.52,14.926,0.844,14.987c-5.005,0.083-7.732-54.572-9.234-65.567
		C207.925,1051.116,208.644,1048.796,209.711,1046.034z"/>
	<path d="M225.326,128.939c-1.675-4.141-3.809-7.909-6.31-11.693c-2.218-3.357-2.893-5.968-7.571-5.451
		c-1.938,0.214-2.42-2.006-1.336-3.728c1.728-2.745,2.679-5.812,3.532-9.055c4.256,3.014-0.217,5.656,0.271,8.501
		c2.396,1.355,1.543-3.716,3.864-2.075c3.21,2.269-1.003,13.703,10.539,16.631c3.303,0.838,5.404,2.127,5.766,6.055
		c0.406,4.417,3.151,8.502,2.415,13.25c-2.772,0.705-5.313-2.185-8.155,0.571c2.811-6.12-4.414-6.465-4.835-10.384
		c-0.468-0.032-0.491-0.11-0.067-0.235c-0.03,0.139-0.06,0.277-0.089,0.416c-0.843-0.592-1.937-1.323-1.271-2.392
		c0.758-1.216,2.24-0.632,3.444-0.613c1.049,5.978,6.956,7.521,5.947,4.423C230.526,130.257,228.128,129.255,225.326,128.939z"/>
	<path d="M308.408,609.297c-2.871,15.133-1.968,29.963,1.706,44.821c0.47,1.902,3.51,5.337-0.089,6.274
		c-3.821,0.995-8.516-19.564-5.275-47.973c0.958-8.4,2.631-16.719,3.99-25.073c0.217-1.335-0.043-3.391,1.995-3.061
		C314.487,584.892,309.208,605.083,308.408,609.297z"/>
	<path d="M536.888,710.87c-9.012-8.629-14.68,5.865-35.761,4.833c5.996-3.65,13.708-2.968,19.587-7.637
		c-3.07-1.866-5.617,0.071-7.741,0.924c-9.759,3.917-24.542,2.761-24.542,2.761c-3.698,2.876-5.758,0.161-8.282-1.832
		c1.618-2.256,3.678-1.322,5.339-1.233c11.695,0.626,23.087-0.691,34.25-4.358c5.884-1.933,11.017,1.811,16.479,2.996
		C537.187,707.536,538.266,708.864,536.888,710.87z"/>
	<path d="M621.387,678.518c6.285,3.599,6.943,9.084,20.109,43.878c0.973,2.571,1.627,5.025,0.311,8.474
		c-5.162-6.364-2.995-15.146-8.934-20.68c-1.001,2.584,0.886,5.579-0.743,7.971c-1.871,0.208-2.551-1.429-2.518-2.296
		c0.285-7.567-3.719-14.433-3.419-21.995c0.398-10.012-4.675-4.577-4.61-15.544L621.387,678.518z"/>
	<path d="M480.307,1505.322c0.155-11.279-2.169-22.449-1.335-33.772c2.825-38.384,1.063-38.069,4.659-39.994
		c0.994,1.91,0.679,3.948,0.472,5.829c-1.95,17.747-3.576,45.951,0.872,63.393c2.295,8.999-5.06,8.692-4.744,4.694
		c0.054-0.119,0.109-0.238,0.163-0.358c0.07,0.107,0.227,0.265,0.198,0.314C480.169,1506.145,481.085,1505.619,480.307,1505.322z"/>
	<path d="M494.995,420.663c-2.09,3.128-5.311,4.915-17.589,6.56c-24.832,3.326-7.573,5.428-29.676,3.686
		c-2.946-0.232-3.277-4.342,0.397-5.465c17.341-5.301,12.782,3.526,43.231-5.12C492.418,420.024,493.284,419.754,494.995,420.663z"
		/>
	<path d="M199.199,259.001c-0.039-4.081,2.06-5.515,4.34-6.229c2.84-0.89,3.005,2.134,4.242,3.602
		c7.064,8.384,5.452,12.013,5.405,53.965c-0.013,11.504-5.818,11.223-4.991,7.191c2.349-11.45,3.915-46.313-2.13-57.21
		C204.608,257.694,203.174,254.556,199.199,259.001z"/>
	<path d="M240.608,1523.026c-4.129,0.136-8.807-2.607-7.342-5.164c1.079-1.883,2.671-0.165,3.78,0.338
		c3.932,1.782,7.751-0.111,11.582-0.225c18.864-0.557,35.9-18.346,37.988-10.495c0.389,1.462-0.382,2.331-1.879,2.558
		c-7.012,1.065-13.172,4.687-19.317,7.655C257.203,1521.661,248.481,1521.092,240.608,1523.026z"/>
	<path d="M339.801,101.625c13.461-4.402,16.462-10.732,10.404-20.006c-1.76,6.409-4.44,11.903-10.371,14.747
		c-2.771,1.328-5.316,3.898-10.11,2.48c5.798-2.725,6.893-8.775,12.059-11.206c2.553-1.201,4.557-3.75,4.981-6.782
		c0.427-3.056,4.074-1.435,5.194-3.887c0.457-1,9.942,8.221-0.176,20.713C348.628,101.577,344.97,104.003,339.801,101.625z"/>
	<path d="M516.764,1447.116c5.886,21.742,1.466,43.704,2.212,65.567C514.81,1490.925,518.373,1468.945,516.764,1447.116z"/>
	<path d="M588.571,974.132c-4.686-0.479-5.452-4.645-3.964-7.164c1.985-3.359,1.289-5.283-0.232-8.215
		c-1.389-2.678-0.774-4.561-1.404-19.155c-0.179-4.155,3.784-1.628,5.402-3.268c0.693-0.702,1.593,2.034,1.294,3.242
		c-0.892,3.604,0.478,7.012,0.775,10.463C591.143,958.169,589.999,966.063,588.571,974.132z"/>
	<path d="M210.855,983.961c-2.688-7.536,1.154-62.77,4.404-67.265C216.568,920.028,212.868,979.299,210.855,983.961z"/>
	<path d="M425.892,469.471c1.632-1.318,3.241-0.785,5.064-0.051c5.936,2.393,11.845,3.69,18.499,2.327
		c11.547-2.366,23.238-4.008,34.412-7.962c4.67-1.653,4.019,3.293-0.588,4.156c-16.741,3.139-39.673,12.556-56.44,3.745
		C426.162,471.33,425.632,470.539,425.892,469.471z"/>
	<path d="M178.864,274.81c-4.619,7.477,7.585,16.293,5.828,9.803c-1.033-3.815,0.627-7.313,1.501-10.864
		c0.42-1.706,1.078-3.975,3.483-3.713c2.847,0.31,1.869,2.832,1.817,4.456c-0.897,27.669-20.205,14.349-16.09,2.387
		c1.071-3.113,2.124-6.189,5.106-8.072C182.455,271.071,179.729,273.41,178.864,274.81z"/>
	<path d="M219.858,251.397c2.255,7.597,2.367,15.345,4.2,23.318c4.406-4.588-2.744-10.178,2.756-14.336
		c2.905,5.067,0.934,10.6,1.924,15.675c0.455,2.334-0.198,4.943-0.65,7.371c-0.731,3.927-5.521,3.643-5.831,0.141
		C220.907,268.322,215.47,253.354,219.858,251.397z"/>
	<path d="M457.519,1500.767c-2.444,1.726-4.812,0.326-7.035-0.407c-13.865-4.574-26.828-3.387-38.696,5.622
		c-3.439,2.61-2.724,2.338-5.806,1.533c14.905-15.401,30.243-15.882,49.913-9.197c1.065,0.362,1.704,1.123,1.436,2.365
		L457.519,1500.767z"/>
	<path d="M326.029,66.974c-9.229,18.828-25.106,29.351-27.91,23.63C312.059,88.833,311.555,64.737,326.029,66.974z"/>
	<path d="M526.512,1483.054c-3.384-0.017-3.301,1.556-0.556-37.09c0.337-4.741,2.63-9.106,2.891-14.003
		C531.719,1436.701,527.797,1482.23,526.512,1483.054z"/>
	<path d="M472.511,358.635c5.971-0.089,13.242,22.662,13.614,23.714c8.287,23.463,9.682,22.844,6.916,23.707
		c-1.89,0.59-1.454,2.778-14.066-33.24C475.809,363.776,468.145,360.353,472.511,358.635z"/>
	<path d="M594.841,953.312c-4.762,0.224-0.321-24.3-2.39-37.002c-1.002-6.149,3.859-8.679,3.927-4.397
		C597.039,953.861,598.049,953.161,594.841,953.312z"/>
	<path d="M310.044,118.982c9.147-1.119,13.866,1.543,12.908,3.907c-0.647,1.597-1.931,0.609-3.12,0.413
		c-23.647-3.9-25.43,6.752-29.102,11.791c-4.291,5.89-6.426-2.814-0.861-7.655C295.766,122.309,301.9,117.929,310.044,118.982z"/>
	<path d="M597.789,717.264c6.177,7.219,6.305,23.786,11.809,21.845c4.799-1.693-2.713-15.944-5.253-20.025
		c-1.894-3.043,1.547-4.534,2.957-1.802c4.429,8.584,12.054,23.545,2.241,26.119c-2.885,0.757-4.409-1.01-5.408-3.741
		c-2.671-7.302-6.604-14.22-6.409-22.34L597.789,717.264z"/>
	<path d="M586.537,1126.902c-2.042-5.207,0.663-4.953-0.207-31.756c-0.082-2.514,0.55-5.259-2.815-6.908
		c-1.839-0.901-0.393-6.68,1.682-7.326c2.819-0.879,3.539,1.001,3.645,3.267c0.315,6.726,2.499,36.095-1.097,42.725l0.13,0.138
		c-0.489,0-0.979,0-1.468,0L586.537,1126.902z"/>
	<path d="M634.365,808.138c0.544-18.7-0.841-37.429,0.906-56.092C637.657,759.017,637.21,801.112,634.365,808.138z"/>
	<path d="M416.589,509.978c20.245,7.499,43.84,11.453,48.064,20.738c-0.371,0.162-0.896,0.571-1.09,0.45
		c-19.999-12.487-41.2-12.051-46.858-21.315L416.589,509.978z"/>
	<path d="M211.428,1027.513c-3.251,0.109-3.316-1.855-3.383-4.13c-0.252-8.547-1.316-17.058,0.544-25.622
		c1.124-5.177-2.191-11.637,1.266-11.961c1.938-0.181,1.709,1.286,1.713,2.483c0.021,5.981,0.599,12.032-0.12,17.924
		C210.576,1013.358,212.384,1020.447,211.428,1027.513z"/>
	<path d="M149.864,236.921c3.237,7.141-22.024,40.061-24.434,43.482c-2.864,4.066-7.661,6.411-9.913,11.229
		c-2.679-7.529,9.737-9.763,24.315-36.29c3.361-6.115,7.184-12.029,10.101-18.405L149.864,236.921z"/>
	<path d="M650.368,674.099c0.455,5.097-3.545,3.51-3.578,1.121c-0.085-6.315-3.948-11.245-5.865-16.873
		c-1.914-5.62-6.276-9.513-9.244-14.362c-1.302-2.127-3.519-0.685-4.969-1.778c-5.254-3.96,6.571-10.837,18.697,18.728
		C647.287,665.512,648.907,670.194,650.368,674.099z"/>
	<path d="M470.556,703.442c3.75-2.173,7.887-2.284,11.801-3.29c15.218-3.911,30.788-14.819,36.112-13.67
		c3.071,0.663,2.477,4.692-0.005,4.566C505.807,690.406,477.772,708.684,470.556,703.442z"/>
	<path d="M461.154,1180.741c0.07-2.711,0.855-1.525,7.507-11.219c-5.985,0.407-7.689,7.882-14.314,7.444
		c5.644-7.321,13.322-11.381,19.685-16.923C479.535,1155.249,475.108,1173.06,461.154,1180.741z"/>
	<path d="M270.301,138.911c0.138,3.006-2.64,3.208-3.362,1.901c-2.568-4.653-6.378-5.328-11.076-3.829
		c-4.179,1.334-8.327,2.564-9.901,7.406c-0.504,1.549-1.771,2.466-3.381,1.626C236.145,142.657,259.15,121.398,270.301,138.911z"/>
	<path d="M296.127,498.699c-16.15-39.226-25.373-37.625-21.118-43.431c9.081,13.814,18.528,26.91,23.461,42.453
		C297.689,498.047,296.908,498.373,296.127,498.699z"/>
	<path d="M316.743,407.427c-8.15-2.393-18.722-20.821-32.303-33.354c-0.34-0.314-0.226-1.12-0.404-2.18
		c3.259-0.216,2.058-0.763,31.848,32.836c0.735,0.829,1.119,1.718,0.731,2.823L316.743,407.427z"/>
	<path d="M279.327,665.863c-6.435,4.125-11.469-38.068-8.204-38.833c1.598-0.374,2.124,1.349,2.062,2.409
		c-0.734,12.656,4.476,24.316,6.012,36.581L279.327,665.863z"/>
	<path d="M196.457,107.37c-3.631-8.348-11.878,16.117,3.619,23.606c1.194,0.577,3.486,0.456,2.658,2.48
		c-0.597,1.461-2.587,0.951-3.945,0.488c-17.738-6.048-10.674-39.344-0.717-29.728c2.517,2.43,0.497,2.973-1.779,2.985
		L196.457,107.37z"/>
	<path d="M223.364,98.68c0.122,18.276,20.33,13.713,12.311,19.542c-2.463,1.791-5.328,3.244-8.119-0.125
		c-3.67-4.428-7.335-8.75-6.985-15.027C220.667,101.353,220.903,99.814,223.364,98.68z"/>
	<path d="M138.895,353.628c8.68-6.317,25.422,6.978,33.404-3.708c0.86-1.151,2.539-3.096,4.027-1.744
		c1.975,1.794-0.344,3.354-1.437,4.645C167.632,361.393,144.541,354.061,138.895,353.628z"/>
	<path d="M394.162,1439.248c3.595,27.2,2.111,21.153,4.696,33.05c0.813,3.744-2.974,4.851-4.024,0.991
		c-1.385-5.09-1.718-4.471-2.938-31.266c-0.04-0.885,0.789-1.808,1.215-2.714C393.461,1439.289,393.812,1439.269,394.162,1439.248z"
		/>
	<path d="M376.435,743.21c-0.365-2.317,1.678-2.149,2.678-1.277c4.249,3.709,2.583,24.329-10,18.076
		c-7.02-3.488-7.288-12.158-4.326-12.162c2.132-0.003,1.391,3.244,2.088,5.292c1.016,2.981,3.046,5.233,6.301,4.834
		C380.265,757.104,377.188,747.991,376.435,743.21z"/>
	<path d="M291.638,401.334c5.004,1.285,24.896,22.398,31.749,29.299c1.573,1.584,3.568,2.962,3.225,5.654l0.135-0.135
		c-14.417-9.466-16.853-16.072-32.545-31.034c-1.162-1.108-2.86-1.819-2.438-3.894L291.638,401.334z"/>
	<path d="M64.124,357.71c-15.512-0.462-31.012,0.166-46.517,0.333C33.062,353.447,48.596,355.813,64.124,357.71z"/>
	<path d="M279.045,68.803c6.697,0.349,3.063,6.977-0.898,12.597c-1.423,2.019-2.938,0.632-4.438,0.395
		c-1.412-0.224-2.471-1.094-2.148-2.502c0.229-1,2.97-16.321,7.603-14.039c2.18,1.074,0.05,2.431,0.018,3.669
		c-3.078,1.324-1.525,4.028-2.666,6.826C279.722,73.491,279.675,71.226,279.045,68.803z"/>
	<path d="M254.452,258.333c8.71-2.661,25.864,1.558,39.103-8.027c1.772-1.283,4.491-2.76,5.38-0.764
		c0.843,1.892-1.141,1.405-2.025,1.988C282.805,260.832,260.194,262.008,254.452,258.333z"/>
	<path d="M309.963,489.381c-2.294,1.112-3.742,0.23-4.762-1.15c-3.295-4.455-7.807-7.985-10.026-13.259
		c-2.622-6.232-11.052-9.401-8.229-12.076c3.16-2.995,13.688,15.596,18.294,20.511C306.882,485.159,309.12,486.589,309.963,489.381z
		"/>
	<path d="M313.725,1210.224c1.598,9.894,1.691,19.811,1.307,29.733c-0.056,1.456-1.256,2.535-3.578,2.35
		C312.124,1231.588,310.671,1220.785,313.725,1210.224z"/>
	<path d="M415.159,616.637c-2.558,0.227-3.057-2.392-4.949-2.8c-0.803,1.049,1.332,4.254-0.895,4.719
		c-3.243,0.678-4.182-9.302-4.232-12.587c-0.02-1.362,0.694-2.374,2.262-2.382c1.626-0.008,3.646-0.508,4.363,1.454
		C413.082,608.803,415.192,612.403,415.159,616.637z"/>
	<path d="M266.167,490.724c4.792,9.565,5.367,20.011,7.78,29.985c1.059,4.379-4.933,3.737-3.429,0.426
		c1.042-2.293-0.624-4.021-0.899-5.741c-1.283-8.047-4.674-15.735-4.409-24.028C265.214,491.25,265.529,491.143,266.167,490.724z"/>
	<path d="M233.406,105.878c-0.16-1.991-1.351-3.26-0.832-5.625c3.909,2.156,6.508,6.287,11.103,6.577
		c-0.303,3.25-5.813,1.049-4.826,5.336c0.323,1.402-10.604-0.493-11.627-11.196C227.899,101.081,232.828,105.401,233.406,105.878z"
		/>
	<path d="M511.369,877.916c-2.329-12.92-1.071-25.895-1.213-39.665C512.324,841.325,513.372,871.886,511.369,877.916z"/>
	<path d="M446.762,341.131c8.156,2.213,15.23,7.081,23.31,9.507c5.388,1.618,3.891,7.159,0.363,4.513
		c-8.922-6.689-23.916-8.019-23.972-13.687L446.762,341.131z"/>
	<path d="M530.155,1431.103c-2.912-1.166-3.96-2.672-3.358-4.319c4.419-12.086,0.151-23.412,4.546-22.99
		C533.999,1404.049,532.004,1414.684,530.155,1431.103z"/>
	<path d="M245.613,673.451c-5.431-0.706-6.777-5.76-9.59-9.187c-1.126-1.371,0.127-2.389,1.552-1.965
		c1.488,0.443,2.795,1.493,4.181,2.277c0.29,0.626,0.58,1.252,0.87,1.878c0.136-0.687-0.505-1.172-0.997-1.742
		c1.863-3.018,4.139-3.766,5.997-0.306c0.958,1.785,3.059,2.933,3.023,5.256c-2.569,2.915-3.806-1.232-5.926-0.666
		c-0.778,1.802,1.054,3.054,0.698,4.653L245.613,673.451z"/>
	<path d="M284.881,495.121c5.068,8.76,5.107,17.569,6.476,26.039c0.176,1.087-0.479,2.171-1.528,2.444
		c-1.634,0.424-1.933-1.086-2.494-2.151c-0.729-1.383-0.18-2.823-0.298-4.205c-0.469-5.492,0.377-11.213-2.589-16.334
		C283.554,499.37,284.031,497.708,284.881,495.121z"/>
	<path d="M201.903,514.896c3.778,8.496,6.552,28.219,4.632,28.769c-2.715,0.778-2.039,0.814-6.005-28.449
		C200.987,515.109,201.445,515.002,201.903,514.896z"/>
	<path d="M290.205,27.768c10.427-0.421,14.615,12.493,15.243,22.17c0.321,4.947-3.856,3.956-3.498,0.575
		C302.981,40.764,298.276,33.804,290.205,27.768z"/>
	<path d="M302.931,211.167c0.06-11.808,8.12-2.16,11.333-4.559c3.028-2.261,5.352,3.495,4.443,5.137
		c-0.897,1.62-2.658,1.292-3.834,0.475c-2.922-2.03-5.591,1.262-8.39,0.158l0.201,0.202c-0.062-0.976,2.006-1.089,1.079-2.242
		c-2.348-2.922-2.298,1.335-4.958,0.666L302.931,211.167z"/>
	<path d="M195.82,122.004c4.868-2.54,3.808,7.932,10.309,4.55c3.332-1.733,0.777-3.134-0.046-8.896
		c-0.316-2.208,2.753-3.321,3.125-0.609c0.169,1.231,0.721,2.53,0.485,3.67c-0.554,2.672,5.063,5.824-0.487,7.986
		c-7.551,2.942-9.468,1.393-13.256-6.728L195.82,122.004z"/>
	<path d="M343.332,405.885c-1.411,0.48-3.062,0.861-4.162-0.129c-6.581-5.928-14.652-9.61-21.606-15.032
		c10.126,2.385,18.431,7.872,25.58,15.346L343.332,405.885z"/>
	<path d="M434.698,510.694c23.543,5.309,25.24,5.01,24.324,7.876c-0.296,0.927-1.143,1.263-1.986,0.922
		C448.491,516.039,436.134,515.59,434.698,510.694z"/>
	<path d="M632.253,720.296c4.395,8.165,2.141,16.866,2.479,25.376C632.045,737.394,632.062,728.847,632.253,720.296z"/>
	<path d="M235.376,91.274c4.206,0.564,6.95,11.659,15.143,8.238c2.27-0.948,3.338,1.786,1.333,3.157
		C244.455,107.729,237.935,99.643,235.376,91.274z"/>
	<path d="M100.593,361.505c-11.301,0.677-22.301-1.346-33.294-3.434C78.649,356.956,89.449,360.773,100.593,361.505z"/>
	<path d="M154.892,264.045c1.651-11.178,8.651-19.624,14.511-28.652C164.701,245.013,160.143,254.706,154.892,264.045z"/>
	<path d="M415.384,507.506c-1.109-3.325-5.937-1.992-7.244-6.778c8.311,4.222,17.037,5.112,25.729,10.156
		c-7.706,1.263-12.727-3.313-18.637-3.493L415.384,507.506z"/>
	<path d="M257.577,94.786c3.351,2.03,6.988,2.071,10.723,1.757c1.101-0.093,2.772-0.688,3.071,0.929
		c0.325,1.757-1.228,2.437-2.708,2.578C250.266,101.812,252.922,91.965,257.577,94.786z"/>
	<path d="M264.633,454.317c4.246,8.039,9.22,15.722,11.275,24.742C271.16,471.27,265.034,464.141,264.633,454.317z"/>
	<path d="M295.188,68.761c-2.987,6.417-2.557,14.619-10.284,18.306C290.038,81.805,288.013,72.798,295.188,68.761z"/>
	<path d="M199.691,1580.937c-1.752-3.127-2.343-2.498,13.049-13.807c1-0.734,3.521,0.86,1.769,2.892
		c-2.412,2.796-4.441,3.786-15,10.728C199.508,1580.749,199.691,1580.937,199.691,1580.937z"/>
	<path d="M253.799,452.969c-0.923,0.608-2.324,1.015-2.741,0.045c-2.084-4.846-7.38-18.935-3.546-22.921
		c2.09,7.679,3.266,15.543,6.24,22.882L253.799,452.969z"/>
	<path d="M581.866,826.899c0,24.035,0.552,23.976-1.604,23.98c-0.82,0.002-1.245-0.662-1.222-1.14
		c0.396-8.211-1.531-18.945,1.559-22.992C581.022,826.798,581.444,826.849,581.866,826.899z"/>
	<path d="M328.915,76.152c-1.98,7.298-13.411,15.568-20.996,14.859C315.587,86.07,323.499,82.765,328.915,76.152z"/>
	<path d="M577.711,803.546c2.571-0.858,2.452-8.129,3.783,17.054c0.064,1.219,0.045,2.714-1.726,2.702
		c-2.409-0.017-0.579-1.744-0.943-2.56c-2.522-5.669,0.653-11.631-0.989-17.321L577.711,803.546z"/>
	<path d="M191.925,247.76c-0.541,7.817-5.08,13.963-8.623,20.516c-0.564,1.043-1.704,0.928-2.736,0.599l-0.058-0.068
		c9.813-20.742,9.394-21.086,11.564-20.924L191.925,247.76z"/>
	<path d="M527.946,482.589c-1.426,4.715-20.552,10.346-25.908,12.667c-0.238-0.564-0.476-1.127-0.714-1.691
		c8.779-3.754,17.558-7.508,26.339-11.26C527.665,482.307,527.946,482.589,527.946,482.589z"/>
	<path d="M254.118,457.57c4.229,6.987,5.425,14.968,8.797,23.071c-6.587-0.516-2.236-3.688-9.477-18.466
		c-0.875-1.786,0.623-3.122,0.807-4.703L254.118,457.57z"/>
	<path d="M260.498,87.78c-1.625-5.085-6.559-5.322-4.804-7.803c2.348-3.318,5.044,3.951,15.24,8.94
		c-3.147,3.096-5.577,0.185-8.039-0.011l0.183,0.11C262.621,88.783,260.18,87.479,260.498,87.78z"/>
	<path d="M280.361,63.19c5.337-12.419,20.25-8.098,18.628-3.889c-0.154,0.398-0.986,0.777-1.495,0.76
		C286.659,59.703,286.659,59.692,280.361,63.19z"/>
	<path d="M360.334,100.146c-2.888,7.293-12.956,12.46-20.212,9.581c8.544,0.348,13.351-6.722,20.342-9.456L360.334,100.146z"/>
	<path d="M298.516,196.73c-2.272-0.427-4.357-0.737-4.061-2.773c0.889-6.113,9.717-6.042,9.595-2.345
		C303.931,195.239,300.072,195.038,298.516,196.73z"/>
	<path d="M262.896,88.906c1.02,1.593,2.564,3.997-1.051,3.353c-12.058-2.15-13.024-14.133-8.37-9.974
		c2.221,1.985,3.423,5.275,7.024,5.495l-0.172-0.163c0.918,0.466,1.835,0.932,2.753,1.398L262.896,88.906z"/>
	<path d="M224.749,1577.203c0.364-2.038,0.021-5.434,3.279-4.936c1.995,0.305,5.487-0.535,5.944,3.038
		C234.489,1579.344,224,1581.393,224.749,1577.203z"/>
	<path d="M534.216,1373.249c-0.684,8.15-1.367,16.299-2.064,24.608c-2.762-0.706-2.387-0.818-0.753-21.366
		c0.128-1.609,0.11-3.472,2.504-3.552L534.216,1373.249z"/>
	<path d="M637.799,515.02c5.812-2.882,12.633-3.286,17.723-7.943c-3.398,7.522-10.837,10.473-17.847,7.804L637.799,515.02z"/>
	<path d="M331.666,72.179c0.726-2.628-0.03-6.169,2.814-6.775c8.079-1.722,7.833,5.739,2.772,9.901
		C336.388,69.546,336.388,69.546,331.666,72.179z"/>
	<path d="M212.989,116.765c4.367,12.448,6.816,8.184,7.137,14.503c0.192,3.781-6.161,2.572-2.72-0.348
		c1.084-0.92-0.871-2.527-1.999-3.707C212.686,124.368,210.475,121.173,212.989,116.765z"/>
	<path d="M572.704,696.576c-5.41-4.503-7.633-9.643-10.257-15.093C568.085,683.818,571.365,688.527,572.704,696.576z"/>
	<path d="M362.445,140.226c-7.884-4.189-9.496-9.981-4.075-15.265c1.426,2.574-1.66,5.469,0.893,7.924
		C361.167,134.716,363.763,136.705,362.445,140.226z"/>
	<path d="M165.158,255.513c0.921-7.113,5.165-12.797,7.35-19.367c0.673,0.282,1.345,0.563,2.018,0.845
		c-2.696,6.356-5.391,12.712-8.087,19.069C166.012,255.878,165.585,255.695,165.158,255.513z"/>
	<path d="M210.21,1044.438c-3.101-3.337-2.397-7.567-1.954-11.667c0.175-1.618,3.42-2.681,3.478,0.292
		c0.074,3.762,0.035,7.526,0.035,11.289C211.248,1044.381,210.729,1044.41,210.21,1044.438z"/>
	<path d="M595.984,954.736c1.071,3.555,0.333,6.896,0.564,10.187c0.069,0.983-0.061,2.189-1.467,2.257
		c-3.004,0.145-2.444-5.349-2.602-8.501C592.383,956.748,593.108,954.99,595.984,954.736z"/>
	<path d="M371.818,662.884c0.03,1.391,2.329,3.387-0.265,4.068c-3.983,1.045-3.092-4.564-4.028-8.736
		C366.925,655.54,371.612,653.227,371.818,662.884z"/>
	<path d="M455.961,536.82c-8.439-8.084-16.368-7.456-14.053-10.969c1.927-2.924,7.771,4.77,13.153,7.29
		c1.576,0.738,1.482,2.305,0.841,3.775L455.961,536.82z"/>
	<path d="M199.508,1580.749c-0.477,3.11-2.723,12.139-6.004,10.718c-1.809-0.784-1.586-0.925,2.285-9.096
		c0.804-1.698,2.003-2.587,3.902-1.434L199.508,1580.749z"/>
	<path d="M296.407,83.952c-1.257,6.755-4.634,9.424-11.36,9.547C289.255,89.963,292.831,86.958,296.407,83.952z"/>
	<path d="M265.642,46.636c-2.61,5.395-6.676,10.204-6.339,16.785c-2.858-6.564-0.604-12.56,6.01-17.084L265.642,46.636z"/>
	<path d="M295.154,45.54c-1.874-7.951-1.874-7.951-9.896-11.083C293.995,29.823,299.677,40.633,295.154,45.54z"/>
	<path d="M526.587,1483.006c-0.253,12.688,0.164,14.242-1.828,14.317c-1.22,0.045-1.858-1.02-1.648-2.107
		C523.62,1492.572,523.629,1484.903,526.587,1483.006z"/>
	<path d="M466.23,409.162c-4.004,3.79-8.764,4.714-13.488,2.626C457.037,409.259,461.243,408.389,466.23,409.162z"/>
	<path d="M471.644,1200.192c-1.339,1.813-5.056,10.235-7.161,8.368c-1.815-1.611,3.406-8.153,5.01-9.848
		C470.392,1197.762,471.348,1198.472,471.644,1200.192z"/>
	<path d="M596.172,608.153c3.008-1.664,7.451,3.86,8.092-2.667c0.069-0.704,0.997-0.239,1.416,0.107
		C611.257,610.199,603.486,614.091,596.172,608.153z"/>
	<path d="M151.28,394.139c2.162,3.832,1.578,7.722,0.757,11.634C149.791,402.007,150.06,398.087,151.28,394.139z"/>
	<path d="M300.679,71.657c2.382,4.428-1.434,7.062-1.697,10.362c-0.053,0.662-1.044,0.686-1.503,0.337
		c-0.43-0.326-0.979-1.244-0.828-1.473C298.422,78.197,297.26,74.321,300.679,71.657z"/>
	<path d="M461.551,539.982c4.331,1.766,8.076,4.206,10.023,8.715l0.109-0.13c-5.141-0.822-7.912-4.373-10.014-8.695L461.551,539.982
		z"/>
	<path d="M220.274,1581.507c-1.629,4.349-5.059,5.18-9.606,5.186C212.708,1582.073,216.875,1582.469,220.274,1581.507z"/>
	<path d="M510.3,679.491c2.659-1.688,4.692-2.98,6.745-4.283C521.702,680.429,514.806,682.592,510.3,679.491z"/>
	<path d="M282.625,370.345c-3.697-0.738-6.598-2.579-8.957-6.416C278.598,364.067,280.853,366.86,282.625,370.345z"/>
	<path d="M637.259,831.228c-1.956-3.553-3.102-6.949,0.532-10.56C640.289,824.72,637.22,827.976,637.259,831.228z"/>
	<path d="M295.705,217.848c-0.917,1.937-3.436,0.846-5.098,1.725c-1.248,0.659-2.199-1.392-2.08-2.366
		c0.384-3.156,3.433-0.655,5.03-2.002C294.404,214.489,295.7,215.869,295.705,217.848z"/>
	<path d="M152.333,417.653c-2.421-3.357-2.41-6.362,0.245-10.814C152.47,411.228,155.847,414.15,152.333,417.653z"/>
	<path d="M297.484,67.128c0.854-5.243,1.08-5.417,6.523-5.347C302.769,64.798,299.656,65.358,297.484,67.128z"/>
	<path d="M585.222,603.064c3.518-2.768,7.217-1.247,10.908-0.552C592.593,603.819,588.966,603.918,585.222,603.064z"/>
	<path d="M282.768,493.368c-3.853-3.378-4.038-7.039-5.096-10.316C281.023,485.145,282.092,488.407,282.768,493.368z"/>
	<path d="M308.524,221.923c-0.061,4.755-3.867,3.085-6.311,3.586c-2.31,0.474-3.377-0.655-3.01-3.727
		c3.207,1.885,6.368,2.436,9.394,0.236L308.524,221.923z"/>
	<path d="M309.169,229.531c2.625-1.284,4.958-4.471,9.052-1.357C315.017,229.87,312.155,230.001,309.169,229.531z"/>
	<path d="M103.981,361.234c3.243-0.741,6.475-1.179,9.525,0.54C110.267,362.759,107.088,362.554,103.981,361.234z"/>
	<path d="M327.867,437.565c4.005,1.218,6.94,3.725,8.912,7.393l0.181-0.182c-5.262,0.327-6.31-4.485-8.958-7.347
		C328.002,437.43,327.867,437.565,327.867,437.565z"/>
	<path d="M384.718,137.646c1.747,1.872,3.675,3.187,2.588,5.665c-0.157,0.357-1.309,0.707-1.621,0.497
		C383.258,142.173,384.471,140.045,384.718,137.646z"/>
	<path d="M359.807,116.906c-0.661,3.058-2.137,4.959-5.75,4.189C354.832,117.743,358.037,118.286,359.807,116.906z"/>
	<path d="M594.293,606.989c-4.205,2.215-6.42,0.259-9.391-1.372C588.801,605.069,588.801,605.069,594.293,606.989z"/>
	<path d="M367.883,61.019c-2.878-0.212-3.409-2.303-4.592-4.191C368.282,55.04,366.849,59.363,367.883,61.019z"/>
	<path d="M423.077,519.05c2.45-0.083,4.179,0.492,5.608,2.406C425.224,521.942,425.224,521.942,423.077,519.05z"/>
	<path d="M577.796,800.341c-1.388,0.266-2.271-3.265,0.887-4.306C580.601,795.403,581.254,799.678,577.796,800.341z"/>
	<path d="M281.438,39.912c-0.425,0.326-0.985,1.035-1.284,0.938c-4.053-1.307-3.55-5.192-1.788-4.435
		C279.838,37.047,281.07,38.019,281.438,39.912z"/>
	<path d="M438.846,337.775c3.371-0.609,6.159,0.157,7.916,3.356l-0.3,0.333c-3.14-0.014-4.795-2.938-7.489-3.826L438.846,337.775z"
		/>
	<path d="M196.293,107.2c0.939,1.793,0.274,3.411-0.256,5.735c-2.553-2.704-1.981-4.269,0.42-5.566L196.293,107.2z"/>
	<path d="M192.072,247.884c0.226-2.076-2.776-4.898,1.596-6.42c0.325,2.607-0.334,4.549-1.743,6.296L192.072,247.884z"/>
	<path d="M623.139,386.894c0.12-2.439,4.285-2.725,4.102-0.616C627.094,387.963,623.07,388.296,623.139,386.894z"/>
	<path d="M594.72,1117.617c1.803,0.931,2.008,2.195,1.291,3.677c-0.123,0.255-0.828,0.536-0.973,0.426
		C593.423,1120.481,594.269,1119.107,594.72,1117.617z"/>
	<path d="M308.598,222.018c2.443-0.853,2.343-3.728,4.901-2.859c1.902,0.646-1.86,4.906-4.975,2.764L308.598,222.018z"/>
	<path d="M188.655,967.956c-0.416-1.464-0.695-3.007-0.045-4.519C191.419,964.795,189.371,966.38,188.655,967.956z"/>
	<path d="M195.95,121.978c-1.668-1.981-1.615-3.97,0.21-6.286c1.073,2.341,2.554,4.364-0.34,6.311L195.95,121.978z"/>
	<path d="M265.313,46.336c0.38-2.281,1.991-3.825,3.513-6.034c0.988,3.554-1.293,4.844-3.184,6.333L265.313,46.336z"/>
	<path d="M197.555,541.648c-3.697-1.318-1.784-5.395-0.09-3.874C198.815,538.987,198.222,540.323,197.555,541.648z"/>
	<path d="M401.734,149.826c-2.174,0.423-1.216-3.468,0.893-3.375C404.714,146.542,402.88,149.603,401.734,149.826z"/>
	<path d="M306.482,212.377c1.096,4.155-3.166,4.562-3.008,2.285c0.134-1.945,1.799-1.897,3.209-2.083L306.482,212.377z"/>
	<path d="M398.043,496.019c1.812,0.488,3.581,1.057,4.862,2.556l0.141-0.167c-2.267,0.597-4.193,0.318-5.305-2.061L398.043,496.019z
		"/>
	<path d="M613.853,389.844c0.177-3.11,3.465-2.806,3.049-1.483c-0.402,1.277-1.469,1.743-2.744,1.796
		C614.159,390.156,613.853,389.844,613.853,389.844z"/>
	<path d="M610.31,392.572c0.311-2.039,1.8-2.55,3.544-2.728c0,0,0.305,0.312,0.305,0.312c-0.215,2.698-2.157,2.394-3.982,2.293
		C610.177,392.45,610.31,392.572,610.31,392.572z"/>
	<path d="M600.309,401.294c-0.054-2.132,1.704-2.405,3.511-3.294c-0.255,2.586-1.46,3.413-3.632,3.165L600.309,401.294z"/>
	<path d="M363.92,72.84c-1.831-0.16-1.113-3.206-0.044-2.857C366.135,70.72,365.171,72.95,363.92,72.84z"/>
	<path d="M431.166,523.27c2.492-1.068,3.444,0,4.624,1.031C434.038,525.421,432.983,524.337,431.166,523.27z"/>
	<path d="M601.551,603.555c-1.347,0.254-2.747,0.606-3.46-1.066c-0.484-1.133,3.042-1.636,3.343,1.19L601.551,603.555z"/>
	<path d="M608.384,395.718c-2.138-4.396,3.539-2.832,1.792-3.269c0.706,1.836-1.011,2.26-1.86,3.19L608.384,395.718z"/>
	<path d="M291.764,401.223c-2.35-0.766-3.024-2.218-1.82-4.441l-0.051,0.024c-0.059,1.756,2.407,2.539,1.745,4.528L291.764,401.223z
		"/>
	<path d="M620.112,385.324c2.382,0.988-0.017,2.539-0.63,1.335C619.195,386.092,619.389,385.556,620.112,385.324z"/>
	<path d="M585.132,933.906c-0.433,0.515-0.706,1.147-1.151,1.31c-1.332,0.49-0.984-0.734-1.073-1.318
		c-0.077-0.506,0.067-1.269,0.837-1.079C584.229,932.939,584.61,933.479,585.132,933.906z"/>
	<path d="M262.772,484.899c-0.535-0.188-1.237-0.323-0.979-1.167c0.174-0.569,0.41-1.174,1.21-0.921
		C264.73,483.357,263.93,485.307,262.772,484.899z"/>
	<path d="M455.902,536.916c2.128-1.638,3.52-0.17,4.944,1.169l0.06-0.071c-2.209,1.927-3.215-1.129-4.944-1.193L455.902,536.916z"/>
	<path d="M635.459,813.197c-1.086,0.169-2.06-1.602-0.278-2.159C636.273,810.696,637.028,812.952,635.459,813.197z"/>
	<path d="M641.59,640.257c2.458,1.219-0.517,2.349-0.897,1.18C640.487,640.801,640.822,640.337,641.59,640.257z"/>
	<path d="M300.131,213.201c-1.461,0.61-0.75,0.975-2.774-1.043C298.53,211.641,297.81,211.279,300.131,213.201z"/>
	<path d="M415.233,507.391c0.656,0.756,1.392,1.469,1.357,2.587l0.116-0.127c-3.955,0.837-4.004-3.266-1.321-2.345L415.233,507.391z
		"/>
	<path d="M615.466,411.614c-0.105-1.686,1.401-1.836,2.404-1.077C617.482,410.67,615.2,411.306,615.466,411.614z"/>
	<path d="M254.245,457.472c-2.16-1.301-1.331-2.899-0.447-4.503l-0.047,0.007c-0.053,1.545,1.051,2.999,0.367,4.594L254.245,457.472
		z"/>
	<path d="M560.317,783.639c0.868,0.091,1.273,0.722,0.274,1.807c-0.348-0.403-0.695-0.806-1.043-1.21
		C559.805,784.037,560.061,783.838,560.317,783.639z"/>
	<path d="M619.502,394.141c-0.467-2.465,1.633-2.941,1.728-1.94c0.128,1.353-1.147,1.313-1.898,1.798L619.502,394.141z"/>
	<path d="M402.905,498.575c0.824,0.428,2.154,0.023,2.376,1.442l0.135-0.142c-1.088-0.009-2.273,0.14-2.371-1.467L402.905,498.575z"
		/>
	<path d="M619.332,393.999c-1,0.676-1.871,1.298-2.183,0.05c0.785,0.031,1.569,0.062,2.354,0.092L619.332,393.999z"/>
	<path d="M588.377,933.976c-1.073,0.75-0.698,0.675-1.483-0.063C587.462,933.431,587.044,933.429,588.377,933.976z"/>
	<path d="M617.114,523.052c0.486,1.186,0.963,2.37-0.657,3.11C616.644,526.316,617.161,523.071,617.114,523.052z"/>
	<path d="M637.674,514.88c0.196,1.053-0.254,1.442-1.265,1.19c-0.933-0.232-0.021-1.715,1.39-1.051L637.674,514.88z"/>
	<polygon points="208.443,1028.848 208.801,1028.728 208.744,1029.075 	"/>
	<polygon points="407.663,119.601 407.233,119.787 407.264,119.355 	"/>
	<path d="M471.55,660.997c-0.282,0.589-0.565,1.178-0.847,1.768l0.131,0.175c-0.197-0.826-0.293-1.606,0.828-1.838L471.55,660.997z"
		/>
	<path d="M403.546,108.359c0.126,0.047,0.252,0.093,0.378,0.14c0.073-0.453-0.059-0.512-0.396-0.177L403.546,108.359z"/>
	<path d="M587.745,1126.902c-0.041,0.508-0.133,1.046-0.802,0.863c-0.199-0.054-0.273-0.562-0.405-0.863
		c-0.001,0-0.13,0.138-0.13,0.138c0.489,0,0.979,0,1.468,0L587.745,1126.902z"/>
	<polygon points="591.979,1127.621 592.358,1127.511 592.303,1127.846 	"/>
	<path d="M403.528,108.321c0.055-0.185,0.109-0.37,0.164-0.555c-0.049,0.198-0.097,0.395-0.146,0.593L403.528,108.321z"/>
	<path d="M304.301,142.795c-0.067-0.891,0.355-1.325,1.24-1.329c0.001,0-0.132-0.136-0.132-0.136
		c0.014,0.867-0.578,1.127-1.28,1.276L304.301,142.795z"/>
	<path d="M362.828,83.873c-0.171,2.053,0.011,1.417,0.011,1.417c-1.08-0.532-1.155-0.977,0.113-1.306
		C362.952,83.985,362.828,83.873,362.828,83.873z"/>
	<path d="M326.612,436.287c0.872-0.02,1.295,0.401,1.255,1.278c0,0.001,0.135-0.135,0.135-0.134
		c-0.858,0.006-1.281-0.415-1.254-1.278C326.748,436.152,326.612,436.287,326.612,436.287z"/>
	<polygon points="614.678,395.385 614.791,395.754 614.462,395.705 	"/>
	<polygon points="393.432,1291.063 393.568,1291.394 393.236,1291.362 	"/>
	<path d="M461.668,539.872c-1.183-0.238-1.146-0.977-0.763-1.858l-0.06,0.071c0.235,0.632,0.47,1.265,0.705,1.897L461.668,539.872z"
		/>
	<path d="M608.316,395.639c-0.366-0.015-0.732-0.031-1.097-0.046c0.501-1.007,0.779,0.062,1.165,0.125L608.316,395.639z"/>
	<path d="M609.069,362.585c0.078-0.302,0.156-0.605,0.234-0.907c0.177,0.176,0.355,0.351,0.532,0.527
		C609.528,362.292,608.881,362.399,609.069,362.585z"/>
	<polygon points="385.139,1463.786 384.741,1463.939 384.787,1463.546 	"/>
	<polygon points="261.352,331.927 261.01,332.054 261.052,331.72 	"/>
	<path d="M149.933,236.937c0.327,0.031,0.654,0.062,0.981,0.092c-0.445,0.89-0.68-0.265-1.05-0.108
		C149.864,236.921,149.933,236.937,149.933,236.937z"/>
	<path d="M457.331,1500.683c0.129,0.052,0.353,0.174,0.373,0.146c0.233-0.316,0.159-0.347-0.185-0.062L457.331,1500.683z"/>
	<path d="M577.836,803.421c-0.187-0.012-0.492,0.041-0.541-0.048c-0.251-0.454-0.081-0.623,0.37-0.368
		C577.997,803.192,577.367,803.888,577.836,803.421z"/>
	<path d="M302.804,211.002c-0.02,0.156-0.04,0.311-0.06,0.467c0.062-0.101,0.125-0.202,0.187-0.302
		C302.931,211.167,302.804,211.002,302.804,211.002z"/>
	<polygon points="294.86,210.473 295.008,210.841 294.642,210.804 	"/>
	<polygon points="231.246,145.499 231.396,145.963 230.977,145.906 	"/>
	<path d="M601.433,603.679c0.286,0.099,0.572,0.199,0.859,0.298c-0.762,0.764-0.693,0.068-0.74-0.422
		C601.551,603.555,601.433,603.679,601.433,603.679z"/>
	<polygon points="593.175,971.476 593.613,971.309 593.563,971.74 	"/>
	<path d="M405.282,500.016c1.333-0.296,0.513,1.562,0.135-0.142L405.282,500.016z"/>
	<polygon points="583.661,606.747 583.28,606.866 583.33,606.526 	"/>
	<path d="M529.198,481.338c-0.053,0.783-0.469,1.202-1.254,1.25c0.001,0.002-0.28-0.281-0.281-0.282
		c0.052-0.784,0.468-1.203,1.252-1.251C528.914,481.053,529.198,481.338,529.198,481.338z"/>
	<path d="M453.757,1552.484c-3.32,1.891,5.322,5.483-0.84,6.928c-2.616,0.613-7.133-4.97-6.575-7.769
		C447.221,1547.237,455.152,1544.661,453.757,1552.484z"/>
	<path d="M476.105,1569.662c1.751,0.841,4.072,1.047,4.374,3.622c0.357,3.038-3.505,4.227-5.909-1.555
		C474.015,1570.394,475.068,1570.008,476.105,1569.662z"/>
	<path d="M252.26,694.266c-2.925,1.847-5.153-2.341-2.38-2.79c2.498-0.404,1.06,2.277,2.237,2.935L252.26,694.266z"/>
	<path d="M244.15,693.645c0.553,0.101,1.106,0.202,1.66,0.303c-0.178,0.223-0.337,0.616-0.536,0.637
		c-0.723,0.076-1-0.399-1.013-1.066C244.261,693.519,244.15,693.645,244.15,693.645z"/>
	<polygon points="245.779,691.533 246.191,691.385 246.137,691.786 	"/>
	<path d="M402.86,184.79c-0.188-0.255-0.374-0.509-0.561-0.763c0.426-0.294,0.851-0.587,1.277-0.881
		C403.908,184.591,404.044,184.154,402.86,184.79z"/>
</g>
</svg>
